<svg enable-background="new 0 0 120 120" viewBox="0 0 120 120" xmlns="http://www.w3.org/2000/svg"><path d="M39.725 50.57c2.502-5.524 6.797-10.055 12.135-12.872 2.306-9.909-2.064-20.54-11.394-25.736-1.954-1.088-4-1.847-6.075-2.331 9.946 6.003 13.436 18.834 7.74 29.063-5.823 10.455-19.016 14.208-29.471 8.388-1.273-.709-2.442-1.531-3.511-2.441 2.033 3.318 4.907 6.179 8.547 8.207 3.063 1.707 6.342 2.625 9.622 2.871 3.286-3.043 7.617-4.971 12.407-5.149z" fill="#03447d"/><path d="M92.408 57.762c-1.469 0-2.883.215-4.23.584-1.664-11.599-11.613-20.523-23.676-20.523-10.482 0-19.371 6.747-22.616 16.128-.474-.042-.952-.073-1.437-.073-7.491 0-13.767 5.164-15.496 12.121l-.43-.042c-6.557 0-11.871 5.313-11.871 11.87 0 6.505 5.236 11.771 11.72 11.855l-.02.017h67.583l-.018-.03.489.023c8.815 0 15.967-7.146 15.967-15.965s-7.148-15.965-15.965-15.965zm.067 25.154c-.373 0-.725-.066-1.086-.109h-66.034c-.284.049-.572.088-.87.088-2.853 0-5.163-2.312-5.163-5.166s2.31-5.164 5.163-5.164c2.454 0 4.497 1.713 5.025 4.01l3.083-1.542c-.981-1.487-1.561-3.263-1.561-5.177 0-5.197 4.215-9.412 9.414-9.412 2.663 0 5.058 1.117 6.771 2.896-.047-.516-.079-1.038-.079-1.566 0-9.58 7.765-17.343 17.344-17.343s17.344 7.763 17.344 17.343c0 3.164-.861 6.119-2.34 8.67l3.847 1.779c.685-4.455 4.498-7.877 9.142-7.877 5.127 0 9.285 4.156 9.285 9.285s-4.156 9.285-9.285 9.285z" fill="#0a6fcd"/><path d="M92.448 82.907c-.365 0-.714-.066-1.066-.107h-66.058c-.283.05-.568.087-.867.087-2.853 0-5.165-2.312-5.165-5.164s2.312-5.166 5.165-5.166c2.453 0 4.497 1.715 5.025 4.008l3.082-1.541c-.982-1.484-1.559-3.262-1.559-5.176 0-5.197 4.214-9.414 9.412-9.414 2.665 0 5.06 1.118 6.771 2.897-.044-.515-.078-1.037-.078-1.565 0-9.58 7.765-17.344 17.345-17.344s17.342 7.764 17.342 17.344c0 3.164-.859 6.118-2.339 8.672l3.847 1.779c.68-4.456 4.497-7.878 9.144-7.878 5.128 0 9.284 4.156 9.284 9.284s-4.157 9.284-9.285 9.284z" fill="#fff" opacity=".4"/></svg>