<svg enable-background="new 0 0 120 120" viewBox="0 0 120 120" xmlns="http://www.w3.org/2000/svg"><path d="M17.201 79.805l5.809-1.555-4.25-4.253 1.991-1.994 4.252 4.251 1.558-5.809 2.722.729-1.558 5.811 5.811-1.559.729 2.723-5.809 1.558 4.25 4.251-1.99 1.992-4.255-4.251-1.554 5.809-2.724-.729 1.558-5.809-5.809 1.557-.731-2.722z" fill="#0a6fcd"/><path d="M32.089 93.568l5.114-1.37-3.742-3.74 1.752-1.755 3.742 3.744 1.371-5.113 2.397.643-1.372 5.112 5.111-1.371.641 2.396-5.11 1.37 3.741 3.74-1.752 1.754-3.743-3.744-1.369 5.113-2.396-.643 1.37-5.109-5.111 1.366-.644-2.393z" fill="#0a6fcd"/><path d="M51.375 93.491l4.565-1.226-3.343-3.342 1.567-1.564 3.345 3.341 1.222-4.565 2.141.574-1.224 4.564 4.565-1.222.574 2.14-4.565 1.221 3.342 3.344-1.569 1.569-3.342-3.343-1.222 4.564-2.138-.574 1.223-4.564-4.568 1.225-.573-2.142z" fill="#0a6fcd"/><path d="M64.298 79.537l3.929-1.053-2.875-2.875 1.346-1.349 2.875 2.876 1.053-3.928 1.838.493-1.05 3.928 3.928-1.053.495 1.839-3.929 1.055 2.875 2.873-1.347 1.348-2.877-2.875-1.051 3.929-1.843-.493 1.054-3.928-3.928 1.054-.493-1.841z" fill="#0a6fcd"/><path d="M62.562 65.576l3.24-.867-2.371-2.373 1.11-1.109 2.373 2.369.868-3.238 1.52.406-.869 3.241 3.239-.87.407 1.52-3.239.867 2.371 2.371-1.11 1.114-2.371-2.373-.869 3.24-1.52-.408.868-3.237-3.239.867-.408-1.52z" fill="#0a6fcd"/><path d="M52.453 58.348l2.16-.579-1.582-1.583.741-.74 1.583 1.582.579-2.162 1.013.271-.581 2.163 2.162-.581.269 1.014-2.161.579 1.583 1.582-.74.74-1.582-1.582-.579 2.16-1.011-.271.577-2.16-2.159.582-.272-1.015z" fill="#0a6fcd"/><path d="M96.688 29.389l2.775.748-6.345 23.825-2.775-.747 6.345-23.826z" fill="#0a6fcd"/><path d="M106.376 37.087l.744 2.793-23.69 6.384-.742-2.793 23.688-6.384z" fill="#0a6fcd"/><path d="M85.213 33.977l2.036-2.042 17.341 17.441-2.029 2.042-17.348-17.441z" fill="#0a6fcd"/><path d="M69.652 18.981l2.596.698-5.934 22.259-2.592-.698 5.93-22.259z" fill="#0a6fcd"/><path d="M78.702 26.173l.694 2.609-22.13 5.965-.695-2.609 22.131-5.965z" fill="#0a6fcd"/><path d="M58.933 23.266l1.899-1.908 16.202 16.293-1.9 1.911-16.201-16.296z" fill="#0a6fcd"/><path d="M42.667 26.169l2.491.67-5.695 21.371-2.49-.669 5.694-21.372z" fill="#0a6fcd"/><path d="M51.358 33.074l.666 2.506-21.25 5.724-.667-2.502 21.251-5.728z" fill="#0a6fcd"/><path d="M32.376 30.283l1.821-1.831 15.556 15.645-1.821 1.831-15.556-15.645z" fill="#0a6fcd"/><path d="M26.842 47.201l2.301.618-5.261 19.738-2.297-.621 5.257-19.735z" fill="#0a6fcd"/><path d="M34.867 53.579l.617 2.313-19.623 5.288-.619-2.313 19.625-5.288z" fill="#0a6fcd"/><path d="M17.336 51.001l1.685-1.693 14.366 14.448-1.684 1.692-14.367-14.447z" fill="#0a6fcd"/></svg>