<?xml version="1.0" encoding="UTF-8" standalone="no"?>
<svg width="19px" height="19px" viewBox="0 0 19 19" version="1.1" xmlns="http://www.w3.org/2000/svg" xmlns:xlink="http://www.w3.org/1999/xlink" xmlns:sketch="http://www.bohemiancoding.com/sketch/ns">
    <!-- Generator: Sketch 3.0.4 (8054) - http://www.bohemiancoding.com/sketch -->
    <title>skc-d-19</title>
    <desc>Created with Sketch.</desc>
    <defs></defs>
    <g id="Page-1" stroke="none" stroke-width="1" fill="none" fill-rule="evenodd" sketch:type="MSPage">
        <path d="M3.62112547,10.3376354 L0.139303584,11.2705868 L0.600325008,12.9911422 L4.1337509,12.0443635 C3.88183538,11.5139973 3.70623071,10.9403584 3.62112547,10.3376354 L3.62112547,10.3376354 Z M4.82791481,13.164499 L2.2786925,15.7137213 L3.53822645,16.9732553 L6.12548449,14.3859973 C5.63405193,14.0459458 5.19641199,13.633663 4.82791481,13.164499 L4.82791481,13.164499 Z M7.28576058,15.0108774 L6.35302492,18.4918943 L8.0735803,18.9529157 L9.02064283,15.4184302 C8.41184035,15.3697929 7.82892674,15.2293225 7.28576058,15.0108774 L7.28576058,15.0108774 Z M10.4557499,15.3609812 L11.3852625,18.8299692 L13.1058178,18.3689477 L12.1530703,14.8132456 C11.6270513,15.0764144 11.0565031,15.2637677 10.4557499,15.3609812 L10.4557499,15.3609812 Z M13.2576845,14.0973738 L15.7976698,16.6373591 L17.0572037,15.3778251 L14.4537791,12.7744005 C14.1233173,13.2733462 13.7194922,13.7194642 13.2576845,14.0973738 L13.2576845,14.0973738 Z M15.0543221,11.6029713 L18.5226215,12.5322994 L18.983643,10.811744 L15.4268431,9.85870236 C15.3904412,10.4695889 15.2616766,11.0556028 15.0543221,11.6029713 L15.0543221,11.6029713 Z M15.4184302,9.02064283 L18.9529157,8.0735803 L18.4918943,6.35302492 L15.0108774,7.28576058 C15.2293225,7.82892674 15.3697929,8.41184035 15.4184302,9.02064283 L15.4184302,9.02064283 Z M14.3859973,6.12548449 L16.9732553,3.53822645 L15.7137213,2.2786925 L13.164499,4.82791481 C13.633663,5.19641199 14.0459458,5.63405193 14.3859973,6.12548449 L14.3859973,6.12548449 Z M12.0443635,4.1337509 L12.9911422,0.600325008 L11.2705868,0.139303584 L10.3376354,3.62112547 C10.9403584,3.70623071 11.5139973,3.88183538 12.0443635,4.1337509 L12.0443635,4.1337509 Z M9.14129764,3.5731569 L8.18825599,0.0163570342 L6.46770061,0.477378458 L7.39702866,3.94567795 C7.94439723,3.73832342 8.53041113,3.60955883 9.14129763,3.5731569 L9.14129764,3.5731569 Z M6.2255995,4.54622089 L3.62217488,1.94279628 L2.36264093,3.20233023 L4.90262621,5.74231552 C5.28053578,5.28050784 5.72665376,4.87668275 6.2255995,4.54622089 L6.2255995,4.54622089 Z M4.18675438,6.84692966 L0.631052266,5.89418215 L0.170030842,7.61473753 L3.63901881,8.54425006 C3.73623231,7.9434969 3.92358559,7.37294867 4.18675438,6.84692966 L4.18675438,6.84692966 Z M9.5,14.25 C12.1233526,14.25 14.25,12.1233526 14.25,9.5 C14.25,6.87664744 12.1233526,4.75 9.5,4.75 C6.87664744,4.75 4.75,6.87664744 4.75,9.5 C4.75,12.1233526 6.87664744,14.25 9.5,14.25 Z" id="Rectangle-2" fill="#ED9700" sketch:type="MSShapeGroup"></path>
    </g>
</svg>