<?xml version="1.0" encoding="UTF-8" standalone="no"?>
<svg width="16px" height="16px" viewBox="0 0 16 16" version="1.1" xmlns="http://www.w3.org/2000/svg" xmlns:xlink="http://www.w3.org/1999/xlink" xmlns:sketch="http://www.bohemiancoding.com/sketch/ns">
    <title>Odnoklassniki</title>
    <description>Created with Sketch (http://www.bohemiancoding.com/sketch)</description>
    <defs></defs>
    <g id="Page-1" stroke="none" stroke-width="1" fill="none" fill-rule="evenodd" sketch:type="MSPage">
        <g id="Light" sketch:type="MSLayerGroup" transform="translate(0.000000, -52.000000)">
            <g id="Social" sketch:type="MSShapeGroup">
                <g id="Odnoklassniki" transform="translate(0.000000, 52.000000)">
                    <rect id="Rectangle-25" fill="#F76B00" x="0" y="0" width="16" height="16" rx="1"></rect>
                    <path d="M11.6645234,7.982 C11.2375234,7.582 10.5675234,7.603 10.1665234,8.029 C9.77352341,8.448 8.92352341,8.719 7.99952341,8.719 C7.07552341,8.719 6.22552341,8.448 5.83152341,8.029 C5.43152341,7.603 4.76052341,7.582 4.33452341,7.982 C3.90752341,8.383 3.88652341,9.053 4.28752341,9.48 C4.81852341,10.046 5.59752341,10.434 6.49852341,10.647 L4.90952341,12.251 C4.49652341,12.666 4.49952341,13.337 4.91552341,13.749 C5.33052341,14.161 6.00152341,14.158 6.41352341,13.743 L8.01452341,12.128 L9.63252341,13.746 C9.83952341,13.953 10.1105234,14.056 10.3815234,14.056 C10.6525234,14.056 10.9235234,13.953 11.1305234,13.746 C11.5445234,13.332 11.5445234,12.661 11.1305234,12.247 L9.52452341,10.641 C10.4145234,10.426 11.1855234,10.041 11.7115234,9.48 C12.1125234,9.053 12.0915234,8.383 11.6645234,7.982 M8.00052341,3.537 C8.82152341,3.537 9.48652341,4.202 9.48652341,5.022 C9.48652341,5.843 8.82152341,6.508 8.00052341,6.508 C7.18052341,6.508 6.51552341,5.843 6.51552341,5.022 C6.51552341,4.202 7.18052341,3.537 8.00052341,3.537 M8.00052341,8.044 C9.66952341,8.044 11.0235234,6.691 11.0235234,5.022 C11.0235234,3.353 9.66952341,2 8.00052341,2 C6.33152341,2 4.97852341,3.353 4.97852341,5.022 C4.97852341,6.691 6.33152341,8.044 8.00052341,8.044" id="Fill-26" fill="#FFFFFF"></path>
                </g>
            </g>
        </g>
    </g>
</svg>