<svg enable-background="new 0 0 120 120" viewBox="0 0 120 120" xmlns="http://www.w3.org/2000/svg"><path d="M40.459 35.37c-1.141 2.048-2.572 3.829-4.2 5.342.593-.079 1.184-.173 1.795-.196 2.587-5.714 7.088-10.366 12.683-13.156-.566-7.584-4.802-14.746-11.943-18.724-1.953-1.087-4-1.845-6.074-2.331 9.945 6.005 13.435 18.837 7.739 29.065z" fill="#0a6fcd"/><path d="M16.025 49.523c1.698.945 3.465 1.628 5.26 2.117.959-2.05 2.282-3.881 3.864-5.461-4.693.798-9.676.075-14.159-2.421-1.274-.709-2.443-1.53-3.513-2.438 2.033 3.315 4.907 6.175 8.548 8.203z" fill="#0a6fcd"/><path d="M90.736 47.708c-1.469 0-2.881.215-4.231.585-1.664-11.599-11.614-20.523-23.675-20.523-10.483 0-19.372 6.748-22.616 16.126-.474-.042-.951-.071-1.437-.071-7.493 0-13.766 5.164-15.497 12.12l-.429-.042c-6.557 0-11.871 5.313-11.871 11.871 0 6.504 5.233 11.772 11.717 11.856l-.018.015h67.586l-.017-.028.487.024c8.815 0 15.967-7.147 15.967-15.966s-7.149-15.967-15.966-15.967zm.069 25.155c-.373 0-.726-.068-1.087-.111h-66.026c-.288.049-.578.089-.877.089-2.853 0-5.165-2.313-5.165-5.166s2.312-5.166 5.165-5.166c2.453 0 4.497 1.716 5.025 4.011l3.082-1.543c-.982-1.487-1.56-3.262-1.56-5.175 0-5.199 4.214-9.413 9.412-9.413 2.664 0 5.059 1.118 6.771 2.899-.045-.519-.078-1.04-.078-1.568 0-9.58 7.765-17.345 17.346-17.345s17.342 7.765 17.342 17.345c0 3.163-.86 6.118-2.338 8.671l3.846 1.777c.686-4.455 4.499-7.878 9.143-7.878 5.129 0 9.287 4.158 9.287 9.286s-4.159 9.287-9.288 9.287z" fill="#03447d"/><path d="M85.003 91.316c-3.349-1.602-7.354-.201-8.951 3.131-1.595 3.335-.178 7.334 3.173 8.938s7.354.201 8.948-3.13c1.597-3.332.179-7.335-3.17-8.939z" fill="#03447d"/><path d="M88.812 82.521l-.016 14.459-11.167-4.701 11.183-9.758z" fill="#03447d"/><path d="M31.128 91.243c-3.318-1.589-7.291-.199-8.875 3.104s-.174 7.27 3.145 8.859 7.292.199 8.873-3.104.178-7.272-3.143-8.859z" fill="#03447d"/><path d="M34.903 82.521l-.017 14.336-11.072-4.66 11.089-9.676z" fill="#03447d"/><path d="M55.841 100.29c-3.347-1.601-7.354-.201-8.951 3.13-1.593 3.335-.176 7.334 3.172 8.938s7.354.201 8.95-3.131.177-7.334-3.171-8.937z" fill="#03447d"/><path d="M59.651 91.494l-.017 14.458-11.165-4.698 11.182-9.76z" fill="#03447d"/><path d="M90.805 72.859c-.365 0-.713-.066-1.066-.107h-66.058c-.283.049-.568.087-.867.087-2.853 0-5.165-2.313-5.165-5.165s2.312-5.166 5.165-5.166c2.453 0 4.497 1.717 5.025 4.01l3.082-1.543c-.982-1.484-1.559-3.261-1.559-5.176 0-5.196 4.214-9.413 9.412-9.413 2.665 0 5.06 1.118 6.771 2.897-.044-.515-.078-1.037-.078-1.566 0-9.579 7.765-17.343 17.346-17.343s17.342 7.764 17.342 17.343c0 3.164-.86 6.119-2.34 8.673l3.847 1.779c.681-4.456 4.498-7.878 9.144-7.878 5.127 0 9.285 4.156 9.285 9.284s-4.157 9.284-9.286 9.284z" fill="#fff" opacity=".4"/></svg>