<svg enable-background="new 0 0 120 120" viewBox="0 0 120 120" xmlns="http://www.w3.org/2000/svg"><path d="M57.087 65.173h-30.2c-.4.095-.81.156-1.24.156-2.98 0-5.397-2.416-5.397-5.397s2.417-5.399 5.397-5.399c2.592 0 4.75 1.826 5.273 4.262l2.741-1.37c-.836-1.403-1.348-3.023-1.348-4.773 0-5.182 4.205-9.383 9.384-9.383 2.717 0 5.144 1.173 6.859 3.02-.059-.579-.089-1.167-.089-1.761 0-9.608 7.788-17.396 17.396-17.396s17.396 7.789 17.396 17.396c0 3.011-.767 5.843-2.111 8.312l3.531 1.633c.692-4.498 4.547-7.952 9.238-7.952 5.182 0 9.381 4.2 9.381 9.382s-4.199 9.383-9.381 9.383c-.38 0-.742-.068-1.107-.112h-22.264" fill="#fff" opacity=".4"/><path d="M93.936 39.862c-1.511 0-2.961.224-4.346.612-1.931-11.365-11.794-20.028-23.713-20.028-10.539 0-19.471 6.784-22.737 16.214-.478-.042-.957-.073-1.444-.073-7.313 0-13.472 4.888-15.419 11.571l-.593-.059c-6.589 0-11.931 5.343-11.931 11.934 0 6.54 5.261 11.836 11.781 11.919l-.017.017h67.944l-.018-.029.492.022c8.866 0 16.051-7.187 16.051-16.05s-7.186-16.05-16.05-16.05zm-.019 25.423c-.382 0-.741-.068-1.108-.112h-65.925c-.396.095-.809.157-1.239.157-2.98 0-5.397-2.417-5.397-5.398s2.417-5.399 5.397-5.399c2.59 0 4.751 1.827 5.273 4.262l2.741-1.37c-.834-1.402-1.345-3.021-1.345-4.773 0-5.182 4.202-9.383 9.382-9.383 2.72 0 5.146 1.174 6.859 3.02-.059-.579-.089-1.167-.089-1.762 0-9.608 7.788-17.396 17.396-17.396s17.396 7.789 17.396 17.396c0 3.011-.766 5.843-2.109 8.313l3.531 1.632c.691-4.498 4.545-7.953 9.237-7.953 5.183 0 9.382 4.2 9.382 9.382s-4.199 9.384-9.382 9.384z" fill="#0a6fcd"/><path d="M61.605 80.973l2.858.767-4.596 17.143-2.857-.765 4.595-17.145z" fill="#0a6fcd"/><path d="M68.926 86.202l.766 2.856-17.145 4.594-.765-2.856 17.144-4.594z" fill="#0a6fcd"/><path d="M53.415 84.698l2.094-2.093 12.548 12.551-2.09 2.093-12.552-12.551z" fill="#0a6fcd"/></svg>