<svg xmlns="http://www.w3.org/2000/svg" width="26.121" height="23.003"><path fill="#ED6C1E" d="M13.931 7.335c1.002.269 1.809.883 2.367 1.668h2.55c-.303-.739-.738-1.417-1.287-2h-9.492c-.536.569-.972 1.245-1.279 2h2.549c1.006-1.419 2.813-2.145 4.592-1.668zm-5.247 3.029l.137-.361h-2.347c-.155.672-.2 1.345-.146 2h2.247c-.067-.533-.038-1.087.109-1.639zm5.823-5.193c-1.855-.498-3.734-.136-5.229.832h7.093c-.56-.364-1.184-.65-1.864-.832zm-5.674 7.832h-2.351c.174.714.472 1.388.867 2h3.075c-.729-.496-1.281-1.192-1.591-2zm2.298 4.764c2.367.635 4.778-.121 6.371-1.764h-9.359c.793.82 1.807 1.447 2.988 1.764zm8.04-7.764h-2.333c.23.626.304 1.308.217 2h2.258c.056-.682.007-1.355-.142-2zm-3.953 5h3.08c.357-.556.639-1.174.819-1.847l.033-.153h-2.35c-.321.838-.878 1.522-1.582 2z"/><g fill-rule="evenodd" clip-rule="evenodd" fill="#ED6C1E"><path d="M2.817 22.003h14c.275 0 .5.224.5.5s-.225.5-.5.5h-14c-.276 0-.5-.224-.5-.5s.224-.5.5-.5zM3.946 19.003h17.617c.348 0 .629.224.629.5s-.281.5-.629.5h-17.617c-.348 0-.629-.224-.629-.5s.281-.5.629-.5zM3.631 16.003h19.308c.381 0 .689.224.689.5s-.309.5-.689.5h-19.308c-.381 0-.689-.224-.689-.5s.308-.5.689-.5zM2.457 13.003h21.408c.423 0 .765.224.765.5s-.342.5-.765.5h-21.408c-.423 0-.765-.224-.765-.5s.342-.5.765-.5zM2.442 10.003h21c.414 0 .75.224.75.5s-.336.5-.75.5h-21c-.414 0-.75-.224-.75-.5s.336-.5.75-.5zM3.012 7.003h19.484c.384 0 .695.224.695.5s-.312.5-.695.5h-19.484c-.384 0-.695-.224-.695-.5s.311-.5.695-.5zM4.911 4.003h16.625c.328 0 .594.224.594.5s-.266.5-.594.5h-16.625c-.328 0-.594-.224-.594-.5s.266-.5.594-.5zM10.778 1.003h12.89c.255 0 .461.224.461.5s-.206.5-.461.5h-12.89c-.255 0-.461-.224-.461-.5s.206-.5.461-.5z"/></g></svg>