<svg enable-background="new 0 0 120 120" viewBox="0 0 120 120" xmlns="http://www.w3.org/2000/svg"><path d="M95.268 73.32c-.365 0-.713-.065-1.066-.106h-66.059c-.283.05-.568.087-.867.087-2.853 0-5.165-2.312-5.165-5.165s2.312-5.165 5.165-5.165c2.453 0 4.497 1.715 5.025 4.008l3.082-1.541c-.982-1.485-1.559-3.262-1.559-5.177 0-5.196 4.214-9.413 9.412-9.413 2.665 0 5.06 1.118 6.771 2.897-.044-.515-.078-1.037-.078-1.566 0-9.579 7.765-17.343 17.344-17.343s17.343 7.764 17.343 17.343c0 3.164-.86 6.119-2.339 8.672l3.846 1.779c.682-4.456 4.498-7.878 9.143-7.878 5.129 0 9.286 4.156 9.286 9.284s-4.157 9.284-9.284 9.284z" fill="#fff" opacity=".4"/><path d="M27.028 26.089l-10.507-10.509-2.477 2.477 10.492 10.491c.776-.889 1.616-1.7 2.492-2.459z" fill="#ff6a2a"/><path d="M39.052 20.252l-3.859-14.406-3.383.907 3.858 14.396c1.106-.374 2.237-.676 3.384-.897z" fill="#ff6a2a"/><path d="M19.541 37.184l-14.336-3.84-.907 3.383 14.351 3.846c.224-1.14.511-2.272.892-3.389z" fill="#ff6a2a"/><path d="M51.984 21.075l3.687-13.763-3.382-.905-3.705 13.822c1.142.211 2.278.474 3.4.846z" fill="#ff6a2a"/><path d="M67.084 24.969l6.914-6.913-2.475-2.477-9.957 9.956c1.784-.369 3.627-.564 5.518-.566z" fill="#ff6a2a"/><path d="M18.676 50.534l-14.378 3.853.907 3.383 14.384-3.854c-.381-1.105-.683-2.234-.913-3.382z" fill="#ff6a2a"/><path d="M25.615 52.349c.871-1.931 2.077-3.664 3.501-5.193-.326-3.042.26-6.209 1.906-9.063 3.756-6.504 11.649-9.104 18.431-6.432 1.549-1.352 3.256-2.522 5.086-3.499l-.373-.24c-9.744-5.625-22.201-2.286-27.827 7.457-3.121 5.405-3.474 11.645-1.512 17.091.262-.04.522-.092.788-.121z" fill="#ff6a2a"/><path d="M95.201 48.17c-1.469 0-2.883.215-4.233.584-1.663-11.597-11.614-20.524-23.676-20.524-10.483 0-19.372 6.748-22.615 16.127-.474-.042-.952-.072-1.437-.072-7.493 0-13.767 5.164-15.498 12.121l-.43-.042c-6.556 0-11.871 5.313-11.871 11.87 0 6.504 5.234 11.772 11.717 11.855l-.017.016h67.585l-.016-.029.488.025c8.814 0 15.965-7.148 15.965-15.965s-7.147-15.966-15.962-15.966zm.065 25.154c-.373 0-.725-.067-1.084-.11h-66.036c-.285.048-.573.087-.871.087-2.852 0-5.163-2.312-5.163-5.164s2.311-5.164 5.163-5.164c2.454 0 4.497 1.713 5.025 4.008l3.083-1.543c-.982-1.485-1.562-3.261-1.562-5.174 0-5.198 4.215-9.413 9.414-9.413 2.665 0 5.057 1.118 6.771 2.896-.046-.516-.078-1.037-.078-1.566 0-9.579 7.765-17.344 17.343-17.344s17.344 7.765 17.344 17.344c0 3.164-.861 6.119-2.338 8.673l3.846 1.775c.684-4.455 4.498-7.878 9.143-7.878 5.127 0 9.286 4.158 9.286 9.287s-4.157 9.286-9.286 9.286z" fill="#03447d"/><path d="M89.466 91.777c-3.348-1.601-7.354-.2-8.952 3.132-1.594 3.333-.175 7.334 3.172 8.938s7.354.2 8.949-3.131c1.597-3.332.177-7.335-3.169-8.939z" fill="#03447d"/><path d="M93.273 82.984l-.018 14.457-11.164-4.698 11.182-9.759z" fill="#03447d"/><path d="M35.589 91.704c-3.316-1.59-7.291-.199-8.874 3.104s-.176 7.271 3.143 8.86 7.293.199 8.875-3.104.177-7.272-3.144-8.86z" fill="#03447d"/><path d="M39.366 82.984l-.016 14.334-11.073-4.658 11.089-9.676z" fill="#03447d"/><path d="M60.304 100.752c-3.348-1.602-7.354-.202-8.952 3.13s-.175 7.334 3.173 8.937 7.354.201 8.948-3.129c1.597-3.333.179-7.335-3.169-8.938z" fill="#03447d"/><path d="M64.113 91.956l-.018 14.458-11.166-4.699 11.184-9.759z" fill="#03447d"/></svg>