<?xml version="1.0" encoding="UTF-8" standalone="no"?>
<svg width="16px" height="16px" viewBox="0 0 16 16" version="1.1" xmlns="http://www.w3.org/2000/svg" xmlns:xlink="http://www.w3.org/1999/xlink" xmlns:sketch="http://www.bohemiancoding.com/sketch/ns">
    <title>quotes-1</title>
    <description>Created with Sketch (http://www.bohemiancoding.com/sketch)</description>
    <defs></defs>
    <g id="Page-1" stroke="none" stroke-width="1" fill="none" fill-rule="evenodd" sketch:type="MSPage">
        <g id="Light" sketch:type="MSLayerGroup" transform="translate(-414.000000, -80.000000)">
            <g id="Quotes" transform="translate(414.000000, 3.000000)" sketch:type="MSShapeGroup">
                <g id="Fill-111-+-Fill-112-+-Fill-113" transform="translate(0.000000, 77.000000)">
                    <path d="M15,0 L1,0 C0.448,0 0,0.448 0,1 L0,15 C0,15.552 0.448,16 1,16 L15,16 C15.552,16 16,15.552 16,15 L16,1 C16,0.448 15.552,0 15,0" id="Fill-111" fill="#FFBA00"></path>
                    <path d="M14.4768535,13.913 L13.9768535,12.076 C13.9368535,11.93 13.8498535,11.801 13.7278535,11.705 L11.2278535,9.749 C11.0928535,9.644 10.9238535,9.586 10.7498535,9.586 L9.79085349,9.586 L8.96185349,7.228 C8.88785349,7.018 8.71485349,6.853 8.49585349,6.781 C8.27385349,6.708 8.03285349,6.738 7.83585349,6.86 L5.40785349,8.383 L4.42385349,7.121 L3.46185349,4.383 C3.45085349,4.351 3.43685349,4.32 3.42085349,4.29 L2.42085349,2.393 C2.28885349,2.144 2.02485349,2 1.74885349,2 C1.63685349,2 1.52285349,2.024 1.41485349,2.075 C1.04385349,2.251 0.893853488,2.678 1.07985349,3.03 L2.05585349,4.881 L3.03885349,7.678 C3.06385349,7.749 3.09985349,7.815 3.14685349,7.876 L4.62385349,9.772 C4.86085349,10.075 5.30885349,10.151 5.64185349,9.942 L7.84785349,8.558 L8.53885349,10.523 C8.64085349,10.813 8.92685349,11.009 9.24985349,11.009 L10.4808535,11.009 L12.5848535,12.655 L13.0238535,14.269 C13.1278535,14.649 13.5428535,14.88 13.9378535,14.779 C14.3388535,14.681 14.5808535,14.294 14.4768535,13.913" id="Fill-112" fill-opacity="0.1" fill="#000000"></path>
                    <path d="M14.4768535,12.913 L13.9768535,11.076 C13.9368535,10.93 13.8498535,10.801 13.7278535,10.705 L11.2278535,8.749 C11.0928535,8.644 10.9238535,8.586 10.7498535,8.586 L9.79085349,8.586 L8.96185349,6.228 C8.88785349,6.018 8.71485349,5.853 8.49585349,5.78 C8.27385349,5.708 8.03285349,5.738 7.83585349,5.86 L5.40785349,7.383 L4.42385349,6.121 L3.46185349,3.383 C3.45085349,3.351 3.43685349,3.32 3.42085349,3.29 L2.42085349,1.393 C2.28885349,1.144 2.02485349,1 1.74885349,1 C1.63685349,1 1.52285349,1.024 1.41485349,1.075 C1.04385349,1.251 0.893853488,1.678 1.07985349,2.029 L2.05585349,3.881 L3.03885349,6.678 C3.06385349,6.749 3.09985349,6.815 3.14685349,6.876 L4.62385349,8.772 C4.86085349,9.075 5.30885349,9.151 5.64185349,8.942 L7.84785349,7.558 L8.53885349,9.523 C8.64085349,9.813 8.92685349,10.009 9.24985349,10.009 L10.4808535,10.009 L12.5848535,11.655 L13.0238535,13.269 C13.1278535,13.649 13.5428535,13.88 13.9378535,13.779 C14.3388535,13.681 14.5808535,13.294 14.4768535,12.913" id="Fill-113" fill="#FFFFFF"></path>
                </g>
            </g>
        </g>
    </g>
</svg>