<?xml version="1.0" encoding="UTF-8" standalone="no"?>
<svg width="19px" height="19px" viewBox="0 0 19 19" version="1.1" xmlns="http://www.w3.org/2000/svg" xmlns:xlink="http://www.w3.org/1999/xlink" xmlns:sketch="http://www.bohemiancoding.com/sketch/ns">
    <!-- Generator: Sketch 3.0.4 (8054) - http://www.bohemiancoding.com/sketch -->
    <title>bkn-d-19</title>
    <desc>Created with Sketch.</desc>
    <defs></defs>
    <g id="Page-1" stroke="none" stroke-width="1" fill="none" fill-rule="evenodd" sketch:type="MSPage">
        <path d="M13.3329781,6.62208068 C12.4616663,5.48425033 11.0861577,4.75 9.53846154,4.75 C6.90448812,4.75 4.76923077,6.87664744 4.76923077,9.5 C4.76923077,10.4773173 5.06558294,11.385697 5.57366908,12.1408621 C5.82255044,11.9502339 6.09363083,11.7869356 6.38238392,11.6554752 C6.7804544,8.7610685 9.27300271,6.53125 12.2884615,6.53125 C12.6448003,6.53125 12.9938369,6.56238786 13.3329781,6.62208068 Z M4.31648187,13.7149035 L2.29046764,15.7409178 L3.55000159,17.0004517 L4.07380105,16.4766522 C3.98796208,16.1445202 3.94230769,15.7963202 3.94230769,15.4375 C3.94230769,14.8230387 4.07618836,14.2397209 4.31648187,13.7149035 L4.31648187,13.7149035 Z M3.63666702,10.3438268 L0.140800808,11.2805414 L0.601822232,13.0010967 L4.15297234,12.0495689 C3.8995742,11.5195668 3.72272592,10.9462587 3.63666702,10.3438268 L3.63666702,10.3438268 Z M14.4363284,6.11412493 L17.0394233,3.51103004 L15.7798893,2.25149608 L13.2097523,4.82163308 C13.6805106,5.18859919 14.0944756,5.62451553 14.4363284,6.11412493 L14.4363284,6.11412493 Z M12.0846003,4.12972585 L13.040255,0.563174015 L11.3196996,0.102152591 L10.3768913,3.62076086 C10.979775,3.70527593 11.5537045,3.87960527 12.0846003,4.12972585 L12.0846003,4.12972585 Z M9.18087939,3.57300478 L8.21792392,-0.0207939591 L6.49736854,0.440227465 L7.4357648,3.94236999 C7.98360076,3.7366651 8.56986097,3.60900638 9.18087938,3.57300478 L9.18087939,3.57300478 Z M6.25931035,4.54062032 L3.63428989,1.91559986 L2.37475594,3.17513382 L4.93126483,5.7316427 C5.31097783,5.27167723 5.75877564,4.86957443 6.25931035,4.54062032 L6.25931035,4.54062032 Z M4.20629637,6.84177683 L0.632673892,5.88422757 L0.171652468,7.60478295 L3.65475781,8.53807822 C3.75296908,7.93762755 3.94160707,7.36742127 4.20629637,6.84177683 L4.20629637,6.84177683 Z" id="Rectangle-2" fill="#ED9700" sketch:type="MSShapeGroup"></path>
        <path d="M22.4230769,10.8747915 C24.398557,10.8747915 26,12.469777 26,14.4372915 C26,16.4048059 24.398557,17.9997915 22.4230769,17.9997915 L8.11538462,17.9997915 C6.7983979,17.9997915 5.73076923,16.9364677 5.73076923,15.6247915 C5.73076923,14.5416861 6.4587306,13.6279196 7.45394176,13.3423459 C7.58453485,13.3048725 7.85848544,13.2634131 7.85848544,13.2634131 C7.85848544,13.2634131 8.02859045,13.2497915 8.11538462,13.2497915 C8.1295181,13.2497915 8.14362288,13.2499139 8.15769792,13.2501578 L8.15769792,13.2501578 C8.12981298,13.0561206 8.11538462,12.8577592 8.11538462,12.6560415 C8.11538462,10.360608 9.98373479,8.49979146 12.2884615,8.49979146 C12.6859005,8.49979146 13.0703628,8.55512718 13.4345052,8.65848498 C14.2340798,7.15165069 15.8235596,6.12479146 17.6538462,6.12479146 C20.2878196,6.12479146 22.4230769,8.2514389 22.4230769,10.8747915 Z" id="Oval-2" fill-opacity="0.702000022" fill="#7196EA" sketch:type="MSShapeGroup"></path>
    </g>
</svg>