<svg enable-background="new 0 0 120 120" viewBox="0 0 120 120" xmlns="http://www.w3.org/2000/svg"><path d="M100.361 80.214c-.365 0-.713-.065-1.066-.106h-66.058c-.283.049-.568.086-.867.086-2.853 0-5.165-2.312-5.165-5.164s2.312-5.166 5.165-5.166c2.453 0 4.497 1.716 5.025 4.009l3.082-1.542c-.982-1.484-1.559-3.262-1.559-5.176 0-5.196 4.214-9.413 9.412-9.413 2.665 0 5.06 1.118 6.771 2.897-.044-.516-.078-1.038-.078-1.567 0-9.579 7.765-17.343 17.345-17.343s17.342 7.764 17.342 17.343c0 3.165-.86 6.12-2.339 8.673l3.846 1.778c.682-4.455 4.498-7.877 9.143-7.877 5.129 0 9.287 4.155 9.287 9.283s-4.159 9.285-9.286 9.285z" fill="#fff" opacity=".4"/><path d="M44.148 21.349l-3.86-14.408-3.385.907 3.858 14.396c1.109-.373 2.238-.676 3.387-.895z" fill="#ff6a2a"/><path d="M32.124 27.186l-10.508-10.509-2.478 2.475 10.491 10.491c.777-.888 1.618-1.698 2.495-2.457z" fill="#ff6a2a"/><path d="M24.634 38.28l-14.336-3.842-.907 3.384 14.351 3.845c.224-1.139.51-2.269.892-3.387z" fill="#ff6a2a"/><path d="M68.443 29.798l10.647-10.646-2.474-2.475-10.621 10.62c.887.78 1.691 1.623 2.448 2.501z" fill="#ff6a2a"/><path d="M57.077 22.171l3.687-13.761-3.382-.907-3.705 13.821c1.141.211 2.279.475 3.4.847z" fill="#ff6a2a"/><path d="M23.769 51.63l-14.377 3.854.907 3.385 14.384-3.856c-.382-1.107-.685-2.235-.914-3.383z" fill="#ff6a2a"/><path d="M35.434 52.792c-1.896-4.232-1.816-9.28.682-13.604 4.132-7.159 13.29-9.611 20.449-5.477.867.501 1.662 1.077 2.39 1.715 1.669-.951 3.439-1.746 5.305-2.328-1.406-1.575-3.074-2.966-5.001-4.08-9.743-5.625-22.2-2.287-27.826 7.458-3.867 6.698-3.498 14.681.278 20.844 1.009-1.695 2.264-3.219 3.723-4.528z" fill="#ff6a2a"/><path d="M100.292 55.061c-1.468 0-2.88.215-4.229.584-1.666-11.599-11.614-20.523-23.677-20.523-10.485 0-19.372 6.748-22.615 16.127-.475-.042-.952-.072-1.437-.072-7.496 0-13.767 5.166-15.498 12.123l-.43-.045c-6.556 0-11.87 5.315-11.87 11.869 0 6.505 5.232 11.772 11.716 11.856l-.017.016h67.585l-.016-.029.485.024c8.817 0 15.968-7.148 15.968-15.966s-7.148-15.964-15.965-15.964zm.067 25.152c-.366 0-.713-.064-1.064-.107h-66.079c-.278.047-.556.086-.847.086-2.852 0-5.163-2.312-5.163-5.164s2.311-5.166 5.163-5.166c2.454 0 4.498 1.716 5.025 4.01l3.084-1.542c-.982-1.486-1.562-3.263-1.562-5.177 0-5.197 4.215-9.414 9.414-9.414 2.665 0 5.057 1.117 6.771 2.897-.047-.516-.079-1.038-.079-1.565 0-9.58 7.766-17.343 17.346-17.343s17.342 7.763 17.342 17.343c0 3.164-.86 6.119-2.34 8.672l3.847 1.776c.684-4.455 4.497-7.877 9.141-7.877 5.127 0 9.287 4.158 9.287 9.287s-4.159 9.284-9.286 9.284z" fill="#0a6fcd"/><path d="M67.8 95.91l2.858.767-4.596 17.144-2.856-.768 4.594-17.143z" fill="#0a6fcd"/><path d="M75.122 101.139l.765 2.858-17.145 4.593-.763-2.857 17.143-4.594z" fill="#0a6fcd"/><path d="M59.609 99.635l2.095-2.092 12.549 12.55-2.091 2.093-12.553-12.551z" fill="#0a6fcd"/></svg>