<svg enable-background="new 0 0 120 120" viewBox="0 0 120 120" xmlns="http://www.w3.org/2000/svg"><path d="M57.42 32.755h9.27c-1.646-.797-3.383-1.465-5.213-1.956-3.941-1.056-7.907-1.251-11.705-.707.727.129 1.453.273 2.182.468 1.947.523 3.768 1.28 5.466 2.195z" fill="#03447d"/><path d="M68.176 43.972h10.745c-2.044-3.376-4.749-6.353-8.021-8.692h-9.651c2.942 2.364 5.296 5.347 6.927 8.692z" fill="#03447d"/><path d="M82.873 55.187c-.426-3.103-1.324-6.104-2.678-8.88h-11.026c1.036 2.804 1.575 5.808 1.563 8.88h12.141z" fill="#03447d"/><path d="M82.221 66.404c.754-2.914 1.021-5.834.883-8.692h-12.497c-.135 1.301-.375 2.605-.724 3.91-.45 1.683-1.062 3.282-1.812 4.782h14.15z" fill="#03447d"/><path d="M33.867 77.619c-1.764-.907-3.401-1.993-4.874-3.246.698 1.139 1.501 2.21 2.348 3.246h2.526z" fill="#03447d"/><path d="M76.477 77.619c2.088-2.541 3.795-5.45 4.953-8.691h-14.823c-2.443 3.736-5.812 6.703-9.695 8.691h19.565z" fill="#03447d"/><path d="M49.09 80.141c-2.375.354-4.828.356-7.295 0h-8.14c3.44 3.325 7.724 5.864 12.671 7.193 10.268 2.748 20.707-.327 27.846-7.193h-25.082z" fill="#03447d"/><path d="M16.843 102.422h58.943c1.163 0 2.106.942 2.106 2.104s-.943 2.105-2.106 2.105h-58.943c-1.163 0-2.105-.941-2.105-2.105s.942-2.104 2.105-2.104z" fill="#0a6fcd"/><path d="M23.842 91.287h67.438c1.467 0 2.652.939 2.652 2.104s-1.187 2.105-2.652 2.105h-67.438c-1.462 0-2.65-.941-2.65-2.105s1.188-2.104 2.65-2.104z" fill="#0a6fcd"/><path d="M20.274 79.964h81.291c1.604 0 2.903.942 2.903 2.104s-1.3 2.104-2.903 2.104h-81.291c-1.604 0-2.903-.942-2.903-2.104s1.299-2.104 2.903-2.104z" fill="#0a6fcd"/><path d="M15.327 68.829h90.134c1.779 0 3.221.94 3.221 2.104s-1.44 2.104-3.221 2.104h-90.134c-1.779 0-3.218-.942-3.218-2.104s1.439-2.104 3.218-2.104z" fill="#0a6fcd"/><path d="M17.51 46.292h86.17c1.743 0 3.156.938 3.156 2.104 0 1.162-1.413 2.104-3.156 2.104h-86.17c-1.746 0-3.157-.942-3.157-2.104s1.411-2.104 3.157-2.104z" fill="#0a6fcd"/><path d="M22.156 35.154h77.543c1.617 0 2.93.943 2.93 2.105s-1.312 2.105-2.93 2.105h-77.543c-1.619 0-2.932-.942-2.932-2.105s1.313-2.105 2.932-2.105z" fill="#0a6fcd"/><path d="M32.389 24.02h63.265c1.382 0 2.498.944 2.498 2.104s-1.116 2.106-2.498 2.106h-63.265c-1.381 0-2.501-.943-2.501-2.106s1.12-2.104 2.501-2.104z" fill="#0a6fcd"/><path d="M50.359 12.698h54.275c1.073 0 1.938.942 1.938 2.105s-.865 2.105-1.938 2.105h-54.275c-1.07 0-1.938-.944-1.938-2.105s.868-2.105 1.938-2.105z" fill="#0a6fcd"/><path d="M15.327 57.613h90.134c1.779 0 3.221.942 3.221 2.105s-1.44 2.103-3.221 2.103h-90.134c-1.779 0-3.218-.94-3.218-2.103s1.439-2.105 3.218-2.105z" fill="#0a6fcd"/></svg>