<svg enable-background="new 0 0 120 120" viewBox="0 0 120 120" xmlns="http://www.w3.org/2000/svg"><path d="M53.712 64.141h-30.2c-.4.094-.81.156-1.24.156-2.98 0-5.397-2.416-5.397-5.397s2.417-5.399 5.397-5.399c2.592 0 4.75 1.826 5.273 4.262l2.741-1.37c-.836-1.403-1.348-3.023-1.348-4.773 0-5.182 4.205-9.383 9.384-9.383 2.717 0 5.144 1.173 6.859 3.02-.059-.579-.089-1.167-.089-1.761 0-9.608 7.788-17.396 17.396-17.396s17.396 7.789 17.396 17.396c0 3.011-.767 5.843-2.111 8.312l3.531 1.633c.692-4.498 4.547-7.952 9.238-7.952 5.182 0 9.381 4.2 9.381 9.382s-4.199 9.383-9.381 9.383c-.38 0-.742-.068-1.107-.111h-22.264" fill="#fff" opacity=".4"/><path d="M90.559 38.828c-1.509 0-2.961.222-4.346.612-1.931-11.365-11.794-20.028-23.712-20.028-10.538 0-19.471 6.783-22.736 16.214-.478-.042-.958-.072-1.446-.072-7.313 0-13.472 4.887-15.42 11.57l-.59-.06c-6.591 0-11.934 5.344-11.934 11.935 0 6.54 5.262 11.835 11.782 11.919l-.018.018h67.944l-.017-.031.492.023c8.866 0 16.051-7.187 16.051-16.051s-7.184-16.049-16.05-16.049zm-.018 25.424c-.38 0-.738-.068-1.107-.113h-65.925c-.397.096-.809.158-1.238.158-2.98 0-5.398-2.417-5.398-5.398s2.417-5.397 5.398-5.397c2.59 0 4.751 1.825 5.272 4.261l2.741-1.37c-.836-1.403-1.347-3.021-1.347-4.773 0-5.182 4.204-9.383 9.384-9.383 2.719 0 5.146 1.173 6.858 3.02-.06-.579-.089-1.167-.089-1.762 0-9.607 7.788-17.396 17.395-17.396s17.397 7.789 17.397 17.396c0 3.012-.766 5.843-2.112 8.312l3.532 1.632c.693-4.498 4.546-7.952 9.237-7.952 5.184 0 9.384 4.201 9.384 9.382s-4.198 9.383-9.382 9.383z" fill="#03447d"/><path d="M55.827 87.184c-3.348-1.602-7.354-.201-8.951 3.133s-.178 7.334 3.172 8.937 7.354.201 8.949-3.13c1.597-3.334.178-7.335-3.17-8.94z" fill="#03447d"/><path d="M59.637 78.391l-.018 14.457-11.166-4.698 11.184-9.759z" fill="#03447d"/></svg>