<svg enable-background="new 0 0 120 120" viewBox="0 0 120 120" xmlns="http://www.w3.org/2000/svg"><path d="M20.321 49.436c3.059 1.704 6.331 2.622 9.606 2.869 3.286-3.051 7.627-4.968 12.423-5.144 2.503-5.528 6.787-10.072 12.135-12.884 2.301-9.905-2.067-20.531-11.394-25.727-1.954-1.089-4.002-1.847-6.078-2.331 9.949 6 13.438 18.836 7.74 29.063-5.819 10.456-19.014 14.21-29.468 8.39-1.272-.708-2.442-1.53-3.512-2.44 2.033 3.317 4.907 6.177 8.548 8.204z" fill="#03447d"/><path d="M95.033 54.351c-1.469 0-2.881.214-4.23.584-1.664-11.599-11.613-20.523-23.675-20.523-10.485 0-19.372 6.748-22.617 16.127-.474-.042-.951-.072-1.437-.072-7.495 0-13.767 5.166-15.497 12.123l-.428-.044c-6.557 0-11.872 5.313-11.872 11.869 0 6.504 5.234 11.772 11.717 11.856l-.017.015h67.585l-.017-.029.487.024c8.818 0 15.967-7.148 15.967-15.967.001-8.815-7.147-15.963-15.966-15.963zm.069 25.152c-.367 0-.713-.065-1.064-.106h-66.08c-.278.045-.557.086-.848.086-2.852 0-5.163-2.312-5.163-5.164s2.311-5.166 5.163-5.166c2.454 0 4.498 1.716 5.025 4.01l3.083-1.542c-.981-1.486-1.56-3.261-1.56-5.177 0-5.196 4.214-9.412 9.413-9.412 2.664 0 5.058 1.117 6.771 2.896-.047-.516-.079-1.038-.079-1.565 0-9.58 7.766-17.343 17.344-17.343s17.344 7.763 17.344 17.343c0 3.163-.861 6.118-2.34 8.672l3.848 1.775c.684-4.455 4.498-7.877 9.143-7.877 5.127 0 9.285 4.158 9.285 9.287s-4.158 9.283-9.285 9.283z" fill="#0a6fcd"/><path d="M62.541 95.2l2.857.766-4.594 17.146-2.858-.768 4.595-17.144z" fill="#0a6fcd"/><path d="M69.861 100.428l.766 2.859-17.145 4.594-.764-2.859 17.143-4.594z" fill="#0a6fcd"/><path d="M54.35 98.925l2.094-2.092 12.549 12.551-2.089 2.091-12.554-12.55z" fill="#0a6fcd"/><path d="M95.102 79.501c-.365 0-.713-.065-1.066-.106h-66.059c-.283.049-.568.086-.867.086-2.853 0-5.165-2.312-5.165-5.164s2.312-5.166 5.165-5.166c2.453 0 4.497 1.716 5.025 4.009l3.082-1.542c-.982-1.485-1.559-3.262-1.559-5.176 0-5.196 4.214-9.414 9.412-9.414 2.665 0 5.06 1.118 6.771 2.897-.044-.515-.078-1.037-.078-1.566 0-9.579 7.765-17.343 17.344-17.343s17.343 7.764 17.343 17.343c0 3.165-.86 6.12-2.339 8.673l3.846 1.778c.682-4.455 4.498-7.877 9.143-7.877 5.129 0 9.287 4.155 9.287 9.283s-4.158 9.285-9.285 9.285z" fill="#fff" opacity=".4"/></svg>