<svg enable-background="new 0 0 120 120" viewBox="0 0 120 120" xmlns="http://www.w3.org/2000/svg"><path d="M98.346 77.341c-.365 0-.713-.065-1.064-.106h-66.059c-.283.049-.568.086-.867.086-2.852 0-5.164-2.312-5.164-5.164s2.312-5.166 5.164-5.166c2.453 0 4.497 1.716 5.025 4.009l3.082-1.542c-.982-1.484-1.559-3.262-1.559-5.176 0-5.196 4.213-9.413 9.411-9.413 2.665 0 5.06 1.118 6.771 2.897-.044-.515-.077-1.037-.077-1.566 0-9.579 7.765-17.343 17.345-17.343s17.344 7.764 17.344 17.343c0 3.164-.86 6.119-2.34 8.673l3.847 1.778c.683-4.455 4.498-7.877 9.144-7.877 5.129 0 9.286 4.157 9.286 9.284s-4.16 9.283-9.289 9.283z" fill="#fff" opacity=".4"/><path d="M22.621 37.652l-14.336-3.842-.907 3.384 14.353 3.846c.22-1.14.507-2.271.89-3.388z" fill="#ff6a2a"/><path d="M30.108 26.555l-10.506-10.507-2.479 2.477 10.491 10.491c.777-.889 1.616-1.7 2.494-2.461z" fill="#ff6a2a"/><path d="M66.432 29.17l10.646-10.646-2.475-2.477-10.621 10.62c.887.78 1.691 1.625 2.45 2.503z" fill="#ff6a2a"/><path d="M55.064 21.542l3.686-13.762-3.383-.907-3.703 13.821c1.142.213 2.278.476 3.4.848z" fill="#ff6a2a"/><path d="M42.133 20.72l-3.86-14.406-3.382.906 3.856 14.395c1.108-.374 2.237-.675 3.386-.895z" fill="#ff6a2a"/><path d="M21.756 51.002l-14.378 3.852.907 3.384 14.384-3.854c-.382-1.106-.684-2.234-.913-3.382z" fill="#ff6a2a"/><path d="M34.102 38.56c4.134-7.16 13.29-9.613 20.449-5.479.267.153.512.327.763.493 1.646-1.101 3.406-2.047 5.282-2.771-1.016-.898-2.131-1.709-3.351-2.412-9.743-5.625-22.198-2.287-27.825 7.456-3.639 6.301-3.507 13.728-.339 19.716.956-1.879 2.237-3.551 3.726-5.014-1.218-3.864-.893-8.203 1.295-11.989z" fill="#ff6a2a"/><path d="M98.279 52.189c-1.469 0-2.883.215-4.23.584-1.666-11.6-11.615-20.524-23.678-20.524-10.48 0-19.371 6.747-22.615 16.127-.473-.042-.951-.072-1.438-.072-7.491 0-13.766 5.164-15.496 12.121l-.43-.043c-6.557 0-11.871 5.313-11.871 11.87 0 6.503 5.232 11.771 11.719 11.854l-.018.017h67.584l-.017-.029.487.023c8.815 0 15.968-7.146 15.968-15.966.002-8.814-7.148-15.962-15.965-15.962zm.067 25.153c-.371 0-.725-.066-1.086-.107h-66.027c-.285.049-.577.088-.878.088-2.852 0-5.164-2.313-5.164-5.166s2.312-5.165 5.164-5.165c2.453 0 4.497 1.715 5.025 4.009l3.082-1.542c-.981-1.487-1.559-3.263-1.559-5.175 0-5.199 4.215-9.413 9.412-9.413 2.664 0 5.059 1.117 6.772 2.896-.047-.517-.08-1.037-.08-1.566 0-9.58 7.767-17.344 17.345-17.344s17.346 7.763 17.346 17.343c0 3.164-.861 6.118-2.341 8.672l3.846 1.778c.686-4.455 4.498-7.878 9.143-7.878 5.129 0 9.287 4.158 9.287 9.287s-4.158 9.283-9.287 9.283z" fill="#03447d"/><path d="M63.385 100.285c-3.349-1.602-7.354-.202-8.953 3.129-1.594 3.335-.176 7.334 3.172 8.938s7.355.203 8.951-3.129.175-7.334-3.17-8.938z" fill="#03447d"/><path d="M67.193 91.489l-.019 14.458-11.165-4.699 11.184-9.759z" fill="#03447d"/></svg>