<svg enable-background="new 0 0 120 120" viewBox="0 0 120 120" xmlns="http://www.w3.org/2000/svg"><path d="M55.41 59.653h-30.201c-.4.094-.81.156-1.24.156-2.979 0-5.397-2.416-5.397-5.397s2.417-5.399 5.397-5.399c2.592 0 4.75 1.826 5.273 4.262l2.741-1.37c-.836-1.403-1.348-3.023-1.348-4.773 0-5.182 4.205-9.383 9.384-9.383 2.717 0 5.144 1.173 6.859 3.02-.059-.579-.089-1.167-.089-1.761 0-9.608 7.788-17.396 17.396-17.396s17.396 7.789 17.396 17.396c0 3.011-.768 5.843-2.111 8.312l3.531 1.633c.692-4.499 4.549-7.953 9.24-7.953 5.181 0 9.381 4.2 9.381 9.382s-4.2 9.383-9.381 9.383c-.38 0-.742-.068-1.108-.112h-22.264" fill="#fff" opacity=".4"/><path d="M92.258 34.342c-1.509 0-2.961.222-4.345.612-1.931-11.366-11.794-20.028-23.713-20.028-10.538 0-19.471 6.783-22.733 16.214-.478-.042-.96-.072-1.448-.072-7.312 0-13.472 4.887-15.419 11.571l-.59-.059c-6.592 0-11.935 5.342-11.935 11.934 0 6.539 5.262 11.835 11.781 11.917l-.017.017h67.944l-.018-.029.492.022c8.866 0 16.051-7.186 16.051-16.049s-7.184-16.05-16.05-16.05zm-.017 25.422c-.38 0-.741-.067-1.109-.111h-65.924c-.396.094-.809.156-1.239.156-2.979 0-5.396-2.416-5.396-5.397s2.416-5.399 5.396-5.399c2.59 0 4.752 1.827 5.273 4.262l2.741-1.37c-.836-1.403-1.348-3.023-1.348-4.774 0-5.181 4.205-9.382 9.384-9.382 2.72 0 5.147 1.173 6.859 3.019-.059-.579-.089-1.166-.089-1.76 0-9.608 7.788-17.396 17.396-17.396s17.396 7.789 17.396 17.396c0 3.011-.767 5.843-2.11 8.312l3.53 1.632c.692-4.498 4.546-7.952 9.24-7.952 5.181 0 9.382 4.2 9.382 9.382s-4.202 9.382-9.382 9.382z" fill="#03447d"/><path d="M71.688 78.211c-3.348-1.602-7.354-.2-8.951 3.132-1.594 3.333-.174 7.334 3.173 8.937s7.353.201 8.948-3.129c1.596-3.335.176-7.337-3.17-8.94z" fill="#03447d"/><path d="M75.496 69.417l-.018 14.458-11.164-4.699 11.182-9.759z" fill="#03447d"/><path d="M42.526 91.671c-3.348-1.603-7.354-.2-8.951 3.131s-.174 7.334 3.172 8.938 7.354.202 8.949-3.13c1.596-3.335.177-7.335-3.17-8.939z" fill="#03447d"/><path d="M46.335 82.875l-.017 14.458-11.166-4.7 11.183-9.758z" fill="#03447d"/></svg>