<svg enable-background="new 0 0 120 120" viewBox="0 0 120 120" xmlns="http://www.w3.org/2000/svg"><path d="M28.805 27.149l-10.508-10.507-2.48 2.475 10.493 10.493c.779-.89 1.616-1.7 2.495-2.461z" fill="#ff6a2a"/><path d="M21.315 38.245l-14.336-3.842-.905 3.384 14.35 3.845c.222-1.139.51-2.269.891-3.387z" fill="#ff6a2a"/><path d="M40.828 21.314l-3.86-14.408-3.382.907 3.856 14.396c1.109-.374 2.237-.674 3.386-.895z" fill="#ff6a2a"/><path d="M53.758 22.136l3.687-13.761-3.382-.907-3.704 13.823c1.142.212 2.278.472 3.399.845z" fill="#ff6a2a"/><path d="M65.126 29.764l10.646-10.647-2.476-2.475-10.619 10.62c.885.78 1.691 1.625 2.449 2.502z" fill="#ff6a2a"/><path d="M20.451 51.595l-14.378 3.854.905 3.385 14.388-3.856c-.383-1.107-.685-2.235-.915-3.383z" fill="#ff6a2a"/><path d="M31.485 51.086c-1.199-3.851-.864-8.167 1.312-11.934 4.134-7.159 13.291-9.611 20.45-5.477.256.146.492.315.735.475 1.653-1.104 3.446-2.011 5.328-2.735-1.018-.905-2.143-1.725-3.369-2.432-9.744-5.625-22.199-2.287-27.825 7.458-3.639 6.299-3.507 13.728-.339 19.717.958-1.887 2.209-3.603 3.708-5.072z" fill="#ff6a2a"/><path d="M96.975 52.782c-1.468 0-2.883.215-4.232.584-1.664-11.598-11.614-20.524-23.676-20.524-10.484 0-19.373 6.748-22.615 16.127-.474-.042-.952-.072-1.437-.072-7.494 0-13.767 5.166-15.498 12.123l-.429-.043c-6.557 0-11.871 5.315-11.871 11.869 0 6.504 5.233 11.916 11.718 11.998l-.018.156h67.585l-.016-.169.488-.048c8.815 0 15.967-7.184 15.967-16s-7.151-16.001-15.966-16.001zm.067 25.239l-1.065-.021h-66.059l-.867.001c-2.853 0-5.165-2.356-5.165-5.208s2.312-5.188 5.165-5.188c2.453 0 4.497 1.705 5.025 3.998l3.082-1.549c-.982-1.484-1.559-3.264-1.559-5.179 0-5.195 4.214-9.414 9.412-9.414 2.665 0 5.06 1.117 6.771 2.896-.044-.515-.078-1.037-.078-1.566 0-9.579 7.765-17.343 17.345-17.343s17.342 7.764 17.342 17.343c0 3.164-.859 6.119-2.339 8.673l3.847 1.779c.681-4.456 4.498-7.878 9.143-7.878 5.128 0 9.286 4.198 9.286 9.327s-4.158 9.329-9.286 9.329z" fill="#0a6fcd"/><path d="M94.999 97.232l-.765-2.858-6.097 1.633 1.633-6.095-2.857-.767-1.634 6.097-4.463-4.463-2.093 2.092 4.465 4.464-6.097 1.633.766 2.859 6.097-1.636-1.634 6.097 2.857.769 1.634-6.1 4.464 4.463 2.091-2.091-4.462-4.463z" fill="#0a6fcd"/><path d="M49.372 94.374l-6.1 1.633 1.633-6.095-2.856-.767-1.633 6.097-4.464-4.463-2.092 2.092 4.464 4.464-6.097 1.633.766 2.859 6.096-1.636-1.632 6.097 2.856.769 1.633-6.1 4.465 4.463 2.09-2.091-4.462-4.463 6.096-1.634z" fill="#0a6fcd"/><path d="M71.803 101.104l-6.098 1.632 1.633-6.095-2.858-.766-1.632 6.098-4.463-4.465-2.094 2.092 4.463 4.462-6.095 1.635.765 2.858 6.097-1.634-1.632 6.097 2.856.767 1.633-6.097 4.465 4.462 2.091-2.091-4.463-4.463 6.095-1.634z" fill="#0a6fcd"/><path d="M97.042 78.021l-1.065-.021h-66.059l-.867.001c-2.853 0-5.165-2.356-5.165-5.208s2.312-5.188 5.165-5.188c2.453 0 4.497 1.705 5.025 3.998l3.082-1.549c-.982-1.484-1.559-3.264-1.559-5.179 0-5.195 4.214-9.414 9.412-9.414 2.665 0 5.06 1.117 6.771 2.896-.044-.515-.078-1.037-.078-1.566 0-9.579 7.765-17.343 17.345-17.343s17.342 7.764 17.342 17.343c0 3.164-.859 6.119-2.339 8.673l3.847 1.779c.681-4.456 4.498-7.878 9.143-7.878 5.128 0 9.286 4.198 9.286 9.327s-4.158 9.329-9.286 9.329z" fill="#fff" opacity=".4"/></svg>