<svg enable-background="new 0 0 120 120" viewBox="0 0 120 120" xmlns="http://www.w3.org/2000/svg"><path d="M55.273 29.082l-4.664-17.406-4.088 1.093 4.662 17.395c1.338-.451 2.704-.816 4.09-1.082z" fill="#ff6a2a"/><path d="M31.697 49.542l-17.32-4.642-1.097 4.087 17.341 4.646c.268-1.375.615-2.742 1.076-4.091z" fill="#ff6a2a"/><path d="M40.744 36.135l-12.696-12.698-2.992 2.993 12.677 12.678c.939-1.076 1.954-2.054 3.011-2.973z" fill="#ff6a2a"/><path d="M71.348 30.249l4.685-17.479-4.089-1.095-4.68 17.461c1.375.276 2.737.642 4.084 1.113z" fill="#ff6a2a"/><path d="M91.622 53.717l17.638-4.726-1.094-4.087-17.631 4.724c.453 1.337.817 2.702 1.087 4.089z" fill="#ff6a2a"/><path d="M84.632 39.293l12.864-12.865-2.992-2.992-12.831 12.832c1.071.942 2.044 1.963 2.959 3.025z" fill="#ff6a2a"/><path d="M81.596 82.968l12.92 12.923 2.996-2.992-12.924-12.922c-.934 1.076-1.94 2.067-2.992 2.991z" fill="#ff6a2a"/><path d="M90.521 69.686l17.646 4.728 1.095-4.089-17.656-4.73c-.274 1.373-.622 2.74-1.085 4.091z" fill="#ff6a2a"/><path d="M30.65 65.674l-17.37 4.654 1.097 4.087 17.379-4.657c-.461-1.336-.826-2.699-1.106-4.084z" fill="#ff6a2a"/><path d="M67.229 90.053l4.717 17.602 4.091-1.094-4.722-17.615c-1.335.462-2.7.827-4.086 1.107z" fill="#ff6a2a"/><path d="M51.205 89.07l-4.685 17.49 4.087 1.094 4.7-17.535c-1.379-.264-2.75-.592-4.102-1.049z" fill="#ff6a2a"/><path d="M37.798 80.143l-12.753 12.753 2.992 2.994 12.768-12.768c-1.083-.931-2.08-1.929-3.007-2.979z" fill="#ff6a2a"/><path d="M73.533 38.352c-11.77-6.797-26.824-2.762-33.621 9.008-6.795 11.772-2.762 26.824 9.01 33.623 11.771 6.795 26.824 2.762 33.619-9.01 6.798-11.773 2.766-26.825-9.008-33.621zm3.365 30.375c-4.994 8.651-16.058 11.615-24.708 6.621-8.651-4.996-11.614-16.057-6.621-24.708 4.995-8.651 16.059-11.614 24.71-6.619 8.651 4.992 11.614 16.054 6.619 24.706z" fill="#ff6a2a"/><path d="M76.898 68.727c-4.994 8.651-16.058 11.615-24.708 6.621-8.651-4.996-11.614-16.057-6.621-24.708 4.995-8.651 16.059-11.614 24.71-6.619 8.651 4.992 11.614 16.054 6.619 24.706z" fill="#fff" opacity=".4"/></svg>