<?xml version="1.0" encoding="UTF-8" standalone="no"?>
<svg width="18px" height="16px" viewBox="0 0 18 16" version="1.1" xmlns="http://www.w3.org/2000/svg" xmlns:xlink="http://www.w3.org/1999/xlink" xmlns:sketch="http://www.bohemiancoding.com/sketch/ns">
    <!-- Generator: Sketch 3.1 (8751) - http://www.bohemiancoding.com/sketch -->
    <title>gray-16</title>
    <desc>Created with Sketch.</desc>
    <defs></defs>
    <g id="Page-1" stroke="none" stroke-width="1" fill="none" fill-rule="evenodd" sketch:type="MSPage">
        <path d="M8.94133563,0.0547980698 C9.15948293,0.0492069012 9.40129968,0.0463219081 9.65108758,0.0491816048 C10.3621821,0.0573225701 10.5659693,0.138745105 11.3037109,0.216627938 C13.6679256,0.466216283 16.0508952,2.13424519 17.0740678,4.39453549 C17.1539639,4.57103384 17.2255685,4.75114351 17.2882254,4.93447113 C17.9625914,6.90759564 17.6296386,8.27324001 15.962514,8.77944427 C15.9873117,8.52297889 16,8.2629712 16,8 C16,3.9001893 12.9160073,0.520684105 8.94133563,0.0547980698 Z" id="Oval-32-copy" fill="#8C8C8C" sketch:type="MSShapeGroup"></path>
        <circle id="Oval-32-copy-2" fill-opacity="0.7" fill="#ABABAB" sketch:type="MSShapeGroup" transform="translate(8.000000, 8.000000) scale(-1, 1) translate(-8.000000, -8.000000) " cx="8" cy="8" r="8"></circle>
        <path d="M2.76853655,0.030403075 C2.07064104,0.0177164818 1.30739886,-0.025531286 0.0843129185,0.09876245 C3.34439593,0.232909004 6.34845354,2.03444883 7.56024554,5.81187106 C7.93245047,7.05602912 9.54044267,8.58886221 10.7067867,8.68331358 C10.7281566,8.44805499 10.7390737,8.20980622 10.7390737,7.96902787 C10.7390737,3.62964747 7.14171559,0.109900278 2.76853655,0.030403075 Z" id="Oval-24-copy" fill="#333333" sketch:type="MSShapeGroup" transform="translate(5.428571, 4.285714) scale(-1, 1) translate(-5.428571, -4.285714) "></path>
    </g>
</svg>