<?xml version="1.0" encoding="utf-8"?>
<!DOCTYPE svg PUBLIC "-//W3C//DTD SVG 1.1//EN" "http://www.w3.org/Graphics/SVG/1.1/DTD/svg11.dtd">
<svg version="1.1" xmlns="http://www.w3.org/2000/svg" xmlns:xlink="http://www.w3.org/1999/xlink" x="0px" y="0px"
     width="16.037px" height="14.973px" viewBox="0 0 16.037 14.973" enable-background="new 0 0 16.037 14.973" xml:space="preserve">
<g id="Layer_1">
</g>
<g id="Layer_3">
    <path fill-rule="evenodd" clip-rule="evenodd" fill="#FFFFFF" d="M6.187-19.845c4.418,0,8,3.582,8,8c0,4.419-3.582,8-8,8
        s-8-3.581-8-8C-1.813-16.263,1.769-19.845,6.187-19.845z"/>
    <g>
        <g>
            <path fill-rule="evenodd" clip-rule="evenodd" d="M6.187-18.845c-3.866,0-7,3.134-7,7s3.134,7,7,7s7-3.134,7-7
                S10.053-18.845,6.187-18.845z M10.177-9.28L8.751-7.854l-2.564-2.564L3.622-7.854L2.196-9.28l2.564-2.564l-2.564-2.564
                l1.426-1.426l2.564,2.564l2.564-2.564l1.426,1.426l-2.564,2.564L10.177-9.28z"/>
        </g>
    </g>
</g>
<g id="Layer_4">
    <path fill-rule="evenodd" clip-rule="evenodd" d="M5.287,14.972l10.75-12.816L13.86,0L5.287,10.661L2.143,6.513L0,8.636
        L5.287,14.972z"/>
</g>
</svg>
