<?xml version="1.0" encoding="UTF-8" standalone="no"?>
<svg width="43px" height="16px" viewBox="0 0 43 16" version="1.1" xmlns="http://www.w3.org/2000/svg" xmlns:xlink="http://www.w3.org/1999/xlink" xmlns:sketch="http://www.bohemiancoding.com/sketch/ns">
    <!-- Generator: Sketch 3.1 (8751) - http://www.bohemiancoding.com/sketch -->
    <title>yandex-white</title>
    <desc>Created with Sketch.</desc>
    <defs></defs>
    <g id="Page-1" stroke="none" stroke-width="1" fill="none" fill-rule="evenodd" sketch:type="MSPage">
        <g id="yandex-white" sketch:type="MSLayerGroup" fill-opacity="0.9" fill="#E6E6E6">
            <path d="M6.7,0 L4.6,0 C2.5,0 0.7,1.6 0.7,4.7 C0.7,6.5 1.6,7.9 3.1,8.6 L0.3,13.8 C0.2,14 0.3,14.1 0.4,14.1 L1.7,14.1 C1.8,14.1 1.9,14.1 1.9,14 L4.5,8.9 L5.4,8.9 L5.4,14 C5.4,14.1 5.5,14.1 5.5,14.1 L6.7,14.1 C6.8,14.1 6.8,14 6.8,14 L6.8,0.3 C6.9,0.1 6.8,0 6.7,0 L6.7,0 Z M5.5,7.6 L4.7,7.6 C3.5,7.6 2.3,6.7 2.3,4.5 C2.3,2.2 3.4,1.2 4.6,1.2 L5.5,1.2 L5.5,7.6 L5.5,7.6 Z" id="Shape" sketch:type="MSShapeGroup"></path>
            <path d="M14.3,4 L13,4 C12.9,4 12.8,4.1 12.8,4.1 L12.8,7.9 L10.5,7.9 L10.5,4.1 C10.5,4 10.5,4 10.4,4 L9.2,4 C9.1,4 9,4.1 9,4.1 L9,13.7 C9,13.8 9,13.9 9.1,13.9 L10.3,13.9 C10.4,13.9 10.4,13.8 10.4,13.7 L10.4,9.1 L12.7,9.1 L12.7,13.7 C12.7,13.8 12.8,13.9 12.9,13.9 L14.1,13.9 C14.2,13.9 14.2,13.8 14.2,13.7 L14.2,4.1 C14.4,4.1 14.3,4 14.3,4 L14.3,4 Z" id="Shape" sketch:type="MSShapeGroup"></path>
            <path d="M42.2,13.3 L42,12.6 C42,12.5 42,12.5 41.9,12.5 C41.8,12.5 41.3,12.7 40.5,12.7 C39,12.7 38.3,11.3 38.3,9 C38.3,7 38.9,5 39.9,5 C40.2,5 40.5,5.1 41,5.6 C41.1,5.7 41.1,5.7 41.2,5.7 C41.3,5.7 41.3,5.7 41.4,5.6 L41.9,4.7 C41.9,4.6 42,4.6 42,4.5 C42,4.4 41.9,4.4 41.8,4.3 C41,3.9 40.4,3.8 40,3.8 C38.1,3.8 36.7,6 36.7,9.5 C36.7,12.5 38.1,14.2 40.1,14.2 C40.9,14.2 41.8,13.8 42.2,13.5 C42.2,13.4 42.2,13.4 42.2,13.3 L42.2,13.3 Z" id="Shape" sketch:type="MSShapeGroup"></path>
            <path d="M33.6,8.5 L36,4.2 C36,4.1 36,4.1 35.9,4.1 L34.7,4.1 C34.4,4.1 34.2,4.2 34.1,4.5 L32.3,8.2 C32.2,8.4 32.1,8.6 32,8.6 L32,4.2 C32,4.1 32,4.1 31.9,4.1 L30.6,4.1 C30.5,4.1 30.5,4.2 30.5,4.2 L30.5,13.8 C30.5,13.9 30.5,13.9 30.6,13.9 L31.9,13.9 C32,13.9 32,13.8 32,13.8 L32,8.8 C32.1,8.8 32.1,8.9 32.1,9 L34.3,13.6 C34.4,13.8 34.6,13.9 34.9,13.9 L36.2,13.9 C36.3,13.9 36.3,13.8 36.3,13.8 L33.6,8.5 L33.6,8.5 Z" id="Shape" sketch:type="MSShapeGroup"></path>
            <path d="M22.3,12.7 L22.1,12.7 C21.8,12.7 21.7,12.6 21.7,12.3 L21.7,4.1 C21.7,4 21.7,4 21.6,4 L17.7,4 C17.6,4 17.5,4.1 17.5,4.1 L17.5,4.8 C17.5,7.2 17.4,10.3 16.1,12.6 L15.7,12.6 C15.6,12.6 15.5,12.7 15.5,12.8 L15.5,15.7 C15.5,15.8 15.6,15.8 15.6,15.8 L16.5,15.8 C16.7,15.8 16.8,15.6 16.8,15.5 L16.8,13.9 L21,13.9 L21,15.7 C21,15.8 21.1,15.8 21.1,15.8 L22.1,15.8 C22.2,15.8 22.3,15.7 22.3,15.5 L22.3,12.8 C22.5,12.7 22.4,12.7 22.3,12.7 L22.3,12.7 Z M20.2,12.7 L17.3,12.7 C18.3,11 18.7,9 18.8,6.7 C18.8,6.2 18.9,5.7 18.9,5.3 L20.2,5.3 L20.2,12.7 L20.2,12.7 Z" id="Shape" sketch:type="MSShapeGroup"></path>
            <path d="M26.3,3.8 C24.2,3.8 23.2,6.5 23.2,9.4 C23.2,12.4 24.5,14.2 26.5,14.2 C27.5,14.2 28.3,13.8 28.7,13.5 C28.8,13.5 28.8,13.4 28.8,13.3 L28.6,12.6 C28.6,12.5 28.5,12.5 28.4,12.5 C28.3,12.5 27.7,12.7 26.9,12.7 C25.4,12.7 24.7,11.4 24.7,9.6 L24.7,9.1 C24.7,9.1 25.5,9.2 25.9,9.2 L28.8,9.2 L28.8,8.5 C29,5.4 27.9,3.8 26.3,3.8 L26.3,3.8 Z M26.1,8.1 C25.6,8.1 24.9,8.2 24.9,8.2 L24.9,7.6 C25.1,5.9 25.5,5.1 26.2,5.1 C26.8,5.1 27.2,6 27.3,7.5 L27.3,8.2 L26.1,8.2 L26.1,8.1 Z" id="Shape" sketch:type="MSShapeGroup"></path>
        </g>
    </g>
</svg>