<?xml version="1.0" encoding="utf-8"?>
<!-- Generator: Adobe Illustrator 17.0.0, SVG Export Plug-In . SVG Version: 6.00 Build 0)  -->
<!DOCTYPE svg PUBLIC "-//W3C//DTD SVG 1.1//EN" "http://www.w3.org/Graphics/SVG/1.1/DTD/svg11.dtd">
<svg version="1.1" xmlns="http://www.w3.org/2000/svg" xmlns:xlink="http://www.w3.org/1999/xlink" x="0px" y="0px" width="42px"
	 height="16px" viewBox="0 0 42 16" enable-background="new 0 0 42 16" xml:space="preserve">
<g id="Background_xA0_Image_1_">
</g>
<g id="Shape_1_15_" opacity="0.902" enable-background="new    ">
</g>
<g id="Shape_1_14_" enable-background="new    ">
</g>
<g id="Shape_1_13_" opacity="0.902" enable-background="new    ">
	<g id="Shape_1_2_">
		<g>
			<path fill-rule="evenodd" clip-rule="evenodd" d="M13.653,4.003h-1.224c-0.099,0-0.158,0.079-0.158,0.138v3.784h-2.27V4.141
				c0-0.099-0.039-0.138-0.138-0.138H8.639c-0.098,0-0.157,0.059-0.157,0.138v9.628c0,0.099,0.039,0.158,0.138,0.158h1.244
				c0.079,0,0.138-0.059,0.138-0.158V9.174h2.27v4.596c0,0.099,0.059,0.158,0.158,0.158h1.224c0.099,0,0.138-0.079,0.138-0.158
				V4.141C13.791,4.062,13.732,4.003,13.653,4.003z M41.437,12.621c-0.019-0.059-0.039-0.079-0.098-0.079
				c-0.099,0-0.632,0.217-1.402,0.217c-1.5,0-2.231-1.446-2.231-3.744c0-2.021,0.612-4.022,1.639-4.022
				c0.276,0,0.612,0.079,1.145,0.575c0.059,0.059,0.099,0.079,0.158,0.079c0.059,0,0.119-0.04,0.178-0.139l0.533-0.871
				c0.039-0.06,0.059-0.12,0.059-0.179c0-0.079-0.079-0.138-0.198-0.197c-0.81-0.416-1.362-0.495-1.836-0.495
				c-1.856,0-3.297,2.219-3.297,5.685c0,2.992,1.382,4.715,3.356,4.715c0.83,0,1.718-0.396,2.073-0.654
				c0.078-0.059,0.098-0.138,0.078-0.217L41.437,12.621z M33.017,8.48l2.368-4.339c0.04-0.059,0.02-0.138-0.059-0.138h-1.164
				c-0.336,0-0.454,0.119-0.572,0.376l-1.777,3.705C31.714,8.302,31.615,8.44,31.516,8.5V4.141c0-0.079-0.039-0.138-0.119-0.138
				h-1.283c-0.059,0-0.119,0.059-0.119,0.138v9.648c0,0.059,0.04,0.138,0.119,0.138h1.283c0.079,0,0.119-0.059,0.119-0.138V8.817
				c0.059,0.04,0.099,0.099,0.138,0.178l2.25,4.635c0.119,0.238,0.296,0.297,0.553,0.297h1.263c0.079,0,0.099-0.079,0.059-0.138
				L33.017,8.48z M21.707,12.68h-0.237c-0.296,0-0.375-0.119-0.375-0.356V4.141c0-0.099-0.04-0.138-0.119-0.138h-3.948
				c-0.099,0-0.158,0.059-0.158,0.138v0.713c0,2.397-0.138,5.488-1.401,7.825h-0.434c-0.119,0-0.158,0.06-0.158,0.159
				c0,0,0,2.236,0,2.751c0,0.099,0.079,0.138,0.138,0.138h0.948c0.217,0,0.296-0.158,0.296-0.297v-1.503h4.225v1.662
				c0,0.079,0.059,0.138,0.138,0.138h1.007c0.118,0,0.236-0.099,0.236-0.297v-2.592C21.864,12.74,21.805,12.68,21.707,12.68z
				 M19.574,12.68h-2.862c1.007-1.723,1.402-3.665,1.54-6.042c0.04-0.515,0.059-1.05,0.059-1.387h1.263V12.68z M25.733,3.765
				c-2.132,0-3.079,2.694-3.079,5.626c0,2.992,1.342,4.774,3.316,4.774c0.967,0,1.816-0.376,2.25-0.654
				c0.079-0.039,0.099-0.099,0.079-0.178l-0.158-0.674c-0.02-0.079-0.059-0.118-0.158-0.118c-0.078,0-0.651,0.217-1.461,0.217
				c-1.52,0-2.23-1.327-2.23-3.07c0-0.238,0-0.469,0-0.469s0.769,0.092,1.224,0.092h2.882V8.48
				C28.398,5.41,27.312,3.765,25.733,3.765z M25.516,8.064c-0.454,0-1.165,0.079-1.165,0.079s0-0.297,0.04-0.614
				c0.177-1.684,0.592-2.535,1.283-2.535c0.632,0,1.026,0.871,1.125,2.397c0.02,0.317,0.02,0.674,0.02,0.674H25.516z"/>
		</g>
	</g>
</g>
<g id="Shape_1_12_" enable-background="new    ">
	<g id="Shape_1_3_">
		<g>
			<path fill-rule="evenodd" clip-rule="evenodd" fill="#FF0000" d="M6.481,0H4.363C2.282,0,0.517,1.585,0.517,4.662
				c0,1.846,0.855,3.207,2.378,3.878l-2.842,5.147c-0.093,0.168,0,0.298,0.148,0.298H1.52c0.111,0,0.186-0.037,0.223-0.13
				l2.582-5.054h0.929v5.054c0,0.056,0.056,0.13,0.129,0.13h1.152c0.112,0,0.149-0.056,0.149-0.149V0.187
				C6.685,0.056,6.611,0,6.481,0z M5.255,7.608H4.474c-1.226,0-2.415-0.895-2.415-3.133c0-2.331,1.115-3.282,2.248-3.282h0.948
				V7.608z"/>
		</g>
	</g>
</g>
<g id="Shape_1_11_" enable-background="new    ">
</g>
<g id="Shape_1_10_" opacity="0.502" enable-background="new    ">
</g>
<g id="Shape_2_7_" opacity="0.902" enable-background="new    ">
</g>
<g id="Shape_3_7_" enable-background="new    ">
</g>
<g id="Shape_3_6_" opacity="0.502" enable-background="new    ">
</g>
<g id="Shape_2_6_" opacity="0.502" enable-background="new    ">
</g>
<g id="Layer_18">
</g>
<g id="Shape_3_5_" enable-background="new    ">
</g>
<g id="Shape_2_5_" opacity="0.902" enable-background="new    ">
</g>
<g id="Shape_1_9_" opacity="0.502" enable-background="new    ">
</g>
<g id="Shape_1_8_" opacity="0.502" enable-background="new    ">
</g>
<g id="Shape_3_4_" opacity="0.502" enable-background="new    ">
</g>
<g id="Shape_2_4_" opacity="0.502" enable-background="new    ">
</g>
</svg>
