<?xml version="1.0" encoding="UTF-8" standalone="no"?>
<svg width="19px" height="19px" viewBox="0 0 19 19" version="1.1" xmlns="http://www.w3.org/2000/svg" xmlns:xlink="http://www.w3.org/1999/xlink" xmlns:sketch="http://www.bohemiancoding.com/sketch/ns">
    <!-- Generator: Sketch 3.0.4 (8054) - http://www.bohemiancoding.com/sketch -->
    <title>ovc-sn-19</title>
    <desc>Created with Sketch.</desc>
    <defs></defs>
    <g id="Page-1" stroke="none" stroke-width="1" fill="none" fill-rule="evenodd" sketch:type="MSPage">
        <path d="M11.9961882,14.869089 L11.6583766,13.6083588 L10.4651741,13.9280764 L10.8029857,15.1888066 L10.8029857,15.1888066 L9.54225557,14.850995 L9.22253793,16.0441975 L10.4832681,16.3820091 L9.56034956,17.3049276 L10.4338344,18.1784125 L11.3567529,17.2554939 L11.6945646,18.5162241 L12.8877671,18.1965065 L12.5499554,16.9357763 L13.8106856,17.2735879 L14.1304032,16.0803854 L12.8696731,15.7425738 L13.7925916,14.8196553 L12.9191068,13.9461704 L11.9961882,14.869089 Z M5.99618823,13.869089 L5.6583766,12.6083588 L4.46517411,12.9280764 L4.80298574,14.1888066 L4.80298574,14.1888066 L3.54225557,13.850995 L3.22253793,15.0441975 L4.4832681,15.3820091 L3.56034956,16.3049276 L4.43383441,17.1784125 L5.35675294,16.2554939 L5.69456457,17.5162241 L6.88776707,17.1965065 L6.54995544,15.9357763 L7.8106856,16.2735879 L8.13040325,15.0803854 L6.86967308,14.7425738 L7.79259162,13.8196553 L6.91910677,12.9461704 L5.99618823,13.869089 L5.99618823,13.869089 Z M15.6470588,5.15243255 C17.4988371,5.15243255 19,6.6746644 19,8.55243255 C19,10.4302007 17.4988371,11.9524325 15.6470587,11.9524325 L2.23529412,11.9524325 C1.00077527,11.9524325 0,10.9376113 0,9.68576588 C0,8.6520653 0.682377449,7.77997939 1.61526989,7.50743185 C1.73768542,7.47166775 1.99448161,7.43209955 1.99448161,7.43209955 C1.99448161,7.43209955 2.15393488,7.41909922 2.23529412,7.41909922 C2.24854259,7.41909922 2.26176414,7.41921609 2.27495782,7.41944888 L2.27495782,7.41944888 C2.248819,7.2342625 2.23529412,7.04494914 2.23529412,6.85243255 C2.23529412,4.66170304 3.98665083,2.88576588 6.14705882,2.88576588 C6.51961071,2.88576588 6.87999851,2.93857751 7.22133879,3.03722075 C7.97084521,1.59911925 9.46079398,0.619099216 11.1764706,0.619099216 C13.6455083,0.619099216 15.6470588,2.64874168 15.6470588,5.15243255 L15.6470588,5.15243255 Z" id="Oval-2" fill-opacity="0.702000022" fill="#7196EA" sketch:type="MSShapeGroup"></path>
    </g>
</svg>