<?xml version="1.0" encoding="utf-8"?>
<!-- Generator: Adobe Illustrator 17.0.0, SVG Export Plug-In . SVG Version: 6.00 Build 0)  -->
<!DOCTYPE svg PUBLIC "-//W3C//DTD SVG 1.1//EN" "http://www.w3.org/Graphics/SVG/1.1/DTD/svg11.dtd">
<svg version="1.1" xmlns="http://www.w3.org/2000/svg" xmlns:xlink="http://www.w3.org/1999/xlink" x="0px" y="0px" width="42px"
	 height="16px" viewBox="0 0 42 16" enable-background="new 0 0 42 16" xml:space="preserve">
<g id="Background_xA0_Image_1_">
</g>
<g id="Shape_1_15_" opacity="0.902" enable-background="new    ">
</g>
<g id="Shape_1_14_" enable-background="new    ">
</g>
<g id="Shape_1_13_" opacity="0.902" enable-background="new    ">
</g>
<g id="Shape_1_12_" enable-background="new    ">
</g>
<g id="Shape_1_11_" enable-background="new    ">
</g>
<g id="Shape_1_10_" opacity="0.502" enable-background="new    ">
</g>
<g id="Shape_2_7_" opacity="0.902" enable-background="new    ">
</g>
<g id="Shape_3_7_" enable-background="new    ">
</g>
<g id="Shape_3_6_" opacity="0.502" enable-background="new    ">
</g>
<g id="Shape_2_6_" opacity="0.502" enable-background="new    ">
</g>
<g id="Layer_18">
</g>
<g id="Shape_3_5_" enable-background="new    ">
	<g id="Shape_3_2_">
		<g>
			<path fill-rule="evenodd" clip-rule="evenodd" fill="#FF2525" d="M8.766,0H7.379c-0.123,0-0.2,0.059-0.217,0.144
				c-0.018,0.086-2.08,6.227-2.23,6.739C4.825,7.246,4.479,8.525,4.396,8.832L3.678,6.919C3.504,6.393,1.834,1.366,1.785,1.184
				c-0.027-0.1-0.074-0.225-0.254-0.225H0.177c-0.132,0-0.207,0.142-0.165,0.23c0.034,0.07,2.48,6.894,3.468,9.322v5.333
				C3.48,15.942,3.52,16,3.62,16h1.241C4.94,16,5,15.942,5,15.844v-5.055v-0.236C5.824,8.306,8.874,0.314,8.907,0.225
				C8.947,0.115,8.935,0,8.766,0z"/>
		</g>
	</g>
</g>
<g id="Shape_2_5_" opacity="0.902" enable-background="new    ">
	<g id="Shape_2_2_">
		<g>
			<path fill-rule="evenodd" clip-rule="evenodd" d="M18.253,5.962c-0.938,0-1.917,0.685-1.917,0.685v-0.44
				c0-0.096-0.039-0.135-0.135-0.135h-1.198c-0.097,0-0.155,0.058-0.155,0.135v9.388c0,0.097,0.039,0.155,0.135,0.155h1.217
				c0.077,0,0.135-0.058,0.135-0.155V7.558c0,0,0.565-0.358,1.251-0.358c0.653,0,1.169,0.324,1.169,0.989c0,0.463,0,7.404,0,7.404
				c0,0.097,0.058,0.155,0.155,0.155h1.198c0.097,0,0.135-0.077,0.135-0.155V7.769C20.243,6.59,19.518,5.962,18.253,5.962z
				 M27.569,1.253h-1.198c-0.097,0-0.155,0.058-0.155,0.135v4.736c-0.46-0.177-0.878-0.27-1.217-0.27
				c-1.945,0-3.28,1.859-3.28,5.435c0,3.063,1.299,4.706,2.994,4.706c0.715,0,1.304-0.409,1.736-0.794l0.261,0.443
				c0.044,0.077,0.08,0.103,0.169,0.103l0.689,0.001c0.077,0,0.135-0.058,0.135-0.155V1.388C27.704,1.291,27.665,1.253,27.569,1.253
				z M26.217,14.424c-0.295,0.16-0.666,0.308-1.067,0.308c-1.28,0-1.846-1.519-1.846-3.759c0-1.97,0.577-3.921,1.754-3.921
				c0.399,0,0.782,0.131,1.159,0.431V14.424z M32.157,5.874c-1.994,0-2.979,2.609-2.979,5.449c0,2.972,1.404,4.638,3.209,4.638
				c0.794,0,1.583-0.312,2.101-0.6c0.079-0.044,0.094-0.106,0.075-0.183l-0.151-0.628c-0.019-0.077-0.057-0.115-0.153-0.115
				c-0.042,0-0.696,0.191-1.333,0.191c-1.477,0-2.155-1.313-2.155-3.057c0-0.23,0-0.424,0-0.424s0.734,0.102,1.175,0.102h2.787
				V10.44C34.733,7.466,33.691,5.874,32.157,5.874z M32.061,10.037c-0.441,0-1.244,0.109-1.244,0.109s0.011-0.32,0.049-0.627
				c0.173-1.631,0.562-2.456,1.233-2.456c0.584,0,0.984,0.844,1.08,2.321c0.019,0.307,0.019,0.652,0.019,0.652H32.061z
				 M10.439,5.839c-0.581,0-1.486,0.222-2.092,0.494c-0.118,0.053-0.193,0.1-0.193,0.193c0,0.055,0.028,0.119,0.058,0.174
				l0.408,0.873c0.042,0.099,0.109,0.121,0.165,0.121c0.06,0,0.109-0.029,0.163-0.063c0.59-0.377,1.022-0.584,1.365-0.584
				c0.453,0,0.76,0.3,0.95,0.752c0.177,0.421,0.245,1.002,0.245,1.674c0,0.086,0,0.197,0,0.197
				c-0.372-0.233-1.016-0.361-1.338-0.361c-1.73,0-2.664,1.644-2.664,3.402c0,1.894,1.091,3.284,2.401,3.284
				c0.73,0,1.391-0.428,1.833-0.969c0,0,0.236,0.562,0.266,0.629c0.031,0.067,0.064,0.092,0.152,0.092l0.7,0.001
				c0.077,0,0.135-0.058,0.135-0.155v-5.446c0-1.338-0.068-2.359-0.421-3.055C12.131,6.221,11.342,5.839,10.439,5.839z
				 M10.384,14.732c-0.37,0-0.655-0.171-0.885-0.487C9.22,13.86,9.09,13.268,9.09,12.611c0-1.039,0.383-2.104,1.196-2.104
				c0.402,0,0.844,0.131,1.221,0.431v3.29h0C11.165,14.559,10.754,14.732,10.384,14.732z M41.058,6.07H39.99
				c-0.119,0-0.18,0.062-0.211,0.143c-0.068,0.177-0.519,1.366-0.704,1.858c-0.132,0.352-0.487,1.359-0.487,1.359l-0.041,0
				c-0.001-0.004-0.261-0.732-0.402-1.098c-0.114-0.296-0.709-1.862-0.784-2.056c-0.04-0.104-0.085-0.207-0.238-0.207h-1.169
				c-0.128,0-0.201,0.141-0.16,0.228c0.042,0.088,1.904,4.329,1.904,4.329s-2,4.749-2.058,4.856
				c-0.058,0.107,0.015,0.265,0.157,0.265h1.024c0.174,0,0.243-0.091,0.295-0.238c0.147-0.412,0.366-0.986,0.677-1.872
				c0.206-0.587,0.531-1.618,0.531-1.618h0.036c0,0,0.356,1.051,0.489,1.394c0.335,0.869,0.763,2.003,0.808,2.123
				c0.047,0.125,0.113,0.212,0.233,0.212h1.161c0.115,0,0.168-0.131,0.114-0.245c-0.129-0.272-1.232-2.953-1.998-4.715
				c0,0,1.988-4.387,2.027-4.495C41.233,6.184,41.222,6.07,41.058,6.07z"/>
		</g>
	</g>
</g>
<g id="Shape_1_9_" opacity="0.502" enable-background="new    ">
</g>
<g id="Shape_1_8_" opacity="0.502" enable-background="new    ">
</g>
<g id="Shape_3_4_" opacity="0.502" enable-background="new    ">
</g>
<g id="Shape_2_4_" opacity="0.502" enable-background="new    ">
</g>
</svg>
