<?xml version="1.0" encoding="UTF-8" standalone="no"?>
<svg width="13px" height="12px" viewBox="0 0 13 12" version="1.1" xmlns="http://www.w3.org/2000/svg" xmlns:xlink="http://www.w3.org/1999/xlink" xmlns:sketch="http://www.bohemiancoding.com/sketch/ns">
    <!-- Generator: Sketch 3.2.2 (9983) - http://www.bohemiancoding.com/sketch -->
    <title>ico-12-black</title>
    <desc>Created with Sketch.</desc>
    <defs></defs>
    <g id="Page-1" stroke="none" stroke-width="1" fill="none" fill-rule="evenodd" sketch:type="MSPage">
        <path d="M7.025,6 L11.825,1.2 C12.125,0.9 12.125,0.5 11.825,0.2 C11.525,-0.1 11.125,-0.1 10.825,0.2 L6.025,5 L1.225,0.2 C0.925,-0.1 0.525,-0.1 0.225,0.2 C-0.075,0.5 -0.075,0.9 0.225,1.2 L5.025,6 L0.225,10.8 C-0.075,11.1 -0.075,11.5 0.225,11.8 C0.525,12.1 0.925,12.1 1.225,11.8 L6.025,7 L10.825,11.8 C11.125,12.1 11.525,12.1 11.825,11.8 C12.125,11.5 12.125,11.1 11.825,10.8 L7.025,6 Z" id="ico-12-black" fill="#000000" sketch:type="MSShapeGroup"></path>
    </g>
</svg>