<svg enable-background="new 0 0 120 120" viewBox="0 0 120 120" xmlns="http://www.w3.org/2000/svg"><path d="M54.451 58.784h-30.201c-.4.094-.81.156-1.24.156-2.98 0-5.397-2.416-5.397-5.397s2.417-5.399 5.397-5.399c2.592 0 4.75 1.826 5.273 4.262l2.741-1.37c-.836-1.403-1.348-3.023-1.348-4.773 0-5.182 4.205-9.383 9.384-9.383 2.717 0 5.144 1.173 6.859 3.02-.059-.579-.089-1.167-.089-1.761 0-9.608 7.788-17.396 17.396-17.396s17.396 7.789 17.396 17.396c0 3.011-.768 5.843-2.111 8.312l3.531 1.633c.691-4.498 4.547-7.952 9.238-7.952 5.181 0 9.381 4.2 9.381 9.382s-4.2 9.383-9.381 9.383c-.381 0-.742-.068-1.108-.112h-22.262" fill="#fff" opacity=".4"/><path d="M85.729 77.342c-3.347-1.602-7.354-.201-8.951 3.131-1.594 3.334-.176 7.334 3.172 8.938s7.354.201 8.949-3.133c1.596-3.331.176-7.333-3.17-8.936z" fill="#03447d"/><path d="M89.537 68.547l-.017 14.458-11.164-4.7 11.181-9.758z" fill="#03447d"/><path d="M68.764 48.251l-25.837 30.179 14.502 1.164-12.167 25.678 25.73-30.172-14.01-1.373 11.782-25.476z" fill="#ff6a2a"/><path d="M53.925 65.578" fill="#d8b511"/><path d="M54.451 58.784h-30.201c-.4.094-.81.156-1.24.156-2.98 0-5.397-2.416-5.397-5.397s2.417-5.399 5.397-5.399c2.592 0 4.75 1.826 5.273 4.262l2.741-1.37c-.836-1.403-1.348-3.023-1.348-4.773 0-5.182 4.205-9.383 9.384-9.383 2.717 0 5.144 1.173 6.859 3.02-.059-.579-.089-1.167-.089-1.761 0-9.608 7.788-17.396 17.396-17.396s17.396 7.789 17.396 17.396c0 3.011-.768 5.843-2.111 8.312l3.531 1.633c.691-4.498 4.547-7.952 9.238-7.952 5.181 0 9.381 4.2 9.381 9.382s-4.2 9.383-9.381 9.383c-.381 0-.742-.068-1.108-.112h-22.262s-.28 1.137-1.124 3.135l-1.524 3.66h25.562l-.018-.03.492.024c8.866 0 16.051-7.186 16.051-16.05 0-8.865-7.185-16.051-16.051-16.051-1.508 0-2.962.223-4.346.612-1.93-11.365-11.794-20.028-23.712-20.028-10.539 0-19.473 6.783-22.733 16.215-.478-.042-.959-.073-1.448-.073-7.313 0-13.473 4.888-15.421 11.571l-.592-.06c-6.589 0-11.93 5.343-11.93 11.935 0 6.54 5.263 11.835 11.781 11.917l-.018.017h25.485l5-5.505" fill="#03447d"/><path d="M35.602 82.88l.009.003.018-14.336-11.087 9.676.054.024c-.659.573-1.217 1.286-1.618 2.125-1.582 3.304-.175 7.271 3.144 8.862s7.292.199 8.875-3.104c.502-1.051.673-2.165.605-3.25z" fill="#03447d"/></svg>