<?xml version="1.0" encoding="UTF-8" standalone="no"?>
<svg width="15px" height="14px" viewBox="0 0 15 14" version="1.1" xmlns="http://www.w3.org/2000/svg" xmlns:xlink="http://www.w3.org/1999/xlink" xmlns:sketch="http://www.bohemiancoding.com/sketch/ns">
    <!-- Generator: Sketch 3.2.2 (9983) - http://www.bohemiancoding.com/sketch -->
    <title>ico-14-white</title>
    <desc>Created with Sketch.</desc>
    <defs></defs>
    <g id="Page-1" stroke="none" stroke-width="1" fill="none" fill-rule="evenodd" sketch:type="MSPage">
        <path d="M13.825,12.8 L8.025,7 L13.825,1.2 C14.125,0.9 14.125,0.5 13.825,0.2 C13.525,-0.1 13.125,-0.1 12.825,0.2 L7.025,6 L1.225,0.2 C0.925,-0.1 0.525,-0.1 0.225,0.2 C-0.075,0.5 -0.075,0.9 0.225,1.2 L6.025,7 L0.225,12.8 C-0.075,13.1 -0.075,13.5 0.225,13.8 C0.525,14.1 0.925,14.1 1.225,13.8 L7.025,8 L12.825,13.8 C13.125,14.1 13.525,14.1 13.825,13.8 C14.125,13.5 14.125,13.1 13.825,12.8 L13.825,12.8 Z" id="ico-14-white" fill="#FFFFFF" sketch:type="MSShapeGroup"></path>
    </g>
</svg>