<svg enable-background="new 0 0 120 120" viewBox="0 0 120 120" xmlns="http://www.w3.org/2000/svg"><path d="M18.682 49.435c2.475 1.379 5.094 2.232 7.738 2.65 3.4-4.201 8.511-6.955 14.291-7.168 2.569-5.678 7.034-10.304 12.579-13.101 1.108-9.16-3.28-18.5-11.839-23.265-1.954-1.089-4-1.847-6.074-2.331 9.945 6.002 13.434 18.834 7.738 29.061-5.822 10.457-19.014 14.21-29.469 8.39-1.274-.71-2.443-1.531-3.512-2.439 2.033 3.314 4.907 6.176 8.548 8.203z" fill="#03447d"/><path d="M93.393 52.107c-1.469 0-2.881.214-4.23.584-1.665-11.6-11.614-20.524-23.678-20.524-10.483 0-19.371 6.748-22.614 16.127-.473-.042-.952-.072-1.437-.072-7.494 0-13.767 5.165-15.497 12.123l-.43-.043c-6.557 0-11.871 5.313-11.871 11.869 0 6.504 5.234 11.771 11.718 11.854l-.017.016h67.585l-.017-.029.488.024c8.815 0 15.967-7.147 15.967-15.966s-7.151-15.963-15.967-15.963zm.067 25.152c-.364 0-.712-.065-1.065-.106h-66.058c-.282.048-.568.088-.866.088-2.853 0-5.164-2.314-5.164-5.166s2.311-5.166 5.164-5.166c2.452 0 4.496 1.716 5.025 4.01l3.082-1.543c-.981-1.484-1.559-3.26-1.559-5.175 0-5.197 4.214-9.413 9.413-9.413 2.663 0 5.058 1.117 6.771 2.897-.046-.518-.079-1.039-.079-1.566 0-9.58 7.765-17.343 17.345-17.343s17.344 7.763 17.344 17.343c0 3.163-.861 6.118-2.338 8.672l3.846 1.778c.681-4.457 4.496-7.88 9.142-7.88 5.128 0 9.286 4.16 9.286 9.287s-4.16 9.283-9.289 9.283z" fill="#0a6fcd"/><path d="M83.333 88.469l2.856.766-4.594 17.145-2.857-.766 4.595-17.145z" fill="#0a6fcd"/><path d="M90.654 93.698l.765 2.858-17.144 4.594-.766-2.858 17.145-4.594z" fill="#0a6fcd"/><path d="M75.143 92.195l2.094-2.092 12.549 12.549-2.09 2.094-12.553-12.551z" fill="#0a6fcd"/><path d="M38.47 88.469l2.856.766-4.593 17.145-2.857-.766 4.594-17.145z" fill="#0a6fcd"/><path d="M45.791 93.698l.764 2.858-17.144 4.594-.765-2.858 17.145-4.594z" fill="#0a6fcd"/><path d="M30.279 92.195l2.094-2.092 12.548 12.549-2.09 2.094-12.552-12.551z" fill="#0a6fcd"/><path d="M60.9 95.199l2.859.766-4.596 17.145-2.856-.767 4.593-17.144z" fill="#0a6fcd"/><path d="M68.223 100.428l.764 2.858-17.144 4.594-.765-2.858 17.145-4.594z" fill="#0a6fcd"/><path d="M52.711 98.925l2.094-2.093 12.548 12.55-2.092 2.093-12.55-12.55z" fill="#0a6fcd"/><path d="M93.461 77.259c-.365 0-.713-.065-1.066-.106h-66.058c-.283.049-.568.087-.867.087-2.853 0-5.165-2.313-5.165-5.165s2.312-5.166 5.165-5.166c2.453 0 4.497 1.716 5.025 4.009l3.082-1.542c-.982-1.484-1.559-3.261-1.559-5.176 0-5.196 4.214-9.413 9.412-9.413 2.665 0 5.06 1.118 6.771 2.897-.044-.515-.078-1.037-.078-1.566 0-9.579 7.765-17.343 17.345-17.343s17.343 7.764 17.343 17.343c0 3.164-.86 6.119-2.34 8.673l3.846 1.778c.682-4.455 4.498-7.877 9.144-7.877 5.128 0 9.286 4.157 9.286 9.284s-4.158 9.283-9.286 9.283z" fill="#fff" opacity=".4"/></svg>