<?xml version="1.0" encoding="UTF-8" standalone="no"?>
<!-- Created with Inkscape (http://www.inkscape.org/) -->

<svg
   xmlns:dc="http://purl.org/dc/elements/1.1/"
   xmlns:cc="http://creativecommons.org/ns#"
   xmlns:rdf="http://www.w3.org/1999/02/22-rdf-syntax-ns#"
   xmlns:svg="http://www.w3.org/2000/svg"
   xmlns="http://www.w3.org/2000/svg"
   xmlns:sodipodi="http://sodipodi.sourceforge.net/DTD/sodipodi-0.dtd"
   xmlns:inkscape="http://www.inkscape.org/namespaces/inkscape"
   id="svg2930"
   version="1.1"
   inkscape:version="0.47 r22583"
   width="64"
   height="64"
   sodipodi:docname="icon.svg">
  <metadata
     id="metadata2936">
    <rdf:RDF>
      <cc:Work
         rdf:about="">
        <dc:format>image/svg+xml</dc:format>
        <dc:type
           rdf:resource="http://purl.org/dc/dcmitype/StillImage" />
        <dc:title />
      </cc:Work>
    </rdf:RDF>
  </metadata>
  <defs
     id="defs2934">
    <inkscape:perspective
       sodipodi:type="inkscape:persp3d"
       inkscape:vp_x="0 : 0.5 : 1"
       inkscape:vp_y="0 : 1000 : 0"
       inkscape:vp_z="1 : 0.5 : 1"
       inkscape:persp3d-origin="0.5 : 0.33333333 : 1"
       id="perspective2938" />
    <inkscape:perspective
       id="perspective2957"
       inkscape:persp3d-origin="0.5 : 0.33333333 : 1"
       inkscape:vp_z="1 : 0.5 : 1"
       inkscape:vp_y="0 : 1000 : 0"
       inkscape:vp_x="0 : 0.5 : 1"
       sodipodi:type="inkscape:persp3d" />
  </defs>
  <sodipodi:namedview
     pagecolor="#ffffff"
     bordercolor="#666666"
     borderopacity="1"
     objecttolerance="10"
     gridtolerance="10"
     guidetolerance="10"
     inkscape:pageopacity="0"
     inkscape:pageshadow="2"
     inkscape:window-width="1173"
     inkscape:window-height="621"
     id="namedview2932"
     showgrid="false"
     inkscape:zoom="3.6875"
     inkscape:cx="32"
     inkscape:cy="23.351533"
     inkscape:window-x="0"
     inkscape:window-y="0"
     inkscape:window-maximized="0"
     inkscape:current-layer="svg2930" />
  <path
     sodipodi:type="arc"
     style="fill:#c8b7b7"
     id="path2944-3"
     sodipodi:cx="30.508474"
     sodipodi:cy="23.59322"
     sodipodi:rx="32.40678"
     sodipodi:ry="21.423729"
     d="m 62.915255,23.59322 a 32.40678,21.423729 0 1 1 -64.8135609,0 32.40678,21.423729 0 1 1 64.8135609,0 z"
     transform="matrix(0.9832636,0,0,1,2.2733141,1.6271192)" />
  <path
     sodipodi:type="arc"
     style="fill:#ffd42a"
     id="path2944"
     sodipodi:cx="30.508474"
     sodipodi:cy="23.59322"
     sodipodi:rx="32.40678"
     sodipodi:ry="21.423729"
     d="m 62.915255,23.59322 a 32.40678,21.423729 0 1 1 -64.8135609,0 32.40678,21.423729 0 1 1 64.8135609,0 z"
     transform="matrix(0.9665272,0,0,0.97468354,2.1059497,1.1396696)" />
  <path
     style="fill:#000000"
     d="M 52.104111,37.91487 C 42.361483,34.017812 16.489021,33.112963 9.8272287,36.436303 6.5440491,38.074169 2,38.541068 2,37.240547 2,35.764495 5.8865379,34.083937 10.810807,33.430709 15.351235,32.8284 15.84984,32.5008 16.398062,29.759692 17.415458,24.672708 17.072483,20.548497 15.437982,18.21492 14.059598,16.247 14.052174,15.917209 15.37484,15.409655 c 0.824381,-0.316345 1.275449,-1.157411 1.002373,-1.869036 -0.531809,-1.385872 1.138769,-1.96661 8.862576,-3.080868 2.606885,-0.376077 4.529996,-1.0232295 4.273582,-1.4381168 -0.256415,-0.4148873 0.36758,-1.5089089 1.386655,-2.431159 1.737082,-1.5720378 1.901748,-1.5647671 2.635177,0.1163532 C 33.965476,7.6930728 34.246076,8.8375 34.158759,9.25 34.071441,9.6625 36.406146,10 39.34699,10 c 5.885259,0 10.386331,2.646612 9.302875,5.470053 C 48.180012,16.694472 46.169195,17 38.580606,17 28.651228,17 19,18.519535 19,20.082864 19,20.587289 19.511957,21 20.137681,21 c 0.790695,0 0.940528,1.677471 0.491265,5.5 -0.629008,5.351877 -0.580138,5.5 1.814601,5.5 2.316641,0 2.478484,-0.362004 2.758736,-6.170631 0.413348,-8.567259 2.600419,-9.03864 2.998264,-0.646218 0.294347,6.209145 0.350604,6.321911 3.299453,6.613758 l 3,0.296909 -0.323125,-7.296909 C 33.892874,18.383534 34.030606,17.681625 35.314372,19 37.107794,20.841771 38.102465,30.497535 36.648543,31.951457 35.917152,32.682848 36.678751,33 39.16648,33 l 3.56648,0 -0.491113,-6.863955 c -0.322488,-4.507193 -0.104324,-7.103005 0.635392,-7.560175 1.786548,-1.104147 3.342767,4.367623 2.881707,10.132276 -0.410635,5.134201 -0.372837,5.217006 2.662252,5.832173 C 55.489309,35.97292 59,37.133844 59,38.038544 c 0,1.206944 -3.736897,1.139925 -6.895889,-0.123674 z"
     id="path2878" />
  <path
     style="fill:#000000"
     d="M 40.916667,12.360806 C 41.725768,11.660178 28.445823,12.126391 24.5,12.937139 c -2.597571,0.533722 -0.493927,0.640018 6,0.303176 5.5,-0.285287 10.1875,-0.681066 10.416667,-0.879509 z"
     id="path2942" />
  <g
     style="font-size:14px;font-style:normal;font-variant:normal;font-weight:bold;font-stretch:normal;text-align:start;line-height:125%;writing-mode:lr-tb;text-anchor:start;fill:#000000;fill-opacity:1;stroke:none;font-family:Verdana;-inkscape-font-specification:Verdana Bold"
     id="text2898"
     transform="matrix(0.93323678,0,0,1.2131401,2.5432208,-11.591425)">
    <path
       d="m 16.431426,50.567051 -2.741211,10.178711 -2.905274,0 -1.8251951,-6.63086 -1.7773438,6.63086 -2.9052734,0 -2.7412109,-10.178711 2.7412109,0 1.5654297,7.006836 1.8730469,-7.006836 2.6181637,0 1.78418,7.006836 1.640625,-7.006836 2.672852,0"
       id="path2903" />
    <path
       d="m 25.550566,60.745762 -7.362304,0 0,-10.178711 7.362304,0 0,1.96875 -4.750976,0 0,1.756836 4.409179,0 0,1.96875 -4.409179,0 0,2.515625 4.750976,0 0,1.96875"
       id="path2905" />
    <path
       d="m 36.467558,57.628574 c -10e-6,0.49219 -0.10027,0.931969 -0.300781,1.319336 -0.195973,0.387372 -0.467132,0.70866 -0.813476,0.963867 -0.401051,0.300782 -0.843107,0.514975 -1.326172,0.642579 -0.478523,0.127604 -1.086921,0.191406 -1.825196,0.191406 l -4.443359,0 0,-10.178711 3.951172,0 c 0.820306,1e-5 1.41959,0.02735 1.797851,0.08203 0.382806,0.0547 0.76106,0.175466 1.134766,0.362305 0.387361,0.195973 0.67447,0.460296 0.861328,0.792969 0.191397,0.328133 0.2871,0.704109 0.28711,1.127929 -1e-5,0.492195 -0.129892,0.927416 -0.389649,1.305664 -0.259774,0.373704 -0.626636,0.665371 -1.100586,0.875 l 0,0.05469 c 0.665356,0.132167 1.191723,0.405604 1.579102,0.820312 0.391917,0.414718 0.58788,0.961593 0.58789,1.640625 m -3.363281,-4.183593 c -7e-6,-0.168613 -0.0433,-0.337232 -0.129883,-0.50586 -0.08204,-0.168612 -0.230149,-0.293937 -0.444336,-0.375976 -0.191412,-0.07291 -0.430669,-0.111646 -0.717773,-0.116211 -0.282557,-0.0091 -0.68132,-0.01366 -1.196289,-0.01367 l -0.246094,0 0,2.15332 0.410156,0 c 0.414709,6e-6 0.767899,-0.0068 1.059571,-0.02051 0.291661,-0.01367 0.521804,-0.05924 0.690429,-0.136718 0.236973,-0.104812 0.391921,-0.239252 0.464844,-0.403321 0.07291,-0.168613 0.109368,-0.362297 0.109375,-0.581054 m 0.642578,4.142578 c -7e-6,-0.323564 -0.06381,-0.571937 -0.191406,-0.745117 -0.123054,-0.177731 -0.334968,-0.309892 -0.635742,-0.396485 -0.205085,-0.05924 -0.487636,-0.09114 -0.847656,-0.0957 -0.360032,-0.0046 -0.736008,-0.0068 -1.12793,-0.0068 l -0.574219,0 0,2.536133 0.191406,0 c 0.738277,2e-6 1.266922,-0.0023 1.585938,-0.0068 0.319004,-0.0046 0.612949,-0.0638 0.881836,-0.177734 0.27343,-0.113931 0.460279,-0.264321 0.560547,-0.451172 0.10481,-0.191404 0.157219,-0.410154 0.157226,-0.65625"
       id="path2907" />
    <path
       d="m 40.931426,60.745762 -2.556641,0 0,-2.686524 2.556641,0 0,2.686524"
       id="path2909" />
    <path
       d="m 53.099394,55.66666 c -1.1e-5,0.947921 -0.216482,1.797855 -0.649414,2.549805 -0.432952,0.747398 -0.979827,1.321616 -1.640625,1.722656 -0.496753,0.300782 -1.041348,0.510417 -1.633789,0.628906 -0.592454,0.11849 -1.294276,0.177735 -2.105469,0.177735 l -3.588867,0 0,-10.178711 3.691407,0 c 0.829421,1e-5 1.544915,0.07065 2.146484,0.211914 0.601555,0.136729 1.107414,0.332692 1.517578,0.587891 0.701814,0.428394 1.253245,1.007169 1.654297,1.736328 0.405588,0.724616 0.608387,1.579107 0.608398,2.563476 m -2.713867,-0.02051 c -8e-6,-0.669916 -0.123055,-1.241855 -0.36914,-1.71582 -0.241545,-0.478508 -0.626635,-0.852206 -1.155274,-1.121094 -0.268887,-0.132153 -0.544602,-0.22102 -0.827148,-0.266601 -0.278001,-0.05012 -0.69955,-0.07519 -1.264649,-0.0752 l -0.663086,0 0,6.371093 0.663086,0 c 0.624344,2e-6 1.082351,-0.02734 1.374024,-0.08203 0.29166,-0.05924 0.57649,-0.16406 0.854492,-0.314453 0.478508,-0.273435 0.829419,-0.638018 1.052734,-1.09375 0.223299,-0.460283 0.334953,-1.027665 0.334961,-1.702149"
       id="path2911" />
    <path
       d="m 62.464629,60.745762 -7.362305,0 0,-10.178711 7.362305,0 0,1.96875 -4.750977,0 0,1.756836 4.40918,0 0,1.96875 -4.40918,0 0,2.515625 4.750977,0 0,1.96875"
       id="path2913" />
  </g>
</svg>
