<?xml version="1.0" encoding="UTF-8" standalone="no"?>
<svg width="16px" height="16px" viewBox="0 0 16 16" version="1.1" xmlns="http://www.w3.org/2000/svg" xmlns:xlink="http://www.w3.org/1999/xlink" xmlns:sketch="http://www.bohemiancoding.com/sketch/ns">
    <title>quotes-2</title>
    <description>Created with Sketch (http://www.bohemiancoding.com/sketch)</description>
    <defs></defs>
    <g id="Page-1" stroke="none" stroke-width="1" fill="none" fill-rule="evenodd" sketch:type="MSPage">
        <g id="Light" sketch:type="MSLayerGroup" transform="translate(-414.000000, -54.000000)">
            <g id="Quotes" transform="translate(414.000000, 3.000000)" sketch:type="MSShapeGroup">
                <g id="Fill-108-+-Fill-109-+-Fill-110" transform="translate(0.000000, 51.000000)">
                    <path d="M15,0 L1,0 C0.448,0 0,0.448 0,1 L0,15 C0,15.552 0.448,16 1,16 L15,16 C15.552,16 16,15.552 16,15 L16,1 C16,0.448 15.552,0 15,0" id="Fill-108" fill="#FFBA00"></path>
                    <path d="M13.9378288,2.02372871 C13.5438288,1.92272871 13.1278288,2.15372871 13.0238288,2.53472871 L12.5848288,4.14772871 L10.4808288,5.79372871 L9.24982879,5.79372871 C8.92682879,5.79372871 8.64082879,5.98972871 8.53882879,6.28072871 L7.84782879,8.24472871 L5.64182879,6.86072871 C5.30882879,6.65172871 4.86082879,6.72772871 4.62482879,7.03172871 L3.14682879,8.92772871 C3.09982879,8.98772871 3.06382879,9.05472871 3.03882879,9.12472871 L2.05582879,11.9227287 L1.07982879,13.7737287 C0.893828785,14.1247287 1.04382879,14.5517287 1.41582879,14.7277287 C1.52282879,14.7787287 1.63682879,14.8027287 1.74982879,14.8027287 C2.02482879,14.8027287 2.28982879,14.6587287 2.42082879,14.4097287 L3.42082879,12.5127287 C3.43682879,12.4827287 3.45082879,12.4517287 3.46182879,12.4197287 L4.42382879,9.68172871 L5.40782879,8.41972871 L7.83582879,9.94372871 C8.03282879,10.0647287 8.27382879,10.0947287 8.49582879,10.0227287 C8.71482879,9.95072871 8.88782879,9.78472871 8.96182879,9.57472871 L9.79182879,7.21672871 L10.7498288,7.21672871 C10.9238288,7.21672871 11.0928288,7.15872871 11.2278288,7.05372871 L13.7278288,5.09872871 C13.8498288,5.00272871 13.9368288,4.87272871 13.9768288,4.72772871 L14.4768288,2.88972871 C14.5808288,2.50972871 14.3388288,2.12172871 13.9378288,2.02372871" id="Fill-109" fill-opacity="0.1" fill="#000000"></path>
                    <path d="M13.9378288,1.02372871 C13.5438288,0.922728707 13.1278288,1.15372871 13.0238288,1.53472871 L12.5848288,3.14772871 L10.4808288,4.79372871 L9.24982879,4.79372871 C8.92682879,4.79372871 8.64082879,4.98972871 8.53882879,5.28072871 L7.84782879,7.24472871 L5.64182879,5.86072871 C5.30882879,5.65172871 4.86082879,5.72772871 4.62482879,6.03172871 L3.14682879,7.92772871 C3.09982879,7.98772871 3.06382879,8.05472871 3.03882879,8.12472871 L2.05582879,10.9217287 L1.07982879,12.7737287 C0.893828785,13.1247287 1.04382879,13.5517287 1.41582879,13.7277287 C1.52282879,13.7787287 1.63682879,13.8027287 1.74982879,13.8027287 C2.02482879,13.8027287 2.28982879,13.6587287 2.42082879,13.4097287 L3.42082879,11.5127287 C3.43682879,11.4827287 3.45082879,11.4517287 3.46182879,11.4197287 L4.42382879,8.68172871 L5.40782879,7.41972871 L7.83582879,8.94372871 C8.03282879,9.06472871 8.27382879,9.09472871 8.49582879,9.02272871 C8.71482879,8.95072871 8.88782879,8.78472871 8.96182879,8.57472871 L9.79182879,6.21672871 L10.7498288,6.21672871 C10.9238288,6.21672871 11.0928288,6.15872871 11.2278288,6.05372871 L13.7278288,4.09772871 C13.8498288,4.00272871 13.9368288,3.87272871 13.9768288,3.72772871 L14.4768288,1.88972871 C14.5808288,1.50972871 14.3388288,1.12172871 13.9378288,1.02372871" id="Fill-110" fill="#FFFFFF"></path>
                </g>
            </g>
        </g>
    </g>
</svg>