<?xml version="1.0" encoding="UTF-8" standalone="no"?>
<svg width="15px" height="16px" viewBox="0 0 15 16" version="1.1" xmlns="http://www.w3.org/2000/svg" xmlns:xlink="http://www.w3.org/1999/xlink" xmlns:sketch="http://www.bohemiancoding.com/sketch/ns">
    <!-- Generator: Sketch 3.0.4 (8054) - http://www.bohemiancoding.com/sketch -->
    <title>fg-n-16</title>
    <desc>Created with Sketch.</desc>
    <defs></defs>
    <g id="Page-1" stroke="none" stroke-width="1" fill="none" fill-rule="evenodd" sketch:type="MSPage">
        <path d="M7.9303719,3.11428572 C9.96401476,4.13571429 11.0490816,6.20642857 10.2586633,8.36071429 C9.39652041,10.7092857 6.73981633,11.9328571 4.32509184,11.095 C3.83461224,10.9242857 3.39412245,10.6785714 3.00652041,10.3807143 C3.60277551,11.4364286 4.57866327,12.295 5.83710204,12.7314286 C8.56842857,13.6792857 11.5721633,12.2957143 12.5473265,9.63928571 C13.5217653,6.98357143 12.2313267,4.44785714 9.50000014,3.5 C9.05443891,3.345 8.38028006,3.14928572 7.9303719,3.11428572 Z" id="Path-2" fill="#ED9700" sketch:type="MSShapeGroup"></path>
        <path d="M1,11 L1,12 L14,12 L14,11 L1,11 Z M0,9 L0,10 L15,10 L15,9 L0,9 Z M0,7 L0,8 L15,8 L15,7 L0,7 Z M1,5 L1,6 L15,6 L15,5 L1,5 Z M2,3 L2,4 L14,4 L14,3 L2,3 Z M4,1 L4,2 L15,2 L15,1 L4,1 Z M1,15 L1,16 L11,16 L11,15 L1,15 Z M2,13 L2,14 L13,14 L13,13 L2,13 Z" id="Rectangle-192" fill-opacity="0.7" fill="#7195EB" sketch:type="MSShapeGroup"></path>
        <rect id="Rectangle-206" fill-opacity="0" fill="#D8D8D8" sketch:type="MSShapeGroup" x="4" y="0" width="11" height="1"></rect>
    </g>
</svg>