<?xml version="1.0" encoding="UTF-8" standalone="no"?>
<svg width="17px" height="16px" viewBox="0 0 17 16" version="1.1" xmlns="http://www.w3.org/2000/svg" xmlns:xlink="http://www.w3.org/1999/xlink" xmlns:sketch="http://www.bohemiancoding.com/sketch/ns">
    <!-- Generator: Sketch 3.0.4 (8054) - http://www.bohemiancoding.com/sketch -->
    <title>ovc-16</title>
    <desc>Created with Sketch.</desc>
    <defs></defs>
    <g id="Page-1" stroke="none" stroke-width="1" fill="none" fill-rule="evenodd" sketch:type="MSPage">
        <path d="M14,6 C15.6568542,6 17,7.34314575 17,9 C17,10.6568542 15.6568542,12 14,12 L2,12 C0.8954305,12 0,11.1045695 0,10 C0,9.08791125 0.610548243,8.31842369 1.44524148,8.07794056 C1.55477117,8.046384 1.78453618,8.01147089 1.78453618,8.01147089 C1.78453618,8.01147089 1.92720489,8 2,8 C2.01185389,8 2.0236837,8.00010313 2.03548857,8.00030853 L2.03548857,8.00030853 C2.01210121,7.83690878 2,7.66986758 2,7.5 C2,5.56700338 3.56700338,4 5.5,4 C5.8333359,4 6.15578814,4.0465985 6.46119787,4.13363665 C7.13180888,2.86472356 8.46492093,2 10,2 C12.209139,2 14,3.790861 14,6 Z" id="Oval-2" fill-opacity="0.702000022" fill="#7196EA" sketch:type="MSShapeGroup"></path>
    </g>
</svg>