<?xml version="1.0" encoding="UTF-8" standalone="no"?>
<svg width="22px" height="16px" viewBox="0 0 22 16" version="1.1" xmlns="http://www.w3.org/2000/svg" xmlns:xlink="http://www.w3.org/1999/xlink" xmlns:sketch="http://www.bohemiancoding.com/sketch/ns">
    <!-- Generator: Sketch 3.0.4 (8054) - http://www.bohemiancoding.com/sketch -->
    <title>skc-n-16</title>
    <desc>Created with Sketch.</desc>
    <defs></defs>
    <g id="Page-1" stroke="none" stroke-width="1" fill="none" fill-rule="evenodd" sketch:type="MSPage">
        <path d="M21.992,1.54 L20.445,1.565 L20.002,0 L19.547,1.561 L18,1.522 L19.265,2.461 L18.752,4.002 L19.99,3.022 L21.22,4.013 L20.719,2.468 L21.992,1.54 Z M2.48893634,13.559 L2.04502113,12 L1.58872201,13.555 L0.0388291756,13.517 L1.30675011,14.453 L0.793294524,15.988 L2.03263723,15.011 L3.26531167,15.999 L2.76328738,14.459 L4.03882918,13.535 L2.48893634,13.559 Z M2.941,6.96191246 L4.489,5.73891246 L6.028,6.97591246 L5.401,5.04791246 L6.994,3.89091246 L5.059,3.92191246 L4.505,1.96991246 L3.935,3.91691246 L2,3.86791246 L3.583,5.03991246 L2.941,6.96191246 Z" id="Fill-168" fill-opacity="0.702000022" fill="#7196EA" sketch:type="MSShapeGroup"></path>
        <path d="M12.0658006,1.773 C14.9129006,3.203 16.3075435,6.489 15.2009577,9.505 C13.9939577,12.793 10.274572,14.506 6.89395775,13.333 C6.20728632,13.094 5.5906006,12.75 5.04795775,12.333 C5.88271489,13.811 7.24895775,15.013 9.01077203,15.624 C12.8346292,16.951 17.0398577,15.014 18.4050863,11.295 C19.7693006,7.577 17.7772435,3.487 13.9533863,2.16 C13.3296006,1.943 12.695672,1.822 12.0658006,1.773 Z" id="Path" fill="#ED9700" sketch:type="MSShapeGroup"></path>
    </g>
</svg>