<?xml version="1.0" encoding="UTF-8" standalone="no"?>
<svg width="19px" height="19px" viewBox="0 0 19 19" version="1.1" xmlns="http://www.w3.org/2000/svg" xmlns:xlink="http://www.w3.org/1999/xlink" xmlns:sketch="http://www.bohemiancoding.com/sketch/ns">
    <!-- Generator: Sketch 3.0.4 (8054) - http://www.bohemiancoding.com/sketch -->
    <title>bkn-plus-sn-d-19</title>
    <desc>Created with Sketch.</desc>
    <defs></defs>
    <g id="Page-1" stroke="none" stroke-width="1" fill="none" fill-rule="evenodd" sketch:type="MSPage">
        <path d="M10.1053291,4.78320367 C9.91943928,4.76127771 9.73027277,4.75 9.53846154,4.75 C6.90448812,4.75 4.76923077,6.87664744 4.76923077,9.5 C4.76923077,11.8491609 6.48146201,13.8000212 8.73076923,14.1821644 L8.73076923,14.1821644 L8.73076923,14.0987782 C7.64965371,13.3477165 6.94230769,12.0998799 6.94230769,10.6875 C6.94230769,9.00786139 7.94267744,7.56092952 9.38238392,6.90547518 C9.48734693,6.14227959 9.73793239,5.42529074 10.1053291,4.78320367 Z M12.5342795,2.45150009 L13.040255,0.563174015 L11.3196996,0.102152591 L10.3768913,3.62076086 C10.5491558,3.6449097 10.7190563,3.67639134 10.8862644,3.71487864 C11.3551326,3.2038005 11.9125268,2.77465091 12.5342795,2.45150009 Z M8.73076923,16.6463938 L8.10278396,18.9900667 L6.38222858,18.5290453 L7.32398435,15.0143649 L7.32398435,15.0143649 C7.76894974,15.1917779 8.24039138,15.3173151 8.73076923,15.3834668 L8.73076923,16.6463938 L8.73076923,16.6463938 Z M3.63666702,10.3438268 L0.140800808,11.2805414 L0.601822232,13.0010967 L4.15297234,12.0495689 C3.8995742,11.5195668 3.72272592,10.9462587 3.63666702,10.3438268 L3.63666702,10.3438268 Z M4.85603721,13.1753482 L2.29046764,15.7409178 L3.55000159,17.0004517 L6.15868021,14.3917731 C5.6656574,14.0532354 5.22633713,13.642675 4.85603721,13.1753482 L4.85603721,13.1753482 Z M9.18087939,3.57300478 L8.21792392,-0.0207939591 L6.49736854,0.440227465 L7.4357648,3.94236999 C7.98360076,3.7366651 8.56986098,3.60900638 9.18087939,3.57300478 L9.18087939,3.57300478 Z M6.25931035,4.54062032 L3.63428989,1.91559986 L2.37475594,3.17513382 L4.93126483,5.7316427 C5.31097783,5.27167723 5.75877564,4.86957443 6.25931035,4.54062032 L6.25931035,4.54062032 Z M4.20629637,6.84177683 L0.632673892,5.88422757 L0.171652468,7.60478295 L3.65475781,8.53807822 C3.75296908,7.93762755 3.94160707,7.36742127 4.20629637,6.84177683 L4.20629637,6.84177683 Z" id="Rectangle-2" fill="#ED9700" sketch:type="MSShapeGroup"></path>
        <path d="M17.2124381,14.2858192 L16.8846507,13.0625 L25.6153846,13.0625 L25.6153846,13.0574391 C27.5014496,12.9579238 29,11.4032588 29,9.5 C29,7.53248558 27.398557,5.9375 25.4230769,5.9375 L25.4230769,5.9375 C25.4230769,3.31414744 23.2878196,1.1875 20.6538462,1.1875 C18.8235596,1.1875 17.2340798,2.21435923 16.4345052,3.72119352 C16.0703628,3.61783572 15.6859005,3.5625 15.2884615,3.5625 C12.9837348,3.5625 11.1153846,5.42331651 11.1153846,7.71875 C11.1153846,7.92046775 11.129813,8.11882917 11.1576979,8.31286638 L11.1576979,8.31286638 C11.1436229,8.31262246 11.1295181,8.3125 11.1153846,8.3125 C11.0285905,8.3125 10.8584854,8.32612168 10.8584854,8.32612168 C10.8584854,8.32612168 10.5845349,8.367581 10.4539418,8.40505441 C9.4587306,8.69062813 8.73076923,9.60439461 8.73076923,10.6875 C8.73076923,11.9991763 9.7983979,13.0625 11.1153846,13.0625 C11.1801221,13.0625 11.2442571,13.0599307 11.3076923,13.0548889 L11.3076923,13.0548889 L11.3076923,13.0625 L16.5911715,13.0625 L15.7133105,13.2977221 L16.0607573,14.5944111 L16.0607573,14.5944111 L14.7640683,14.2469644 L14.4554763,15.3986452 L15.7521654,15.7460919 L14.8029231,16.6953342 L15.646012,17.538423 L16.5952542,16.5891808 L16.942701,17.8858698 L18.0943818,17.5772779 L17.746935,16.2805889 L19.043624,16.6280356 L19.352216,15.4763548 L18.0555269,15.1289081 L19.0047692,14.1796658 L18.1616803,13.336577 L17.2124381,14.2858192 Z M12.2124381,15.2858192 L11.8649913,13.9891302 L10.7133105,14.2977221 L11.0607573,15.5944111 L11.0607573,15.5944111 L9.76406829,15.2469644 L9.45547635,16.3986452 L10.7521654,16.7460919 L9.80292312,17.6953342 L10.646012,18.538423 L11.5952542,17.5891808 L11.942701,18.8858698 L13.0943818,18.5772779 L12.746935,17.2805889 L14.043624,17.6280356 L14.352216,16.4763548 L13.0555269,16.1289081 L14.0047692,15.1796658 L13.1616803,14.336577 L12.2124381,15.2858192 L12.2124381,15.2858192 Z" id="Oval-2" fill-opacity="0.702000022" fill="#7196EA" sketch:type="MSShapeGroup"></path>
    </g>
</svg>