<?xml version="1.0" encoding="UTF-8" standalone="no"?>
<svg width="19px" height="19px" viewBox="0 0 19 19" version="1.1" xmlns="http://www.w3.org/2000/svg" xmlns:xlink="http://www.w3.org/1999/xlink" xmlns:sketch="http://www.bohemiancoding.com/sketch/ns">
    <!-- Generator: Sketch 3.0.4 (8054) - http://www.bohemiancoding.com/sketch -->
    <title>bkn-n-19</title>
    <desc>Created with Sketch.</desc>
    <defs></defs>
    <g id="Page-1" stroke="none" stroke-width="1" fill="none" fill-rule="evenodd" sketch:type="MSPage">
        <path d="M12.7972809,5.96851132 C11.9716105,3.38156914 9.68280485,1.37445901 6.77946154,1.021375 C6.6805,1.0095 6.58153846,1.007125 6.48376923,1 C8.17803846,2.3810625 9.14857692,4.555375 8.86003846,6.868625 C8.41173077,10.4703125 5.09115385,13.027 1.44746154,12.582875 C0.941923077,12.5223125 0.459038462,12.4 0,12.2385 C1.13507692,13.8190625 2.90803846,14.9471875 5.01007692,15.2025 C5.3366576,15.2423262 5.66084995,15.2599621 5.98110423,15.2566029 L5.98110423,15.2566029 C5.95552385,15.070542 5.94230769,14.8805582 5.94230769,14.6875 C5.94230769,13.0078614 6.94267744,11.5609295 8.38238392,10.9054752 C8.7124804,8.50531362 10.482826,6.56215023 12.7972809,5.96851132 Z" id="Rectangle-2" fill="#ED9700" sketch:type="MSShapeGroup"></path>
        <path d="M24.4763255,9.81286444 C26.4223972,9.81286444 28,11.4201596 28,13.4028587 C28,15.3855578 26.4223972,16.992853 24.47632,16.992853 L10.3816277,16.992853 C9.08424659,16.992853 8.03251139,15.9213228 8.03251139,14.5995235 C8.03251139,13.508059 8.74963581,12.5872403 9.73003155,12.2994627 C9.85868054,12.2617 10.1285529,12.2199207 10.1285529,12.2199207 C10.1285529,12.2199207 10.2961256,12.2061939 10.3816277,12.2061939 C10.3955508,12.2061939 10.4094456,12.2063174 10.4233111,12.2065631 L10.4233111,12.2065631 C10.3958413,12.0110284 10.3816277,11.8111361 10.3816277,11.6078616 C10.3816277,9.29471264 12.2221643,7.41953493 14.4925812,7.41953493 C14.8841036,7.41953493 15.2628425,7.47529771 15.621564,7.57945319 C16.4092357,6.06098963 17.9750533,5.02620542 19.7780929,5.02620542 C22.3728551,5.02620542 24.4763255,7.16926566 24.4763255,9.81286444 Z" id="Oval-2" fill-opacity="0.702000022" fill="#7196EA" sketch:type="MSShapeGroup"></path>
    </g>
</svg>