<?xml version="1.0" encoding="UTF-8" standalone="no"?>
<svg width="19px" height="19px" viewBox="0 0 19 19" version="1.1" xmlns="http://www.w3.org/2000/svg" xmlns:xlink="http://www.w3.org/1999/xlink" xmlns:sketch="http://www.bohemiancoding.com/sketch/ns">
    <!-- Generator: Sketch 3.0.4 (8054) - http://www.bohemiancoding.com/sketch -->
    <title>bl-19</title>
    <desc>Created with Sketch.</desc>
    <defs></defs>
    <g id="Page-1" stroke="none" stroke-width="1" fill="none" fill-rule="evenodd" sketch:type="MSPage">
        <path d="M7.72983333,9.70425 L8.16261111,9.573625 L8.0465,10.062875 L8.24916667,10.124625 L8.36527778,9.6341875 L8.68194444,9.9928125 L8.82972222,9.825375 L8.51411111,9.46675 L8.94583333,9.3349375 L8.892,9.10575 L8.45922222,9.2375625 L8.57533333,8.747125 L8.37266667,8.6865625 L8.25655556,9.1758125 L7.93988889,8.8171875 L7.79105556,8.9858125 L8.10772222,9.34325 L7.67494444,9.4750625 L7.72983333,9.70425 Z M9.78183333,11.457 L10.4299444,11.2610625 L10.2568333,11.9949375 L10.5608333,12.0875625 L10.735,11.3525 L11.2089444,11.8904375 L11.4316667,11.6386875 L10.9566667,11.10075 L11.6058333,10.903625 L11.5245556,10.5604375 L10.8753889,10.756375 L11.0495556,10.0225 L10.7455556,9.929875 L10.5713889,10.6649375 L10.0963889,10.127 L9.87366667,10.37875 L10.3486667,10.9166875 L9.6995,11.1138125 L9.78183333,11.457 Z M12.2581667,13.606375 L11.4717778,13.8450625 L11.6828889,12.9544375 L11.3145,12.8428125 L11.1033889,13.7334375 L10.5281111,13.0815 L10.2578889,13.3866875 L10.8342222,14.038625 L10.0478333,14.2773125 L10.146,14.694125 L10.9323889,14.4554375 L10.7223333,15.3460625 L11.0907222,15.4576875 L11.3007778,14.5670625 L11.8771111,15.219 L12.1462778,14.9138125 L11.571,14.261875 L12.3573889,14.0231875 L12.2581667,13.606375 Z M10.0309444,16.6594375 L9.11577778,16.9373125 L9.36066667,15.903 L8.93211111,15.772375 L8.68722222,16.807875 L8.018,16.05025 L7.7045,16.4053125 L8.37372222,17.16175 L7.45961111,17.439625 L7.57466667,17.924125 L8.48877778,17.6474375 L8.24388889,18.68175 L8.67244444,18.812375 L8.91733333,17.776875 L9.58655556,18.5345 L9.90005556,18.1794375 L9.23083333,17.4218125 L10.1449444,17.145125 L10.0309444,16.6594375 Z M6.47583333,16.584625 L5.45194444,16.8945625 L5.72638889,15.73675 L5.24716667,15.5906875 L4.97272222,16.7496875 L4.22327778,15.9018125 L3.87177778,16.2984375 L4.62122222,17.1463125 L3.59733333,17.4574375 L3.72611111,18.000125 L4.75,17.6901875 L4.47555556,18.848 L4.95583333,18.9940625 L5.22922222,17.8350625 L5.97866667,18.6829375 L6.33016667,18.2863125 L5.58072222,17.43725 L6.60461111,17.1273125 L6.47583333,16.584625 Z M2.91966667,14.33075 L4.18738889,13.946 L4.028,13.273875 L2.76027778,13.658625 L3.10016667,12.2229375 L2.50588889,12.0424375 L2.166,13.478125 L1.23711111,12.4271875 L0.802222222,12.9188125 L1.73111111,13.9709375 L0.462333333,14.3545 L0.621722222,15.0278125 L1.8905,14.6430625 L1.55061111,16.07875 L2.14383333,16.2580625 L2.48477778,14.8235625 L3.41261111,15.8733125 L3.8475,15.3816875 L2.91966667,14.33075 Z M1.3585,11.3204375 L2.0995,11.544875 L2.52383333,9.754125 L3.68283333,11.065125 L4.22538889,10.45 L3.06744444,9.139 L4.64972222,8.65925 L4.45127778,7.8196875 L2.86794444,8.2994375 L3.29227778,6.5086875 L2.55022222,6.2830625 L2.12588889,8.075 L0.967944444,6.7628125 L0.424333333,7.3779375 L1.58333333,8.6889375 L0,9.1686875 L0.1995,10.0094375 L1.78177778,9.5285 L1.3585,11.3204375 Z M7.22738889,3.6301875 L5.64405556,4.111125 L6.06838889,2.3191875 L5.32633333,2.0935625 L4.902,3.8855 L3.743,2.5745 L3.20044444,3.1884375 L4.35944444,4.500625 L2.77611111,4.980375 L2.97561111,5.8199375 L4.55788889,5.3401875 L4.13355556,7.1309375 L4.87561111,7.3565625 L5.29994444,5.564625 L6.45894444,6.875625 L7.0015,6.2616875 L5.8425,4.9506875 L7.42583333,4.46975 L7.22738889,3.6301875 Z M19.0063333,5.464875 L18.7667222,4.453125 L16.8582778,5.0314375 L17.3702222,2.8725625 L16.4761667,2.6018125 L15.9652778,4.7606875 L14.5687778,3.180125 L13.9153889,3.921125 L15.3108333,5.5016875 L13.4034444,6.08 L13.6430556,7.09175 L15.5504444,6.5134375 L15.0395556,8.671125 L15.9336111,8.9430625 L16.4445,6.7841875 L17.841,8.36475 L18.4943889,7.62375 L17.0978889,6.0431875 L19.0063333,5.464875 Z M12.7785556,1.5354375 L11.1962778,2.016375 L11.6206111,0.2244375 L10.8785556,0 L10.4542222,1.79075 L9.29522222,0.47975 L8.75266667,1.0936875 L9.91061111,2.405875 L8.32833333,2.885625 L8.52677778,3.7251875 L10.1101111,3.2454375 L9.68577778,5.0361875 L10.4278333,5.2618125 L10.8521667,3.469875 L12.0101111,4.7820625 L12.5537222,4.1669375 L11.3947222,2.8559375 L12.9780556,2.375 L12.7785556,1.5354375 Z" id="Fill-208" fill-opacity="0.702000022" fill="#7196EA" sketch:type="MSShapeGroup"></path>
    </g>
</svg>