<?xml version="1.0" encoding="UTF-8" standalone="no"?>
<svg width="18px" height="19px" viewBox="0 0 18 19" version="1.1" xmlns="http://www.w3.org/2000/svg" xmlns:xlink="http://www.w3.org/1999/xlink" xmlns:sketch="http://www.bohemiancoding.com/sketch/ns">
    <!-- Generator: Sketch 3.0.4 (8054) - http://www.bohemiancoding.com/sketch -->
    <title>fg-d-19</title>
    <desc>Created with Sketch.</desc>
    <defs></defs>
    <g id="Page-1" stroke="none" stroke-width="1" fill="none" fill-rule="evenodd" sketch:type="MSPage">
        <circle id="Oval-196" fill="#ED9700" sketch:type="MSShapeGroup" cx="9" cy="10" r="6"></circle>
        <path d="M1,18 L1,19 L13,19 L13,18 L1,18 Z M3,16 L3,17 L15,17 L15,16 L3,16 Z M3,4 L3,5 L15,5 L15,4 L3,4 Z M4,2 L4,3 L16,3 L16,2 L4,2 Z M1,14 L1,15 L17,15 L17,14 L1,14 Z M0,12 L0,13 L18,13 L18,12 L0,12 Z M1,6 L1,7 L17,7 L17,6 L1,6 Z M0,10 L0,11 L18,11 L18,10 L0,10 Z M0,8 L0,9 L18,9 L18,8 L0,8 Z M5,0 L5,1 L18,1 L18,0 L5,0 Z" id="Rectangle-199" fill-opacity="0.7" fill="#7195EB" sketch:type="MSShapeGroup"></path>
    </g>
</svg>