<?xml version="1.0" encoding="UTF-8" standalone="no"?>
<svg width="26px" height="16px" viewBox="0 0 26 16" version="1.1" xmlns="http://www.w3.org/2000/svg" xmlns:xlink="http://www.w3.org/1999/xlink" xmlns:sketch="http://www.bohemiancoding.com/sketch/ns">
    <!-- Generator: Sketch 3.0.4 (8054) - http://www.bohemiancoding.com/sketch -->
    <title>bkn-n-16</title>
    <desc>Created with Sketch.</desc>
    <defs></defs>
    <g id="Page-1" stroke="none" stroke-width="1" fill="none" fill-rule="evenodd" sketch:type="MSPage">
        <path d="M10.6699279,4.99587842 C9.92901824,2.90874471 8.05049913,1.30671779 5.686,1.018 C5.603,1.008 5.52,1.006 5.438,1 C6.859,2.163 7.673,3.994 7.431,5.942 C7.055,8.975 4.27,11.128 1.214,10.754 C0.79,10.703 0.385,10.6 0,10.464 C0.952,11.795 2.439,12.745 4.202,12.96 C5.51618537,13.1209126 6.78425882,12.8516556 7.86265948,12.2634069 L7.86265948,12.2634069 C7.63050883,11.7953896 7.5,11.2680233 7.5,10.7101751 C7.5,9.29574257 8.33901979,8.07727363 9.54651554,7.52531208 C9.6774187,6.56964988 10.078372,5.70002284 10.6699279,4.99587842 Z" id="Rectangle-9" fill="#ED9700" sketch:type="MSShapeGroup"></path>
        <path d="M23,7 C24.6568542,7 26,8.34314575 26,10 C26,11.6568542 24.6568542,13 23,13 L11,13 C9.8954305,13 9,12.1045695 9,11 C9,10.0879113 9.61054824,9.31842369 10.4452415,9.07794056 C10.5547712,9.046384 10.7845362,9.01147089 10.7845362,9.01147089 C10.7845362,9.01147089 10.9272049,9 11,9 C11.0118539,9 11.0236837,9.00010313 11.0354886,9.00030853 L11.0354886,9.00030853 C11.0121012,8.83690878 11,8.66986758 11,8.5 C11,6.56700338 12.5670034,5 14.5,5 C14.8333359,5 15.1557881,5.0465985 15.4611979,5.13363665 C16.1318089,3.86472356 17.4649209,3 19,3 C21.209139,3 23,4.790861 23,7 Z" id="Oval-4" fill-opacity="0.702000022" fill="#7196EA" sketch:type="MSShapeGroup"></path>
    </g>
</svg>