<?xml version="1.0" encoding="UTF-8" standalone="no"?>
<svg width="16px" height="16px" viewBox="0 0 16 16" version="1.1" xmlns="http://www.w3.org/2000/svg" xmlns:xlink="http://www.w3.org/1999/xlink" xmlns:sketch="http://www.bohemiancoding.com/sketch/ns">
    <title>Outlook</title>
    <description>Created with Sketch (http://www.bohemiancoding.com/sketch)</description>
    <defs></defs>
    <g id="Page-1" stroke="none" stroke-width="1" fill="none" fill-rule="evenodd" sketch:type="MSPage">
        <g id="Light" sketch:type="MSLayerGroup" transform="translate(0.000000, -104.000000)">
            <g id="Social" sketch:type="MSShapeGroup">
                <g id="Outlook" transform="translate(0.000000, 104.000000)">
                    <rect id="Rectangle-25" fill="#006CC9" x="0" y="0" width="16" height="16" rx="1"></rect>
                    <path d="M3.846,6.55763867 C4.14,6.1809623 4.529,5.99359493 5.014,5.99359493 C5.471,5.99359493 5.842,6.17319578 6.124,6.53336829 C6.407,6.89354079 6.548,7.3672987 6.548,7.95658363 C6.549,8.56237243 6.402,9.04972175 6.109,9.42057322 C5.816,9.79045388 5.434,9.97685044 4.962,9.97685044 C4.503,9.97685044 4.129,9.79724959 3.839,9.4380479 C3.55,9.07884621 3.405,8.61188401 3.405,8.03424886 C3.405,7.42554762 3.552,6.93334422 3.846,6.55763867 L3.846,6.55763867 Z M2,12.5356415 L8,14 L8,2 L2,3.35132383 L2,12.5356415 Z M4.976,9.22641015 C5.225,9.22641015 5.423,9.11864964 5.569,8.90312863 C5.715,8.68760761 5.788,8.38762566 5.788,8.0051244 C5.788,7.60611928 5.717,7.29545836 5.575,7.07314164 C5.434,6.85179573 5.24,6.74015196 4.994,6.74015196 C4.741,6.74015196 4.539,6.85470818 4.39,7.08284979 C4.241,7.3109914 4.166,7.61291499 4.166,7.98959136 C4.166,8.3711218 4.241,8.67207457 4.39,8.89439129 C4.539,9.11670801 4.734,9.22641015 4.976,9.22641015 L4.976,9.22641015 Z M9,7.35 L8.999,12.04 L13.366,12.04 C13.701,12.04 13.999,11.846 13.999,11.385 L13.999,5.592 C13.999,5.592 9.913,8.031 10.039,7.955 L9,7.35 Z M10.083,6.673 L14.013,4.335 C14.013,4.059 13.752,3.86 13.605,3.86 L9.006,3.86 L9.006,6.166 L9.994,6.673 C10.015,6.679 10.062,6.679 10.083,6.673 L10.083,6.673 Z" id="Fill-18" fill="#FFFFFF"></path>
                </g>
            </g>
        </g>
    </g>
</svg>