<?xml version="1.0" encoding="UTF-8" standalone="no"?>
<svg width="20px" height="14px" viewBox="0 0 20 14" version="1.1" xmlns="http://www.w3.org/2000/svg" xmlns:xlink="http://www.w3.org/1999/xlink" xmlns:sketch="http://www.bohemiancoding.com/sketch/ns">
    <!-- Generator: Sketch 3.2.2 (9983) - http://www.bohemiancoding.com/sketch -->
    <title>disk</title>
    <desc>Created with Sketch.</desc>
    <defs></defs>
    <g id="Page-1" stroke="none" stroke-width="1" fill="none" fill-rule="evenodd" sketch:type="MSPage">
        <path d="M19.9418788,5.55913615 C19.5576674,4.16887623 17.9247692,3.37444198 15.3313426,3.17583342 L15.3313426,3.17583342 C14.6589728,3.07652914 13.9866029,2.67931202 13.6023915,2.08348634 C12.161599,0.395313567 9.95238374,-0.399120677 7.93527416,0.196705006 C6.01421741,0.693226409 4.57342486,2.2820949 3.99710784,4.36748479 L3.99710784,4.36748479 L3.901055,4.86400619 C3.80500216,5.55913615 3.42079081,6.25426612 2.94052663,6.65148324 L2.94052663,6.65148324 C2.74842095,6.75078752 2.55631528,6.94939608 2.3642096,7.04870036 C0.539205699,8.43896029 -0.229216998,9.82922022 0.0589415137,11.1201759 C0.443152862,12.6097401 2.3642096,13.5034786 5.34184756,13.5034786 L6.30237593,13.5034786 C6.78264011,13.8013914 7.45500997,14 8.22343267,14 C9.37606671,14 10.7208064,13.7020872 11.3931763,13.5034786 C12.5458103,13.2055658 15.1392369,12.3118272 15.8116068,10.822263 C18.7892448,9.23339453 20.3260901,7.24730892 19.9418788,5.55913615 L19.9418788,5.55913615 Z M4.86158337,5.06261475 C5.24579472,3.2751377 6.4944816,1.78557349 8.12737983,1.28905209 C9.8563309,0.79253069 11.585282,1.38835637 12.737916,2.7786163 C12.8339689,2.87792058 12.9300217,3.07652914 13.1221274,3.17583342 C11.7773876,3.2751377 10.2405422,3.57305054 8.79974969,3.97026767 C7.35895713,4.36748479 5.91816458,4.96331047 4.76553053,5.55913615 L4.86158337,5.06261475 L4.86158337,5.06261475 Z M11.0089649,12.4111315 C8.70369685,13.1062615 7.16685146,12.9076529 6.68658727,12.5104358 C6.59053444,12.4111315 6.59053444,12.4111315 6.59053444,12.3118272 C6.4944816,12.0139144 6.78264011,11.6166973 7.35895713,11.2194801 C8.03132699,10.7229587 9.0879082,10.3257416 10.3365951,9.9285245 C11.3931763,9.63061166 12.3537047,9.4320031 13.2181802,9.4320031 C14.0826557,9.4320031 14.6589728,9.63061166 14.7550256,9.9285245 L14.7550256,10.1271331 L14.7550256,10.1271331 C14.5629199,10.822263 13.314233,11.8153058 11.0089649,12.4111315 L11.0089649,12.4111315 Z M15.715554,9.63061166 C15.5234483,9.03478597 14.8510784,8.53826457 13.2181802,8.53826457 C12.3537047,8.53826457 11.2971235,8.73687313 10.1444894,9.03478597 C8.79974969,9.4320031 7.64711565,9.9285245 6.87869295,10.4250459 C5.7260589,11.2194801 5.53395323,11.9146101 5.63000607,12.5104358 C3.1326323,12.5104358 1.3076284,11.9146101 1.01946988,10.9215673 C0.827364211,10.1271331 1.49973407,9.13409025 2.94052663,8.04174317 C4.47737202,6.8500918 6.68658727,5.857049 9.18396104,5.16191903 C11.1050178,4.56609335 13.0260745,4.36748479 14.7550256,4.36748479 C17.1563465,4.36748479 18.7892448,4.96331047 19.0774033,5.95635328 C19.1734561,6.8500918 17.9247692,8.33965601 15.715554,9.63061166 L15.715554,9.63061166 Z" id="disk" fill="#FFFFFF" sketch:type="MSShapeGroup"></path>
    </g>
</svg>