<?xml version="1.0" encoding="UTF-8" standalone="no"?>
<svg width="16px" height="16px" viewBox="0 0 16 16" version="1.1" xmlns="http://www.w3.org/2000/svg" xmlns:xlink="http://www.w3.org/1999/xlink" xmlns:sketch="http://www.bohemiancoding.com/sketch/ns">
    <title>quotes-3</title>
    <description>Created with Sketch (http://www.bohemiancoding.com/sketch)</description>
    <defs></defs>
    <g id="Page-1" stroke="none" stroke-width="1" fill="none" fill-rule="evenodd" sketch:type="MSPage">
        <g id="Light" sketch:type="MSLayerGroup" transform="translate(-414.000000, -183.000000)">
            <g id="Quotes" transform="translate(414.000000, 3.000000)" sketch:type="MSShapeGroup">
                <g id="Fill-104-+-Fill-105" transform="translate(0.000000, 180.000000)">
                    <path d="M15,0 L1,0 C0.448,0 0,0.448 0,1 L0,15 C0,15.552 0.448,16 1,16 L15,16 C15.552,16 16,15.552 16,15 L16,1 C16,0.448 15.552,0 15,0" id="Fill-104" fill="#665752"></path>
                    <path d="M14.4768535,13.563 L13.9768535,11.626 C13.9368535,11.472 13.8498535,11.336 13.7278535,11.234 L11.2278535,9.172 C11.0928535,9.061 10.9238535,9.001 10.7498535,9.001 L9.79085349,9.001 L8.96185349,6.513 C8.88785349,6.292 8.71485349,6.118 8.49585349,6.042 C8.27385349,5.965 8.03285349,5.997 7.83585349,6.125 L5.40785349,7.732 L4.42385349,6.4 L3.46185349,3.513 C3.45085349,3.48 3.43685349,3.447 3.42085349,3.415 L2.42085349,1.415 C2.28885349,1.152 2.02485349,1 1.74885349,1 C1.63685349,1 1.52285349,1.026 1.41485349,1.08 C1.04385349,1.265 0.893853488,1.715 1.07985349,2.086 L2.05585349,4.038 L3.03885349,6.988 C3.06385349,7.063 3.09985349,7.133 3.14685349,7.196 L4.62385349,9.196 C4.86085349,9.516 5.30885349,9.596 5.64185349,9.376 L7.84785349,7.916 L8.53885349,9.988 C8.64085349,10.294 8.92685349,10.5 9.24985349,10.5 L10.4808535,10.5 L12.5848535,12.236 L13.0238535,13.938 C13.1278535,14.339 13.5428535,14.583 13.9378535,14.477 C14.3388535,14.373 14.5808535,13.964 14.4768535,13.563" id="Fill-105" fill="#FFFFFF"></path>
                </g>
            </g>
        </g>
    </g>
</svg>