<svg enable-background="new 0 0 120 120" viewBox="0 0 120 120" xmlns="http://www.w3.org/2000/svg"><path d="M95.715 82.907c-.365 0-.713-.066-1.066-.107h-66.057c-.283.05-.568.087-.867.087-2.853 0-5.165-2.312-5.165-5.164s2.312-5.166 5.165-5.166c2.453 0 4.497 1.715 5.025 4.008l3.082-1.541c-.982-1.484-1.559-3.262-1.559-5.176 0-5.197 4.214-9.414 9.412-9.414 2.665 0 5.06 1.118 6.771 2.897-.044-.515-.078-1.037-.078-1.565 0-9.58 7.765-17.344 17.345-17.344s17.342 7.764 17.342 17.344c0 3.164-.858 6.118-2.338 8.672l3.847 1.779c.681-4.456 4.497-7.878 9.143-7.878 5.128 0 9.286 4.156 9.286 9.284s-4.159 9.284-9.288 9.284z" fill="#fff" opacity=".4"/><path d="M27.479 29.879l-10.507-10.507-2.478 2.477 10.49 10.49c.778-.888 1.617-1.699 2.495-2.46z" fill="#ff6a2a"/><path d="M52.432 24.865l3.688-13.761-3.382-.907-3.705 13.822c1.141.211 2.279.475 3.399.846z" fill="#ff6a2a"/><path d="M63.799 32.494l10.648-10.646-2.477-2.477-10.62 10.621c.886.78 1.69 1.624 2.449 2.502z" fill="#ff6a2a"/><path d="M19.99 40.975l-14.336-3.842-.906 3.383 14.35 3.847c.223-1.139.511-2.272.892-3.388z" fill="#ff6a2a"/><path d="M39.502 24.043l-3.86-14.407-3.383.907 3.857 14.397c1.11-.375 2.238-.676 3.386-.897z" fill="#ff6a2a"/><path d="M19.125 54.326l-14.377 3.854.906 3.383 14.385-3.854c-.382-1.107-.685-2.234-.914-3.383z" fill="#ff6a2a"/><path d="M51.92 36.405c.867.501 1.665 1.077 2.393 1.713 1.668-.95 3.436-1.745 5.303-2.329-1.406-1.573-3.073-2.962-5.002-4.077-9.743-5.624-22.199-2.285-27.825 7.458-3.869 6.699-3.499 14.682.279 20.844 1.007-1.695 2.262-3.218 3.721-4.527-1.895-4.232-1.816-9.278.682-13.604 4.134-7.159 13.291-9.612 20.449-5.478z" fill="#ff6a2a"/><path d="M95.648 57.756c-1.467 0-2.881.215-4.231.584-1.665-11.598-11.614-20.524-23.676-20.524-10.483 0-19.372 6.748-22.616 16.127-.474-.041-.951-.072-1.437-.072-7.492 0-13.766 5.164-15.497 12.121l-.429-.042c-6.557 0-11.871 5.313-11.871 11.87 0 6.505 5.235 11.771 11.72 11.854l-.02.017h67.584l-.017-.03.49.026c8.815 0 15.967-7.148 15.967-15.965s-7.15-15.966-15.967-15.966zm.068 25.154c-.373 0-.725-.067-1.087-.11h-66.025c-.288.05-.579.089-.878.089-2.853 0-5.164-2.312-5.164-5.166s2.311-5.164 5.164-5.164c2.454 0 4.498 1.713 5.025 4.008l3.082-1.543c-.981-1.484-1.56-3.26-1.56-5.174 0-5.199 4.214-9.414 9.413-9.414 2.664 0 5.059 1.119 6.771 2.896-.044-.516-.079-1.037-.079-1.566 0-9.578 7.765-17.344 17.345-17.344s17.344 7.766 17.344 17.344c0 3.164-.86 6.119-2.34 8.674l3.848 1.774c.684-4.454 4.496-7.877 9.143-7.877 5.127 0 9.286 4.158 9.286 9.287s-4.16 9.286-9.288 9.286z" fill="#0a6fcd"/></svg>