<svg enable-background="new 0 0 120 120" viewBox="0 0 120 120" xmlns="http://www.w3.org/2000/svg"><path d="M18.65 49.523c2.476 1.378 5.095 2.233 7.739 2.649 3.4-4.203 8.512-6.956 14.29-7.169 2.572-5.678 7.035-10.305 12.58-13.103 1.108-9.159-3.281-18.497-11.839-23.264-1.955-1.087-4-1.845-6.075-2.331 9.946 6.003 13.436 18.835 7.737 29.064-5.82 10.454-19.015 14.209-29.468 8.388-1.273-.709-2.442-1.53-3.512-2.438 2.033 3.316 4.907 6.176 8.548 8.204z" fill="#0a6fcd"/><path d="M93.361 52.195c-1.469 0-2.881.214-4.23.584-1.666-11.598-11.613-20.523-23.677-20.523-10.481 0-19.371 6.748-22.615 16.127-.474-.042-.952-.072-1.437-.072-7.492 0-13.767 5.163-15.496 12.121l-.43-.043c-6.557 0-11.871 5.314-11.871 11.87 0 6.505 5.234 11.773 11.717 11.856l-.017.015h67.585l-.016-.028.486.024c8.816 0 15.968-7.149 15.968-15.966s-7.15-15.965-15.967-15.965zm.069 25.153c-.365 0-.712-.065-1.064-.106h-66.06c-.282.048-.569.087-.866.087-2.853 0-5.164-2.312-5.164-5.165s2.311-5.165 5.164-5.165c2.452 0 4.496 1.715 5.024 4.006l3.083-1.541c-.981-1.486-1.561-3.262-1.561-5.175 0-5.198 4.215-9.413 9.414-9.413 2.663 0 5.058 1.118 6.771 2.897-.047-.518-.08-1.038-.08-1.567 0-9.579 7.766-17.344 17.347-17.344s17.342 7.765 17.342 17.344c0 3.164-.86 6.12-2.338 8.672l3.847 1.777c.685-4.454 4.498-7.877 9.142-7.877 5.127 0 9.285 4.159 9.285 9.286s-4.159 9.284-9.286 9.284z" fill="#03447d"/><path d="M58.468 100.29c-3.349-1.601-7.354-.201-8.951 3.13-1.596 3.335-.178 7.334 3.172 8.938s7.353.201 8.948-3.131.177-7.334-3.169-8.937z" fill="#03447d"/><path d="M62.275 91.494l-.017 14.458-11.166-4.698 11.183-9.76z" fill="#03447d"/><path d="M93.43 77.35c-.365 0-.713-.066-1.066-.107h-66.057c-.283.049-.568.087-.867.087-2.853 0-5.165-2.313-5.165-5.165s2.312-5.166 5.165-5.166c2.453 0 4.497 1.716 5.025 4.009l3.082-1.542c-.982-1.484-1.559-3.261-1.559-5.176 0-5.196 4.214-9.413 9.412-9.413 2.665 0 5.06 1.118 6.771 2.897-.044-.515-.078-1.037-.078-1.566 0-9.579 7.765-17.343 17.345-17.343s17.342 7.764 17.342 17.343c0 3.164-.859 6.119-2.338 8.673l3.846 1.779c.681-4.456 4.498-7.878 9.143-7.878 5.129 0 9.286 4.156 9.286 9.283s-4.158 9.285-9.287 9.285z" fill="#fff" opacity=".4"/></svg>