<?xml version="1.0" encoding="UTF-8" standalone="no"?>
<svg width="16px" height="16px" viewBox="0 0 16 16" version="1.1" xmlns="http://www.w3.org/2000/svg" xmlns:xlink="http://www.w3.org/1999/xlink" xmlns:sketch="http://www.bohemiancoding.com/sketch/ns">
    <title>direkt</title>
    <description>Created with Sketch (http://www.bohemiancoding.com/sketch)</description>
    <defs></defs>
    <g id="Page-1" stroke="none" stroke-width="1" fill="none" fill-rule="evenodd" sketch:type="MSPage">
        <g id="Light" sketch:type="MSLayerGroup" transform="translate(-183.000000, -1.000000)">
            <g id="Direkt" transform="translate(183.000000, 1.000000)" sketch:type="MSShapeGroup">
                <path d="M0,0 L0,16 L3,16 L3,12 L4,12 L4,16 L7,16 L7,12 L8,12 L8,13 L12,13 L12,12 L13,12 L13,16 L16,16 L16,0 L0,0 Z" id="Fill-37" fill="#FFCC02"></path>
                <path d="M4,8 L12,8 L12,7 L4,7 L4,8 Z M4,6 L12,6 L12,5 L4,5 L4,6 Z M4,4 L12,4 L12,3 L4,3 L4,4 Z" id="Fill-38" fill="#393837"></path>
            </g>
        </g>
    </g>
</svg>