<?xml version="1.0" encoding="UTF-8" standalone="no"?>
<svg width="16px" height="16px" viewBox="0 0 16 16" version="1.1" xmlns="http://www.w3.org/2000/svg" xmlns:xlink="http://www.w3.org/1999/xlink" xmlns:sketch="http://www.bohemiancoding.com/sketch/ns">
    <title>VK</title>
    <description>Created with Sketch (http://www.bohemiancoding.com/sketch)</description>
    <defs></defs>
    <g id="Page-1" stroke="none" stroke-width="1" fill="none" fill-rule="evenodd" sketch:type="MSPage">
        <g id="Light" sketch:type="MSLayerGroup" transform="translate(0.000000, -26.000000)">
            <g id="Social" sketch:type="MSShapeGroup">
                <g id="VK" transform="translate(0.000000, 26.000000)">
                    <rect id="Rectangle-25" fill="#3C6795" x="0" y="0" width="16" height="16" rx="1"></rect>
                    <path d="M9.602,10.044 C9.521,10.193 9.373,10.312 9.157,10.402 C8.946,10.492 8.714,10.539 8.462,10.542 C8.211,10.546 7.794,10.547 7.213,10.547 L7.062,10.547 L7.062,8.55 L7.514,8.55 C7.823,8.55 8.12,8.552 8.403,8.555 C8.687,8.559 8.91,8.584 9.071,8.63 C9.308,8.699 9.476,8.802 9.575,8.94 C9.674,9.078 9.723,9.275 9.723,9.53 C9.723,9.724 9.683,9.895 9.602,10.044 L9.602,10.044 Z M7.062,5.47 L7.256,5.47 C7.663,5.47 7.979,5.472 8.204,5.478 C8.428,5.483 8.616,5.515 8.768,5.572 C8.937,5.637 9.055,5.735 9.121,5.868 C9.188,6.001 9.221,6.134 9.221,6.267 C9.221,6.439 9.192,6.591 9.135,6.722 C9.077,6.853 8.955,6.959 8.768,7.042 C8.634,7.103 8.453,7.139 8.222,7.15 C7.992,7.161 7.713,7.166 7.386,7.166 L7.062,7.166 L7.062,5.47 Z M11.416,8.27 C11.108,7.943 10.691,7.728 10.166,7.624 L10.166,7.581 C10.54,7.415 10.83,7.185 11.035,6.889 C11.24,6.592 11.343,6.25 11.343,5.863 C11.343,5.529 11.268,5.232 11.119,4.972 C10.969,4.711 10.742,4.504 10.436,4.35 C10.141,4.203 9.843,4.107 9.542,4.064 C9.242,4.021 8.768,4 8.12,4 L5,4 L5,11.99 L8.508,11.99 C9.092,11.99 9.573,11.939 9.953,11.839 C10.332,11.739 10.68,11.597 10.997,11.361 C11.271,11.16 11.486,10.906 11.642,10.601 C11.799,10.296 11.877,9.95 11.877,9.562 C11.877,9.027 11.723,8.596 11.416,8.27 L11.416,8.27 Z" id="Fill-10" fill="#FFFFFF"></path>
                </g>
            </g>
        </g>
    </g>
</svg>