<?xml version="1.0" encoding="UTF-8" standalone="no"?>
<svg width="16px" height="16px" viewBox="0 0 16 16" version="1.1" xmlns="http://www.w3.org/2000/svg" xmlns:xlink="http://www.w3.org/1999/xlink" xmlns:sketch="http://www.bohemiancoding.com/sketch/ns">
    <title>moikrug-light</title>
    <description>Created with Sketch (http://www.bohemiancoding.com/sketch)</description>
    <defs></defs>
    <g id="Page-1" stroke="none" stroke-width="1" fill="none" fill-rule="evenodd" sketch:type="MSPage">
        <g id="Dark" sketch:type="MSLayerGroup" transform="translate(-388.000000, -3.000000)" fill="#6498C5">
            <g id="Moi-krug" transform="translate(388.000000, 4.000000)" sketch:type="MSShapeGroup">
                <path d="M5.07,9.286 C3.75,9.286 2.681,10.356 2.681,11.675 C2.681,12.995 3.75,14.065 5.07,14.065 C6.39,14.065 7.459,12.995 7.459,11.675 C7.459,10.356 6.39,9.286 5.07,9.286 M4.779,7.032 C4.779,5.713 3.709,4.643 2.39,4.643 C1.07,4.643 0,5.713 0,7.032 C0,8.352 1.07,9.422 2.39,9.422 C3.709,9.422 4.779,8.352 4.779,7.032 M10.431,9.199 C9.112,9.199 8.042,10.269 8.042,11.589 C8.042,12.908 9.112,13.978 10.431,13.978 C11.751,13.978 12.821,12.908 12.821,11.589 C12.821,10.269 11.751,9.199 10.431,9.199 M13.112,4.643 C11.793,4.643 10.723,5.713 10.723,7.032 C10.723,8.352 11.793,9.422 13.112,9.422 C14.432,9.422 15.501,8.352 15.501,7.032 C15.501,5.713 14.432,4.643 13.112,4.643 M10.431,4.779 C11.751,4.779 12.821,3.709 12.821,2.389 C12.821,1.07 11.751,0 10.431,0 C9.112,0 8.042,1.07 8.042,2.389 C8.042,3.709 9.112,4.779 10.431,4.779 M5.07,0 C3.75,0 2.681,1.07 2.681,2.389 C2.681,3.709 3.75,4.779 5.07,4.779 C6.39,4.779 7.459,3.709 7.459,2.389 C7.459,1.07 6.39,0 5.07,0" id="Fill-2"></path>
            </g>
        </g>
    </g>
</svg>