<?xml version="1.0" encoding="UTF-8" standalone="no"?>
<svg width="26px" height="16px" viewBox="0 0 26 16" version="1.1" xmlns="http://www.w3.org/2000/svg" xmlns:xlink="http://www.w3.org/1999/xlink" xmlns:sketch="http://www.bohemiancoding.com/sketch/ns">
    <!-- Generator: Sketch 3.0.4 (8054) - http://www.bohemiancoding.com/sketch -->
    <title>bkn-sn-n-16</title>
    <desc>Created with Sketch.</desc>
    <defs></defs>
    <g id="Page-1" stroke="none" stroke-width="1" fill="none" fill-rule="evenodd" sketch:type="MSPage">
        <path d="M10.4802836,3.52593521 C9.63886651,1.67140331 7.86968021,0.284638847 5.686,0.018 C5.603,0.008 5.52,0.006 5.438,0 C6.859,1.163 7.673,2.994 7.431,4.942 C7.055,7.975 4.27,10.128 1.214,9.754 C0.79,9.703 0.385,9.6 2.84217094e-14,9.464 C0.952,10.795 2.439,11.745 4.202,11.96 C5.64835858,12.1370963 7.03886346,11.7931438 8.18213572,11.076352 L8.18213572,11.076352 C7.75341412,10.4954938 7.5,9.77734093 7.5,9 C7.5,7.58556748 8.33901979,6.36709854 9.54651554,5.81513699 C9.66290356,4.96544295 9.9927733,4.18376197 10.4802836,3.52593521 Z" id="Rectangle-7" fill="#ED9700" sketch:type="MSShapeGroup"></path>
        <path d="M15.241181,14.9659258 L14.4393398,15.767767 L13.732233,15.0606602 L14.5340742,14.258819 L13.4387388,13.9653248 L13.6975579,12.999399 L14.7928932,13.2928932 L14.499399,12.1975579 L15.4653248,11.9387388 L15.758819,13.0340742 L16.5606602,12.232233 L17.267767,12.9393398 L16.4659258,13.741181 L17.5612612,14.0346752 L17.3024421,15.000601 L16.2071068,14.7071068 L16.500601,15.8024421 L15.5346752,16.0612612 L15.241181,14.9659258 Z M21.241181,13.9659258 L20.4393398,14.767767 L19.732233,14.0606602 L20.5340742,13.258819 L19.4387388,12.9653248 L19.6975579,11.999399 L20.7928932,12.2928932 L20.499399,11.1975579 L21.236695,11 L11,11 C9.8954305,11 9,10.1045695 9,9 C9,8.08791125 9.61054824,7.31842369 10.4452415,7.07794056 C10.5547712,7.046384 10.7845362,7.01147089 10.7845362,7.01147089 C10.7845362,7.01147089 10.9272049,7 11,7 C11.0118539,7 11.0236837,7.00010313 11.0354886,7.00030853 L11.0354886,7.00030853 C11.0121012,6.83690878 11,6.66986758 11,6.5 C11,4.56700338 12.5670034,3 14.5,3 C14.8333359,3 15.1557881,3.0465985 15.4611979,3.13363665 C16.1318089,1.86472356 17.4649209,1 19,1 C21.209139,1 23,2.790861 23,5 C24.6568542,5 26,6.34314575 26,8 C26,9.65685425 24.6568542,11 23,11 L21.4817397,11 L21.758819,12.0340742 L22.5606602,11.232233 L23.267767,11.9393398 L22.4659258,12.741181 L23.5612612,13.0346752 L23.3024421,14.000601 L22.2071068,13.7071068 L22.500601,14.8024421 L21.5346752,15.0612612 L21.241181,13.9659258 L21.241181,13.9659258 Z" id="Oval-2" fill-opacity="0.702000022" fill="#7196EA" sketch:type="MSShapeGroup"></path>
    </g>
</svg>