<?xml version="1.0" encoding="UTF-8" standalone="no"?>
<svg width="26px" height="16px" viewBox="0 0 26 16" version="1.1" xmlns="http://www.w3.org/2000/svg" xmlns:xlink="http://www.w3.org/1999/xlink" xmlns:sketch="http://www.bohemiancoding.com/sketch/ns">
    <!-- Generator: Sketch 3.0.4 (8054) - http://www.bohemiancoding.com/sketch -->
    <title>bkn-minus-ra-d-16</title>
    <desc>Created with Sketch.</desc>
    <defs></defs>
    <g id="Page-1" stroke="none" stroke-width="1" fill="none" fill-rule="evenodd" sketch:type="MSPage">
        <path d="M9.92031832,4.49024489 C9.350326,4.17771775 8.6959171,4 8,4 C5.790861,4 4,5.790861 4,8 C4,10.209139 5.790861,12 8,12 C8.34580019,12 8.68135167,11.95612 9.00139007,11.8736245 L9.00139007,11.8736245 C8.09386432,11.241256 7.5,10.1899802 7.5,9 C7.5,7.58556748 8.33901979,6.36709854 9.54651554,5.81513699 C9.61021732,5.35008032 9.7378701,4.90539777 9.92031832,4.49024489 Z M11.7928932,12.5 L13.3033009,14.0104076 L14.363961,12.9497475 L13.9142136,12.5 L11.7928932,12.5 L11.7928932,12.5 Z M3.04936882,8.70537719 L0.117308281,9.49102045 L0.505536849,10.9399092 L3.48105339,10.1426219 C3.26891401,9.69599772 3.12103639,9.21293338 3.04936882,8.70537719 L3.04936882,8.70537719 Z M4.06561247,11.0858939 L1.91889895,13.2326074 L2.97955912,14.2932676 L5.15830273,12.114524 C4.74446478,11.8281649 4.37592589,11.4809794 4.06561247,11.0858939 L4.06561247,11.0858939 Z M6.13537733,12.6407389 L5.34991573,15.5721215 L6.79880447,15.9603501 L7.59633081,12.9839412 C7.08365503,12.9429835 6.59278041,12.8246926 6.13537733,12.6407389 L6.13537733,12.6407389 Z M8.80484206,12.9355631 L9.58758945,15.8568161 L11.0364782,15.4685876 L10.2341645,12.4743121 C9.79120112,12.6959279 9.31073945,12.8536991 8.80484206,12.9355631 L8.80484206,12.9355631 Z M10.1426219,3.48105339 L10.9399092,0.505536849 L9.49102045,0.117308281 L8.70537719,3.04936882 C9.21293338,3.12103639 9.69599772,3.26891401 10.1426219,3.48105339 L10.1426219,3.48105339 Z M7.69793486,3.00897423 L6.89537347,0.0137743446 L5.44648473,0.402002912 L6.22907677,3.32267617 C6.69001872,3.14806182 7.18350411,3.03962849 7.69793486,3.00897423 L7.69793486,3.00897423 Z M5.2426101,3.82839654 L3.05025253,1.63603897 L1.98959236,2.69669914 L4.12852734,4.83563412 C4.44676697,4.44674345 4.82244527,4.10668021 5.2426101,3.82839654 L5.2426101,3.82839654 Z M3.5256879,5.76583551 L0.531412435,4.96352181 L0.143183867,6.41241055 L3.0644369,7.19515794 C3.14630089,6.68926055 3.30407208,6.20879888 3.5256879,5.76583551 L3.5256879,5.76583551 Z" id="Rectangle-2" fill="#ED9700" sketch:type="MSShapeGroup"></path>
        <path d="M23,5 C24.6568542,5 26,6.34314575 26,8 C26,9.65685425 24.6568542,11 23,11 L11,11 C9.8954305,11 9,10.1045695 9,9 C9,8.08791125 9.61054824,7.31842369 10.4452415,7.07794056 C10.5547712,7.046384 10.7845362,7.01147089 10.7845362,7.01147089 C10.7845362,7.01147089 10.9272049,7 11,7 C11.0118539,7 11.0236837,7.00010313 11.0354886,7.00030853 L11.0354886,7.00030853 C11.0121012,6.83690878 11,6.66986758 11,6.5 C11,4.56700338 12.5670034,3 14.5,3 C14.8333359,3 15.1557881,3.0465985 15.4611979,3.13363665 C16.1318089,1.86472356 17.4649209,1 19,1 C21.209139,1 23,2.790861 23,5 Z M19,16 C19.5522847,16 20,15.5522847 20,15 L20,12 C18.5,13.5 18,14.4477153 18,15 C18,15.5522847 18.4477153,16 19,16 Z" id="Oval-2" fill-opacity="0.702000022" fill="#7196EA" sketch:type="MSShapeGroup"></path>
    </g>
</svg>