<?xml version="1.0" encoding="UTF-8" standalone="no"?>
<svg width="17px" height="16px" viewBox="0 0 17 16" version="1.1" xmlns="http://www.w3.org/2000/svg" xmlns:xlink="http://www.w3.org/1999/xlink" xmlns:sketch="http://www.bohemiancoding.com/sketch/ns">
    <!-- Generator: Sketch 3.0.4 (8054) - http://www.bohemiancoding.com/sketch -->
    <title>ovc-minus-ra-16</title>
    <desc>Created with Sketch.</desc>
    <defs></defs>
    <g id="Page-1" stroke="none" stroke-width="1" fill="none" fill-rule="evenodd" sketch:type="MSPage">
        <path d="M14,4 C15.6568542,4 17,5.34314575 17,7 C17,8.65685425 15.6568542,10 14,10 L2,10 C0.8954305,10 0,9.1045695 0,8 C0,7.08791125 0.610548243,6.31842369 1.44524148,6.07794056 C1.55477117,6.046384 1.78453618,6.01147089 1.78453618,6.01147089 C1.78453618,6.01147089 1.92720489,6 2,6 C2.01185389,6 2.0236837,6.00010313 2.03548857,6.00030853 L2.03548857,6.00030853 C2.01210121,5.83690878 2,5.66986758 2,5.5 C2,3.56700338 3.56700338,2 5.5,2 C5.8333359,2 6.15578814,2.0465985 6.46119787,2.13363665 C7.13180888,0.864723562 8.46492093,0 10,0 C12.209139,0 14,1.790861 14,4 Z M8,15 C8.55228475,15 9,14.5522847 9,14 L9,11 C7.5,12.5 7,13.4477153 7,14 C7,14.5522847 7.44771525,15 8,15 Z" id="Oval-2" fill-opacity="0.702000022" fill="#7196EA" sketch:type="MSShapeGroup"></path>
    </g>
</svg>