<svg enable-background="new 0 0 120 120" viewBox="0 0 120 120" xmlns="http://www.w3.org/2000/svg"><path d="M84.216 77.619c2.029-2.63 3.651-5.639 4.711-8.973h-9.538c-1.877 3.889-4.906 6.979-8.543 8.973h13.37z" fill="#ff6a2a"/><path d="M53.492 88.034c1.497.401 2.997.642 4.495.802h6.258c4.698-.514 9.147-2.188 13.012-4.763h-32.407c2.576 1.741 5.463 3.109 8.642 3.961z" fill="#ff6a2a"/><path d="M51.304 77.619c-3.76-2.064-6.704-5.23-8.512-8.973h-9.565c1.035 3.25 2.654 6.276 4.723 8.973h13.354z" fill="#ff6a2a"/><path d="M80.298 66.404h9.241c.697-3.018.904-6.033.66-8.973h-8.909c.292 2.482.132 5.061-.556 7.624-.123.461-.283.904-.436 1.349z" fill="#ff6a2a"/><path d="M41.852 66.404c-.971-2.822-1.331-5.877-.967-8.973h-8.971c-.248 3.061.018 6.079.694 8.973h9.244z" fill="#ff6a2a"/><path d="M89.926 55.187c-.509-3.146-1.498-6.182-2.959-8.973h-10.738c2.272 2.546 3.875 5.638 4.655 8.973h9.042z" fill="#ff6a2a"/><path d="M41.276 55.187l.143-.667c.857-3.198 2.443-5.997 4.514-8.305h-10.787c-.976 1.869-1.779 3.859-2.347 5.978-.267.998-.475 1.996-.635 2.995l9.112-.001z" fill="#ff6a2a"/><path d="M72.248 32.755c-1.166-.482-2.357-.919-3.607-1.255-6.484-1.737-13.036-1.139-18.785 1.255h22.392z" fill="#ff6a2a"/><path d="M76.613 34.999h-31.082c-3.607 2.265-6.743 5.3-9.099 8.973h11.868c4.889-3.943 11.514-5.595 18.046-3.845 2.844.763 5.375 2.104 7.525 3.845h11.79c-2.294-3.575-5.367-6.653-9.048-8.973z" fill="#ff6a2a"/><path d="M17.278 102.422h58.943c1.163 0 2.107.942 2.107 2.104s-.944 2.105-2.107 2.105h-58.943c-1.163 0-2.104-.941-2.104-2.105s.941-2.104 2.104-2.104z" fill="#0a6fcd"/><path d="M24.277 91.287h67.438c1.467 0 2.65.939 2.65 2.104s-1.186 2.105-2.65 2.105h-67.438c-1.463 0-2.65-.941-2.65-2.105s1.187-2.104 2.65-2.104z" fill="#0a6fcd"/><path d="M15.763 68.646h90.133c1.778 0 3.221.942 3.221 2.105s-1.441 2.104-3.221 2.104h-90.133c-1.779 0-3.22-.94-3.22-2.104s1.44-2.105 3.22-2.105z" fill="#0a6fcd"/><path d="M17.944 46.214h86.171c1.742 0 3.156.94 3.156 2.105 0 1.162-1.414 2.104-3.156 2.104h-86.171c-1.746 0-3.157-.942-3.157-2.104 0-1.165 1.411-2.105 3.157-2.105z" fill="#0a6fcd"/><path d="M22.591 34.999h77.543c1.616 0 2.931.942 2.931 2.105s-1.313 2.105-2.931 2.105h-77.543c-1.619 0-2.932-.942-2.932-2.105s1.313-2.105 2.932-2.105z" fill="#0a6fcd"/><path d="M32.823 24.02h63.265c1.383 0 2.5.944 2.5 2.104s-1.117 2.106-2.5 2.106h-63.265c-1.378 0-2.5-.943-2.5-2.106s1.122-2.104 2.5-2.104z" fill="#0a6fcd"/><path d="M50.795 12.698h54.273c1.074 0 1.939.942 1.939 2.105s-.865 2.105-1.939 2.105h-54.273c-1.071 0-1.938-.944-1.938-2.105s.867-2.105 1.938-2.105z" fill="#0a6fcd"/><path d="M15.763 57.431h90.133c1.778 0 3.221.942 3.221 2.105s-1.441 2.104-3.221 2.104h-90.133c-1.779 0-3.22-.94-3.22-2.104s1.44-2.105 3.22-2.105z" fill="#0a6fcd"/><path d="M20.895 79.863c-1.604 0-2.902.941-2.902 2.104s1.299 2.104 2.902 2.104h23.955c-1.817-1.229-3.482-2.639-4.964-4.211h-18.991v.003z" fill="#0a6fcd"/><path d="M102.188 79.863h-19.885c-1.519 1.601-3.223 2.996-5.046 4.21h24.931c1.604 0 2.903-.942 2.903-2.104s-1.3-2.106-2.903-2.106z" fill="#0a6fcd"/><path d="M64.361 79.863c-2.139.353-4.357.371-6.587 0h-17.888c1.481 1.572 3.146 2.982 4.964 4.21h32.407c1.823-1.214 3.527-2.609 5.046-4.21h-17.942z" fill="#0a6fcd"/></svg>