<svg enable-background="new 0 0 120 120" viewBox="0 0 120 120" xmlns="http://www.w3.org/2000/svg"><path d="M95.156 42.204c-1.479 0-2.912.192-4.29.519-2.382-12.928-13.686-22.727-27.302-22.727-12.086 0-22.341 7.732-26.166 18.509-.535-.047-1.075-.082-1.624-.082-9.045 0-16.572 6.464-18.237 15.022-6.53.675-11.63 6.196-11.63 12.909 0 7.168 5.812 12.979 12.979 12.979l.168-.009-.013.011h75.87l-.011-.023.254.015c10.25 0 18.562-8.31 18.562-18.56s-8.312-18.563-18.56-18.563zm-.052 30.392c-.429 0-.84-.084-1.258-.128h-74.052c-.305.048-.613.095-.935.095-3.445 0-6.238-2.795-6.238-6.238 0-3.447 2.793-6.241 6.238-6.241 2.643 0 4.889 1.646 5.799 3.966l.785-.393c-1.241-1.912-1.969-4.188-1.969-6.639 0-6.746 5.469-12.212 12.214-12.212 2.461 0 4.745.732 6.662 1.984.465-11.283 9.734-20.296 21.13-20.296 11.694 0 21.176 9.48 21.176 21.175 0 3.607-.908 7.004-2.502 9.979l1.271.588c1.124-5.424 5.927-9.5 11.681-9.5 6.594 0 11.934 5.34 11.934 11.931s-5.343 11.929-11.936 11.929z" fill="#0a6fcd"/><path d="M95.087 72.596c-.429 0-.841-.084-1.259-.128h-74.052c-.305.048-.613.095-.935.095-3.445 0-6.238-2.795-6.238-6.238 0-3.447 2.793-6.241 6.238-6.241 2.643 0 4.889 1.646 5.799 3.966l.785-.393c-1.241-1.912-1.969-4.188-1.969-6.639 0-6.746 5.469-12.212 12.214-12.212 2.461 0 4.745.732 6.662 1.984.465-11.283 9.734-20.296 21.13-20.296 11.696 0 21.177 9.48 21.177 21.175 0 3.607-.908 7.004-2.502 9.979l1.271.588c1.124-5.424 5.926-9.5 11.68-9.5 6.594 0 11.934 5.34 11.934 11.931s-5.342 11.929-11.935 11.929z" fill="#fff" opacity=".4"/></svg>