<?xml version="1.0" encoding="UTF-8" standalone="no"?>
<svg width="8px" height="8px" viewBox="0 0 8 8" version="1.1" xmlns="http://www.w3.org/2000/svg" xmlns:xlink="http://www.w3.org/1999/xlink" xmlns:sketch="http://www.bohemiancoding.com/sketch/ns">
    <title>Key</title>
    <description>Created with Sketch (http://www.bohemiancoding.com/sketch)</description>
    <defs></defs>
    <g id="Page-1" stroke="none" stroke-width="1" fill="none" fill-rule="evenodd" sketch:type="MSPage">
        <g id="Light" sketch:type="MSLayerGroup" transform="translate(-30.000000, -56.000000)">
            <g id="Browser" transform="translate(26.000000, 0.000000)" sketch:type="MSShapeGroup">
                <g id="Key" transform="translate(4.000000, 56.000000)">
                    <path d="M4,0 C1.791,0 0,1.791 0,4 C0,6.209 1.791,8 4,8 C6.209,8 8,6.209 8,4 C8,1.791 6.209,0 4,0" id="Fill-34" fill-opacity="0.5" fill="#000000"></path>
                    <path d="M2.5,5 C2.224,5 2,4.552 2,4 C2,3.448 2.224,3 2.5,3 C2.776,3 3,3.448 3,4 C3,4.552 2.776,5 2.5,5 M3.792,3 C3.532,2.405 3.054,2 2.5,2 C1.672,2 1,2.895 1,4 C1,5.105 1.672,6 2.5,6 C3.328,6 4,5.105 4,4 L5,4 L5,5 C5,5.276 5.224,5.5 5.5,5.5 C5.776,5.5 6,5.276 6,5 L6,4 L6.5,4 C6.776,4 7,3.776 7,3.5 C7,3.224 6.776,3 6.5,3 L3.792,3 Z" id="Fill-36" fill="#FFFFFF"></path>
                </g>
            </g>
        </g>
    </g>
</svg>