<?xml version="1.0" encoding="UTF-8" standalone="no"?>
<svg width="16px" height="16px" viewBox="0 0 16 16" version="1.1" xmlns="http://www.w3.org/2000/svg" xmlns:xlink="http://www.w3.org/1999/xlink" xmlns:sketch="http://www.bohemiancoding.com/sketch/ns">
    <title>Yahoo</title>
    <description>Created with Sketch (http://www.bohemiancoding.com/sketch)</description>
    <defs></defs>
    <g id="Page-1" stroke="none" stroke-width="1" fill="none" fill-rule="evenodd" sketch:type="MSPage">
        <g id="Light" sketch:type="MSLayerGroup" transform="translate(0.000000, -130.000000)">
            <g id="Social" sketch:type="MSShapeGroup">
                <g id="Yahoo" transform="translate(0.000000, 130.000000)">
                    <rect id="Rectangle-25" fill="#4F008A" x="0" y="0" width="16" height="16" rx="1"></rect>
                    <path d="M13.005,2 L13.004,2 L13.005,2 C12.405,2.129 11.863,2.134 11.326,2 C10.853,2.838 9.107,5.55 7.996,7.287 C6.869,5.513 5.534,3.464 4.665,2 C3.976,2.14 3.687,2.149 3,2 C4.365,3.955 6.552,7.679 7.296,8.901 L7.196,13.998 C7.196,13.998 7.676,13.922 7.997,13.922 C8.353,13.922 8.795,13.998 8.795,13.998 L8.695,8.901 C10.084,6.586 12.376,2.808 13.005,2" id="Fill-107" fill="#EDEDED"></path>
                </g>
            </g>
        </g>
    </g>
</svg>