<?xml version="1.0" encoding="UTF-8" standalone="no"?>
<svg width="15px" height="16px" viewBox="0 0 15 16" version="1.1" xmlns="http://www.w3.org/2000/svg" xmlns:xlink="http://www.w3.org/1999/xlink" xmlns:sketch="http://www.bohemiancoding.com/sketch/ns">
    <title>radio on</title>
    <description>Created with Sketch (http://www.bohemiancoding.com/sketch)</description>
    <defs></defs>
    <g id="Page-1" stroke="none" stroke-width="1" fill="none" fill-rule="evenodd" sketch:type="MSPage">
        <g id="Light" sketch:type="MSLayerGroup" transform="translate(-440.000000, -28.000000)">
            <g id="Radio" transform="translate(440.000000, 3.000000)" sketch:type="MSShapeGroup">
                <g id="Fill-83-+-Fill-84" transform="translate(0.000000, 25.000000)">
                    <path d="M1,15 L14,15 L14,5 L1,5 L1,15 Z" id="Fill-83" fill="#FFCF00"></path>
                    <path d="M12.5,7 C12.224,7 12,6.776 12,6.5 C12,6.224 12.224,6 12.5,6 C12.776,6 13,6.224 13,6.5 C13,6.776 12.776,7 12.5,7 M12.5,9 C12.224,9 12,8.776 12,8.5 C12,8.224 12.224,8 12.5,8 C12.776,8 13,8.224 13,8.5 C13,8.776 12.776,9 12.5,9 M12.5,11 C12.224,11 12,10.776 12,10.5 C12,10.224 12.224,10 12.5,10 C12.776,10 13,10.224 13,10.5 C13,10.776 12.776,11 12.5,11 M11.5,15 C10.672,15 10,14.328 10,13.5 C10,12.672 10.672,12 11.5,12 C12.328,12 13,12.672 13,13.5 C13,14.328 12.328,15 11.5,15 M8.5,7 C8.224,7 8,6.776 8,6.5 C8,6.224 8.224,6 8.5,6 C8.776,6 9,6.224 9,6.5 C9,6.776 8.776,7 8.5,7 M8.5,9 C8.224,9 8,8.776 8,8.5 C8,8.224 8.224,8 8.5,8 C8.776,8 9,8.224 9,8.5 C9,8.776 8.776,9 8.5,9 M8.5,11 C8.224,11 8,10.776 8,10.5 C8,10.224 8.224,10 8.5,10 C8.776,10 9,10.224 9,10.5 C9,10.776 8.776,11 8.5,11 M6.5,7 C6.224,7 6,6.776 6,6.5 C6,6.224 6.224,6 6.5,6 C6.776,6 7,6.224 7,6.5 C7,6.776 6.776,7 6.5,7 M6.5,9 C6.224,9 6,8.776 6,8.5 C6,8.224 6.224,8 6.5,8 C6.776,8 7,8.224 7,8.5 C7,8.776 6.776,9 6.5,9 M6.5,11 C6.224,11 6,10.776 6,10.5 C6,10.224 6.224,10 6.5,10 C6.776,10 7,10.224 7,10.5 C7,10.776 6.776,11 6.5,11 M6,14 C5.448,14 5,13.552 5,13 C5,12.448 5.448,12 6,12 C6.552,12 7,12.448 7,13 C7,13.552 6.552,14 6,14 M4.5,11 C4.224,11 4,10.776 4,10.5 C4,10.224 4.224,10 4.5,10 C4.776,10 5,10.224 5,10.5 C5,10.776 4.776,11 4.5,11 M3,14 C2.448,14 2,13.552 2,13 C2,12.448 2.448,12 3,12 C3.552,12 4,12.448 4,13 C4,13.552 3.552,14 3,14 M2.5,6 C2.776,6 3,6.224 3,6.5 C3,6.776 2.776,7 2.5,7 C2.224,7 2,6.776 2,6.5 C2,6.224 2.224,6 2.5,6 M3,10.5 C3,10.776 2.776,11 2.5,11 C2.224,11 2,10.776 2,10.5 C2,10.224 2.224,10 2.5,10 C2.776,10 3,10.224 3,10.5 M2.5,9 C2.224,9 2,8.776 2,8.5 C2,8.224 2.224,8 2.5,8 C2.776,8 3,8.224 3,8.5 C3,8.776 2.776,9 2.5,9 M5,8.5 C5,8.776 4.776,9 4.5,9 C4.224,9 4,8.776 4,8.5 C4,8.224 4.224,8 4.5,8 C4.776,8 5,8.224 5,8.5 M4.5,7 C4.224,7 4,6.776 4,6.5 C4,6.224 4.224,6 4.5,6 C4.776,6 5,6.224 5,6.5 C5,6.776 4.776,7 4.5,7 M10.5,10 C10.776,10 11,10.224 11,10.5 C11,10.776 10.776,11 10.5,11 C10.224,11 10,10.776 10,10.5 C10,10.224 10.224,10 10.5,10 M10.5,8 C10.776,8 11,8.224 11,8.5 C11,8.776 10.776,9 10.5,9 C10.224,9 10,8.776 10,8.5 C10,8.224 10.224,8 10.5,8 M10.5,6 C10.776,6 11,6.224 11,6.5 C11,6.776 10.776,7 10.5,7 C10.224,7 10,6.776 10,6.5 C10,6.224 10.224,6 10.5,6 M14,4 L6.213,4 L12.372,1.76 C12.545,1.903 12.758,2 13,2 C13.552,2 14,1.552 14,1 C14,0.448 13.552,0 13,0 C12.512,0 12.125,0.356 12.037,0.818 L3.287,4 L1,4 C0.448,4 0,4.448 0,5 L0,15 C0,15.552 0.448,16 1,16 L14,16 C14.552,16 15,15.552 15,15 L15,5 C15,4.448 14.552,4 14,4" id="Fill-84" fill="#61605F"></path>
                </g>
            </g>
        </g>
    </g>
</svg>