<?xml version="1.0" encoding="UTF-8" standalone="no"?>
<svg width="18px" height="19px" viewBox="0 0 18 19" version="1.1" xmlns="http://www.w3.org/2000/svg" xmlns:xlink="http://www.w3.org/1999/xlink" xmlns:sketch="http://www.bohemiancoding.com/sketch/ns">
    <!-- Generator: Sketch 3.0.4 (8054) - http://www.bohemiancoding.com/sketch -->
    <title>fg-n-19</title>
    <desc>Created with Sketch.</desc>
    <defs></defs>
    <g id="Page-1" stroke="none" stroke-width="1" fill="none" fill-rule="evenodd" sketch:type="MSPage">
        <path d="M8.71366115,3.7042143 C11.2353783,4.97078573 12.5808612,7.53847143 11.6007424,10.2097857 C10.5316853,13.1220143 7.23737224,14.6392429 4.24311388,13.6003 C3.63491918,13.3886143 3.08871184,13.0839286 2.60808531,12.7145857 C3.34744163,14.0236714 4.55754245,15.0883 6.11800653,15.6294714 C9.50485143,16.8048143 13.2294824,15.0891857 14.4386849,11.7952143 C15.646989,8.50212857 14.0468451,5.35784286 10.6600002,4.1825 C10.1075043,3.9903 9.27154728,3.7476143 8.71366115,3.7042143 Z" id="Path-2" fill="#ED9700" sketch:type="MSShapeGroup"></path>
        <path d="M1,18 L1,19 L13,19 L13,18 L1,18 Z M3,16 L3,17 L15,17 L15,16 L3,16 Z M3,4 L3,5 L15,5 L15,4 L3,4 Z M4,2 L4,3 L16,3 L16,2 L4,2 Z M1,14 L1,15 L17,15 L17,14 L1,14 Z M0,12 L0,13 L18,13 L18,12 L0,12 Z M1,6 L1,7 L17,7 L17,6 L1,6 Z M0,10 L0,11 L18,11 L18,10 L0,10 Z M0,8 L0,9 L18,9 L18,8 L0,8 Z M5,0 L5,1 L18,1 L18,0 L5,0 Z" id="Rectangle-200" fill-opacity="0.7" fill="#7195EB" sketch:type="MSShapeGroup"></path>
        <rect id="Rectangle-206" fill-opacity="0" fill="#D8D8D8" sketch:type="MSShapeGroup" x="4.8" y="0" width="13.2" height="1.1875"></rect>
    </g>
</svg>