<?xml version="1.0" encoding="UTF-8" standalone="no"?>
<svg width="19px" height="19px" viewBox="0 0 19 19" version="1.1" xmlns="http://www.w3.org/2000/svg" xmlns:xlink="http://www.w3.org/1999/xlink" xmlns:sketch="http://www.bohemiancoding.com/sketch/ns">
    <!-- Generator: Sketch 3.0.4 (8054) - http://www.bohemiancoding.com/sketch -->
    <title>ovc-plus-ra-19</title>
    <desc>Created with Sketch.</desc>
    <defs></defs>
    <g id="Page-1" stroke="none" stroke-width="1" fill="none" fill-rule="evenodd" sketch:type="MSPage">
        <path d="M15.6470588,5.15243255 C17.4988371,5.15243255 19,6.6746644 19,8.55243255 C19,10.4302007 17.4988371,11.9524325 15.6470588,11.9524325 L2.23529412,11.9524325 C1.00077527,11.9524325 0,10.9376113 0,9.68576588 C0,8.6520653 0.682377449,7.77997939 1.61526989,7.50743185 C1.73768542,7.47166775 1.99448161,7.43209955 1.99448161,7.43209955 C1.99448161,7.43209955 2.15393488,7.41909922 2.23529412,7.41909922 C2.24854259,7.41909922 2.26176414,7.41921609 2.27495782,7.41944888 L2.27495782,7.41944888 C2.248819,7.2342625 2.23529412,7.04494914 2.23529412,6.85243255 C2.23529412,4.66170304 3.98665083,2.88576588 6.14705882,2.88576588 C6.51961071,2.88576588 6.87999851,2.93857751 7.22133879,3.03722075 C7.97084521,1.59911925 9.46079398,0.619099216 11.1764706,0.619099216 C13.6455083,0.619099216 15.6470588,2.64874168 15.6470588,5.15243255 L15.6470588,5.15243255 Z M4.47058824,16.4857659 C5.08784766,16.4857659 5.58823529,15.9783553 5.58823529,15.3524325 L5.58823529,11.9524325 C3.91176471,13.6524325 3.35294118,14.7265098 3.35294118,15.3524325 C3.35294118,15.9783553 3.85332881,16.4857659 4.47058824,16.4857659 Z M8.94117647,17.6190992 C9.5584359,17.6190992 10.0588235,17.1116886 10.0588235,16.4857659 L10.0588235,13.0857659 C8.38235294,14.7857659 7.82352941,15.8598432 7.82352941,16.4857659 C7.82352941,17.1116886 8.32391704,17.6190992 8.94117647,17.6190992 Z M13.4117647,16.4857659 C14.0290241,16.4857659 14.5294118,15.9783553 14.5294118,15.3524325 L14.5294118,11.9524325 C12.8529412,13.6524325 12.2941176,14.7265098 12.2941176,15.3524325 C12.2941176,15.9783553 12.7945053,16.4857659 13.4117647,16.4857659 Z" id="Oval-2" fill-opacity="0.702000022" fill="#7196EA" sketch:type="MSShapeGroup"></path>
    </g>
</svg>