<?xml version="1.0" encoding="utf-8"?>
<!-- Generator: Adobe Illustrator 17.0.0, SVG Export Plug-In . SVG Version: 6.00 Build 0)  -->
<!DOCTYPE svg PUBLIC "-//W3C//DTD SVG 1.1//EN" "http://www.w3.org/Graphics/SVG/1.1/DTD/svg11.dtd">
<svg version="1.1" id="Layer_1" xmlns="http://www.w3.org/2000/svg" xmlns:xlink="http://www.w3.org/1999/xlink" x="0px" y="0px"
	 width="46px" height="18px" viewBox="0 0 46 18" enable-background="new 0 0 46 18" xml:space="preserve">
<path d="M6.687,0.02l-2.264,0c-2.223,0-4.11,1.694-4.11,4.982c0,1.973,0.914,3.427,2.541,4.145l-3.037,5.5
	c-0.099,0.179,0,0.319,0.158,0.319l1.41,0c0.119,0,0.199-0.04,0.238-0.139l2.76-5.401l0.993,0l0,5.401
	c0,0.06,0.06,0.139,0.138,0.139l1.232,0c0.119,0,0.159-0.06,0.159-0.159l0-14.587C6.905,0.08,6.826,0.02,6.687,0.02z M5.376,8.15
	l-0.834,0c-1.31,0-2.581-0.957-2.581-3.348c0-2.491,1.191-3.507,2.402-3.507l1.013,0L5.376,8.15z"/>
<path d="M14.895,4.012h-1.355c-0.109,0-0.175,0.088-0.175,0.153v4.189h-2.514V4.165c0-0.109-0.043-0.153-0.152-0.153H9.344
	c-0.108,0-0.174,0.066-0.174,0.153v10.66C9.17,14.934,9.214,15,9.322,15H10.7c0.087,0,0.152-0.066,0.152-0.175V9.737h2.514v5.088
	c0,0.109,0.066,0.175,0.175,0.175h1.355c0.109,0,0.153-0.088,0.153-0.175V4.165C15.048,4.078,14.983,4.012,14.895,4.012z"/>
<path d="M45.831,14.149l-0.175-0.746c-0.021-0.066-0.043-0.087-0.109-0.087c-0.109,0-0.7,0.241-1.552,0.241
	c-1.661,0-2.47-1.6-2.47-4.145c0-2.237,0.678-4.452,1.814-4.452c0.306,0,0.678,0.087,1.267,0.636
	c0.066,0.066,0.109,0.088,0.175,0.088c0.066,0,0.131-0.044,0.197-0.154l0.59-0.964c0.043-0.066,0.065-0.133,0.065-0.198
	c0-0.088-0.087-0.153-0.219-0.219C44.52,3.687,43.908,3.6,43.384,3.6c-2.055,0-3.65,2.456-3.65,6.294c0,3.312,1.53,5.22,3.715,5.22
	c0.918,0,1.902-0.438,2.295-0.724C45.831,14.324,45.853,14.237,45.831,14.149z"/>
<path d="M36.344,8.956l2.622-4.803C39.009,4.088,38.987,4,38.9,4h-1.289c-0.372,0-0.503,0.131-0.633,0.416L35.01,8.518
	c-0.109,0.241-0.218,0.394-0.327,0.461V4.153C34.683,4.066,34.639,4,34.551,4h-1.42C33.066,4,33,4.066,33,4.153v10.682
	c0,0.066,0.044,0.153,0.131,0.153h1.42c0.088,0,0.131-0.066,0.131-0.153V9.33c0.065,0.044,0.109,0.109,0.153,0.198l2.491,5.132
	c0.131,0.263,0.328,0.329,0.612,0.329h1.399c0.087,0,0.109-0.088,0.065-0.153L36.344,8.956z"/>
<path d="M23.812,13.606h-0.263c-0.328,0-0.415-0.131-0.415-0.394V4.153C23.134,4.044,23.09,4,23.003,4h-4.37
	c-0.109,0-0.175,0.066-0.175,0.153v0.79c0,2.654-0.153,6.075-1.552,8.664h-0.481c-0.131,0-0.175,0.066-0.175,0.175
	c0,0,0,2.632,0,3.202c0,0.11,0.087,0.153,0.153,0.153h1.049c0.24,0,0.327-0.175,0.327-0.329v-1.82h4.677v1.996
	c0,0.087,0.065,0.153,0.152,0.153h1.115c0.13,0,0.261-0.109,0.261-0.329v-3.026C23.986,13.673,23.92,13.606,23.812,13.606z
	 M21.451,13.606h-3.169c1.115-1.908,1.552-4.057,1.705-6.689c0.044-0.57,0.066-1.163,0.066-1.535h1.399V13.606z"/>
<path d="M28.27,3.6c-2.36,0-3.409,2.983-3.409,6.229c0,3.312,1.486,5.286,3.672,5.286c1.07,0,2.011-0.416,2.491-0.724
	c0.087-0.044,0.109-0.109,0.087-0.197l-0.175-0.746c-0.022-0.087-0.065-0.131-0.175-0.131c-0.087,0-0.721,0.241-1.617,0.241
	c-1.683,0-2.469-1.469-2.469-3.399c0-0.264,0-0.519,0-0.519s0.852,0.102,1.355,0.102h3.19V8.819C31.22,5.42,30.017,3.6,28.27,3.6z
	 M28.029,8.359c-0.503,0-1.289,0.087-1.289,0.087s0-0.329,0.044-0.68c0.196-1.864,0.655-2.807,1.42-2.807
	c0.7,0,1.136,0.965,1.246,2.654c0.022,0.351,0.022,0.746,0.022,0.746H28.029z"/>
</svg>
