<?xml version="1.0" encoding="UTF-8" standalone="no"?>
<svg width="26px" height="16px" viewBox="0 0 26 16" version="1.1" xmlns="http://www.w3.org/2000/svg" xmlns:xlink="http://www.w3.org/1999/xlink" xmlns:sketch="http://www.bohemiancoding.com/sketch/ns">
    <!-- Generator: Sketch 3.0.4 (8054) - http://www.bohemiancoding.com/sketch -->
    <title>bkn-minus-ra-n-16</title>
    <desc>Created with Sketch.</desc>
    <defs></defs>
    <g id="Page-1" stroke="none" stroke-width="1" fill="none" fill-rule="evenodd" sketch:type="MSPage">
        <path d="M10.3975424,3.35111813 C9.5263604,1.58466629 7.80050462,0.276192143 5.686,0.018 C5.603,0.008 5.52,0.006 5.438,0 C6.859,1.163 7.673,2.994 7.431,4.942 C7.055,7.975 4.27,10.128 1.214,9.754 C0.79,9.703 0.385,9.6 0,9.464 C0.952,10.795 2.439,11.745 4.202,11.96 C5.71303186,12.145015 7.16310339,11.7613426 8.33399839,10.9779759 L8.33399839,10.9779759 C7.81389068,10.3671378 7.5,9.57531299 7.5,8.71017509 C7.5,7.29574257 8.33901979,6.07727363 9.54651554,5.52531208 C9.65619307,4.72460817 9.95544489,3.98430065 10.3975424,3.35111813 Z" id="Rectangle-2" fill="#ED9700" sketch:type="MSShapeGroup"></path>
        <path d="M23,5 C24.6568542,5 26,6.34314575 26,8 C26,9.65685425 24.6568542,11 23,11 L11,11 C9.8954305,11 9,10.1045695 9,9 C9,8.08791125 9.61054824,7.31842369 10.4452415,7.07794056 C10.5547712,7.046384 10.7845362,7.01147089 10.7845362,7.01147089 C10.7845362,7.01147089 10.9272049,7 11,7 C11.0118539,7 11.0236837,7.00010313 11.0354886,7.00030853 L11.0354886,7.00030853 C11.0121012,6.83690878 11,6.66986758 11,6.5 C11,4.56700338 12.5670034,3 14.5,3 C14.8333359,3 15.1557881,3.0465985 15.4611979,3.13363665 C16.1318089,1.86472356 17.4649209,1 19,1 C21.209139,1 23,2.790861 23,5 Z M19,16 C19.5522847,16 20,15.5522847 20,15 L20,12 C18.5,13.5 18,14.4477153 18,15 C18,15.5522847 18.4477153,16 19,16 Z" id="Oval-2" fill-opacity="0.702000022" fill="#7196EA" sketch:type="MSShapeGroup"></path>
    </g>
</svg>