<?xml version="1.0" encoding="UTF-8" standalone="no"?>
<svg width="16px" height="16px" viewBox="0 0 16 16" version="1.1" xmlns="http://www.w3.org/2000/svg" xmlns:xlink="http://www.w3.org/1999/xlink" xmlns:sketch="http://www.bohemiancoding.com/sketch/ns">
    <title>quotes-6</title>
    <description>Created with Sketch (http://www.bohemiancoding.com/sketch)</description>
    <defs></defs>
    <g id="Page-1" stroke="none" stroke-width="1" fill="none" fill-rule="evenodd" sketch:type="MSPage">
        <g id="Light" sketch:type="MSLayerGroup" transform="translate(-414.000000, -106.000000)">
            <g id="Quotes" transform="translate(414.000000, 3.000000)" sketch:type="MSShapeGroup">
                <g id="Fill-98-+-Fill-99" transform="translate(0.000000, 103.000000)">
                    <path d="M15,0 L1,0 C0.448,0 0,0.448 0,1 L0,15 C0,15.552 0.448,16 1,16 L15,16 C15.552,16 16,15.552 16,15 L16,1 C16,0.448 15.552,0 15,0" id="Fill-98" fill="#5D8750"></path>
                    <path d="M13.9378288,1.02485661 C13.5438288,0.918856607 13.1278288,1.16185661 13.0238288,1.56385661 L12.5848288,3.26485661 L10.4808288,5.00085661 L9.24982879,5.00085661 C8.92682879,5.00085661 8.64082879,5.20785661 8.53882879,5.51385661 L7.84782879,7.58585661 L5.64182879,6.12585661 C5.30882879,5.90485661 4.86082879,5.98585661 4.62482879,6.30585661 L3.14682879,8.30485661 C3.09982879,8.36885661 3.06382879,8.43885661 3.03882879,8.51385661 L2.05582879,11.4628566 L1.07982879,13.4158566 C0.893828785,13.7858566 1.04382879,14.2358566 1.41582879,14.4218566 C1.52282879,14.4758566 1.63682879,14.5008566 1.74982879,14.5008566 C2.02482879,14.5008566 2.28982879,14.3488566 2.42082879,14.0868566 L3.42082879,12.0858566 C3.43682879,12.0548566 3.45082879,12.0218566 3.46182879,11.9878566 L4.42382879,9.10085661 L5.40782879,7.76985661 L7.83582879,9.37685661 C8.03282879,9.50485661 8.27382879,9.53685661 8.49582879,9.45985661 C8.71482879,9.38385661 8.88782879,9.20985661 8.96182879,8.98785661 L9.79182879,6.50085661 L10.7498288,6.50085661 C10.9238288,6.50085661 11.0928288,6.44085661 11.2278288,6.32985661 L13.7278288,4.26685661 C13.8498288,4.16585661 13.9368288,4.02885661 13.9768288,3.87585661 L14.4768288,1.93885661 C14.5808288,1.53685661 14.3388288,1.12785661 13.9378288,1.02485661" id="Fill-99" fill="#FFFFFF"></path>
                </g>
            </g>
        </g>
    </g>
</svg>