<?xml version="1.0" encoding="UTF-8" standalone="no"?>
<!-- Created with Inkscape (http://www.inkscape.org/) -->

<svg
   xmlns:dc="http://purl.org/dc/elements/1.1/"
   xmlns:cc="http://creativecommons.org/ns#"
   xmlns:rdf="http://www.w3.org/1999/02/22-rdf-syntax-ns#"
   xmlns:svg="http://www.w3.org/2000/svg"
   xmlns="http://www.w3.org/2000/svg"
   xmlns:sodipodi="http://sodipodi.sourceforge.net/DTD/sodipodi-0.dtd"
   xmlns:inkscape="http://www.inkscape.org/namespaces/inkscape"
   id="svg2971"
   version="1.1"
   inkscape:version="0.47 r22583"
   width="115"
   height="37"
   sodipodi:docname="icon-big.png">
  <metadata
     id="metadata2977">
    <rdf:RDF>
      <cc:Work
         rdf:about="">
        <dc:format>image/svg+xml</dc:format>
        <dc:type
           rdf:resource="http://purl.org/dc/dcmitype/StillImage" />
        <dc:title></dc:title>
      </cc:Work>
    </rdf:RDF>
  </metadata>
  <defs
     id="defs2975">
    <inkscape:perspective
       sodipodi:type="inkscape:persp3d"
       inkscape:vp_x="0 : 0.5 : 1"
       inkscape:vp_y="0 : 1000 : 0"
       inkscape:vp_z="1 : 0.5 : 1"
       inkscape:persp3d-origin="0.5 : 0.33333333 : 1"
       id="perspective2979" />
  </defs>
  <sodipodi:namedview
     pagecolor="#ffffff"
     bordercolor="#666666"
     borderopacity="1"
     objecttolerance="10"
     gridtolerance="10"
     guidetolerance="10"
     inkscape:pageopacity="0"
     inkscape:pageshadow="2"
     inkscape:window-width="1005"
     inkscape:window-height="677"
     id="namedview2973"
     showgrid="false"
     inkscape:zoom="6.8566091"
     inkscape:cx="52.456751"
     inkscape:cy="10.170754"
     inkscape:window-x="876"
     inkscape:window-y="312"
     inkscape:window-maximized="0"
     inkscape:current-layer="svg2971" />
  <path
     style="fill:#000000"
     d="M 21.166007,36.205533 C 16.144445,36.495813 14.067122,36.117188 10.445605,34.25156 7.9750448,32.978846 4.9753281,30.464553 3.7795684,28.664243 2.5838087,26.863933 1.3116849,23.652114 0.95262665,21.526866 0.59356839,19.401619 0.82546109,15.710599 1.4679438,13.324601 2.1513821,10.786505 3.9884236,7.7110109 5.8951926,5.9126969 7.6876968,4.2221479 10.957729,2.2986479 13.161932,1.6382529 15.366135,0.97785688 18.512714,0.43753388 20.15433,0.43753388 c 1.641617,0 4.514408,0.512147 6.383981,1.13810302 1.869573,0.625957 4.885535,2.242021 6.702139,3.591253 1.816604,1.349232 3.146327,2.922914 2.954941,3.497072 -0.191386,0.574158 -1.994319,1.3369851 -5.302916,2.9915701 -3.606755,1.80369 -3.188454,2.122534 -4.503702,1.302358 -0.955037,-0.595552 -5.055207,-1.520356 -6.43767,-1.520356 -1.382463,0 -3.413569,0.9 -4.513569,2 -1.247863,1.247863 -2,3.333333 -2,5.545455 0,2.430976 0.771562,4.317016 2.454545,6 1.35,1.35 3.179584,2.454545 4.065742,2.454545 0.886158,0 2.481612,-0.465833 3.545454,-1.035184 1.063843,-0.569351 2.663482,-2.05273 2.663482,-2.583379 0,-0.530649 -2.079223,-0.381437 -3.729223,-0.381437 -1.833187,0 1.971126,0.198659 -2.973582,-0.160996 -0.611467,-0.04448 -0.02642,-2.505476 -0.02642,-3.839004 l 0,-4 8.579455,0 8.579456,0 -0.525924,4.500136 c -0.28926,1.5125 -0.52288,2.766519 -0.875664,5.104019 -0.352784,2.3375 -0.645599,4.395845 -0.294189,4.395845 0.351408,0 1.290962,-1.560547 2.087898,-3.467881 0.796934,-1.907335 1.59855,-5.516329 1.886506,-7.437534 0.437534,-2.919165 0.449532,-2.690835 -0.229269,-2.752495 -3.334658,-0.30291 -1.59634,-0.633779 -1.879542,-0.633779 -0.713829,0 -0.283967,-1.169655 0.136907,-3.958311 0.352784,-2.3375001 1.044889,-9.663492 1.322427,-9.6672234 5.671516,-0.076252 -0.595262,-0.3111614 7.468998,0.1252043 l 6.642153,-0.1455151 2.36408,7.4375341 c 1.059601,3.8500001 2.276781,7.3704471 2.704845,7.8232161 0.428064,0.452769 1.088907,-0.447231 1.468539,-2 0.379632,-1.552769 1.368616,-5.1857161 2.197742,-8.0732161 l 1.507503,-5.25 14.405152,0 14.405152,0 1.922303,3.746956 1.922303,3.746955 1.786799,-3.746955 1.786799,-3.746956 7.337299,0 7.33729,0 -5.57643,7.958161 -5.57643,7.9581601 6.05392,9.00348 c 3.32966,4.951913 6.05393,9.245741 6.05393,9.541839 0,0.296098 -3.15585,0.53836 -7.013,0.53836 l -7.013,0 -2.186267,-4.5 c -1.202447,-2.475 -2.484066,-4.5 -2.848041,-4.5 -0.363975,0 -1.736033,2.025 -3.049017,4.5 -2.241034,4.22439 -2.34591,4.050008 -3.319088,4.062466 -7.452769,0.09541 -0.08685,-0.451996 -8.892515,0.374724 l 0.206629,-7.063355 -2.232686,3.313083 c -0.203295,0.494609 -2.745648,3.313082 -2.775958,3.313082 -2.727998,0 -6.090987,0.293099 -6.719413,-0.395708 -0.213581,-0.234103 -0.354306,-6.754292 -0.725427,-10.604292 l -0.674765,-7 -3.128728,9 -3.128728,9 -3.495612,0 -3.495613,0 -2.958462,-9 -2.958462,-9 -0.813092,8 c -0.447201,4.4 -0.879079,9.022653 -1.137984,9.737799 -0.330301,0.912352 -2.332453,0.69982 -6.378679,0.562466 -3.845133,-0.130527 -2.388713,0.249915 -5.815575,-0.07091 -1.238999,-0.115995 0.291983,-4.72936 0.0012,-4.72936 -0.290787,0 -1.870171,0.99179 -3.509743,2.203978 -2.125653,1.571563 -4.76825,2.307291 -9.209507,2.564026 z m 59.731066,-7.767999 c 0.202901,0 1.757511,-2.25676 3.454687,-5.015023 1.697176,-2.758262 3.085774,-5.501793 3.085774,-6.096736 0,-0.594942 -2.25,-4.275297 -5,-8.1785651 -4.402932,-6.249392 -5,-6.768222 -5,-4.344817 0,1.51362 0.461788,5.9882341 1.026195,9.9435881 0.564407,3.955354 1.559892,12.423415 1.545313,14.233515 -0.0062,0.766587 0.685129,-0.541962 0.888031,-0.541962 z"
     id="path2993"
     sodipodi:nodetypes="cssssssssssssssssssssscccccsssssssscccsscccccccccccccscccssscccsscccccccccsssssccssssssc" />
</svg>
