/* XPM */
static char * fotofox_main_window_xpm_kodak[] = {
"32 32 378 2",
"  	c None",
". 	c #3F2B05",
"+ 	c #3C2A05",
"@ 	c #3C2905",
"# 	c #FFCB41",
"$ 	c #FFDE6A",
"% 	c #FFDD68",
"& 	c #3E2B06",
"* 	c #FFDC61",
"= 	c #FED96E",
"- 	c #FDDA6D",
"; 	c #FEDB6D",
"> 	c #FEDA6D",
", 	c #FED96D",
"' 	c #FCD96D",
") 	c #FDDA6C",
"! 	c #FDD96D",
"~ 	c #FCD96E",
"{ 	c #3F2B06",
"] 	c #3C2B06",
"^ 	c #FFD857",
"/ 	c #FED961",
"( 	c #FCC461",
"_ 	c #FBBF61",
": 	c #FCC861",
"< 	c #FED660",
"[ 	c #FCD660",
"} 	c #FED860",
"| 	c #FCCE61",
"1 	c #FBBE63",
"2 	c #FBBE61",
"3 	c #FCD060",
"4 	c #FED761",
"5 	c #FFD850",
"6 	c #F9AE59",
"7 	c #F5825B",
"8 	c #F5845B",
"9 	c #F5865B",
"0 	c #F5835B",
"a 	c #F7935A",
"b 	c #FED757",
"c 	c #FCD258",
"d 	c #FCD358",
"e 	c #FAB458",
"f 	c #F5815B",
"g 	c #FCC358",
"h 	c #FFD750",
"i 	c #3C2906",
"j 	c #FFD748",
"k 	c #F79052",
"l 	c #F47D51",
"m 	c #F47F53",
"n 	c #F67E51",
"o 	c #F47E53",
"p 	c #F57B52",
"q 	c #FCC74E",
"r 	c #FED14E",
"s 	c #FED04E",
"t 	c #FDD64E",
"u 	c #F8A050",
"v 	c #F47A53",
"w 	c #F47E51",
"x 	c #F47F51",
"y 	c #F67E53",
"z 	c #F67F53",
"A 	c #F47C53",
"B 	c #F89D51",
"C 	c #FFD749",
"D 	c #FFD642",
"E 	c #F6894A",
"F 	c #F4744B",
"G 	c #F5764A",
"H 	c #F5764B",
"I 	c #F4704B",
"J 	c #FAAA47",
"K 	c #FED146",
"L 	c #FCCE46",
"M 	c #FDD046",
"N 	c #F68C48",
"O 	c #F4714B",
"P 	c #F4734B",
"Q 	c #F79549",
"R 	c #FFD542",
"S 	c #3C2A06",
"T 	c #3C2B07",
"U 	c #FFD43C",
"V 	c #F58243",
"W 	c #F36B44",
"X 	c #F46D43",
"Y 	c #F36A44",
"Z 	c #F68542",
"` 	c #FDD13F",
" .	c #FECC40",
"..	c #FCC83F",
"+.	c #F57843",
"@.	c #F36944",
"#.	c #F68E43",
"$.	c #FFD33C",
"%.	c #3C2A07",
"&.	c #FFD236",
"*.	c #F57A3D",
"=.	c #F2623E",
"-.	c #F2633D",
";.	c #F2633E",
">.	c #F2653D",
",.	c #FCC838",
"'.	c #FDCC38",
").	c #FBBD38",
"!.	c #F2673D",
"~.	c #F2613E",
"{.	c #F6883D",
"].	c #FFD136",
"^.	c #3C2B08",
"/.	c #FFD032",
"(.	c #F47338",
"_.	c #F25A39",
":.	c #F35C38",
"<.	c #F35B38",
"[.	c #F25539",
"}.	c #FAAD34",
"|.	c #FECC33",
"1.	c #FAAD33",
"2.	c #F15839",
"3.	c #F35A39",
"4.	c #F25939",
"5.	c #F68237",
"6.	c #FFCF32",
"7.	c #FFD02F",
"8.	c #F46D33",
"9.	c #F15235",
"0.	c #F25435",
"a.	c #F14F35",
"b.	c #F68432",
"c.	c #FED12E",
"d.	c #F89930",
"e.	c #F04D35",
"f.	c #F15335",
"g.	c #F25335",
"h.	c #F25434",
"i.	c #F15135",
"j.	c #F57C33",
"k.	c #FFCF2F",
"l.	c #3C2A08",
"m.	c #FFCE2C",
"n.	c #F36630",
"o.	c #F04930",
"p.	c #F04A30",
"q.	c #F15930",
"r.	c #FDD129",
"s.	c #F5812D",
"t.	c #EF4331",
"u.	c #F04A31",
"v.	c #F14831",
"w.	c #F14E31",
"x.	c #F04B30",
"y.	c #F04B31",
"z.	c #F04B32",
"A.	c #F04830",
"B.	c #F57630",
"C.	c #FFCD2C",
"D.	c #3C2C08",
"E.	c #FFCD2A",
"F.	c #F35F2D",
"G.	c #F0422F",
"H.	c #F0402F",
"I.	c #FBBD27",
"J.	c #F46A2D",
"K.	c #EF382F",
"L.	c #FBBA29",
"M.	c #F26A2C",
"N.	c #FCBC27",
"O.	c #F56F2D",
"P.	c #EF422F",
"Q.	c #F0432F",
"R.	c #F0412F",
"S.	c #EF3D2F",
"T.	c #F4732B",
"U.	c #F8A129",
"V.	c #EF3C2E",
"W.	c #F0462D",
"X.	c #FCCB26",
"Y.	c #F4712D",
"Z.	c #FFCC2A",
"`.	c #FFCC28",
" +	c #F25A2B",
".+	c #EF382D",
"++	c #F47229",
"@+	c #F2582B",
"#+	c #EF362D",
"$+	c #FBB427",
"%+	c #FBBB26",
"&+	c #F79527",
"*+	c #F1592B",
"=+	c #FBBA25",
"-+	c #FCBA26",
";+	c #F3652A",
">+	c #FCB826",
",+	c #FBB326",
"'+	c #F79428",
")+	c #FAB127",
"!+	c #FAAC27",
"~+	c #F79426",
"{+	c #FCBF25",
"]+	c #F89427",
"^+	c #F57D26",
"/+	c #F46B2B",
"(+	c #FFCB27",
"_+	c #F2552A",
":+	c #EE322C",
"<+	c #F36029",
"[+	c #F57D27",
"}+	c #EF2E2C",
"|+	c #ED302C",
"1+	c #FBB325",
"2+	c #FAA725",
"3+	c #FAAB25",
"4+	c #F88C26",
"5+	c #F57528",
"6+	c #F68528",
"7+	c #F89727",
"8+	c #F25A29",
"9+	c #F99C25",
"0+	c #F89A25",
"a+	c #F89527",
"b+	c #FAA626",
"c+	c #FCBF23",
"d+	c #FDC625",
"e+	c #EE342B",
"f+	c #F3682A",
"g+	c #FFC927",
"h+	c #F25029",
"i+	c #EE2E2B",
"j+	c #EE292B",
"k+	c #F99D25",
"l+	c #F78B26",
"m+	c #ED212B",
"n+	c #FBB623",
"o+	c #F15928",
"p+	c #FBB424",
"q+	c #F9A024",
"r+	c #FCB424",
"s+	c #FCBA24",
"t+	c #F46828",
"u+	c #FCBE24",
"v+	c #F9A925",
"w+	c #F9A323",
"x+	c #FDBF23",
"y+	c #F9A524",
"z+	c #FBBE23",
"A+	c #F78627",
"B+	c #F78F24",
"C+	c #EE282B",
"D+	c #F36229",
"E+	c #FFC926",
"F+	c #FFCA26",
"G+	c #F14C29",
"H+	c #ED292B",
"I+	c #ED2B2B",
"J+	c #ED2A2A",
"K+	c #FCBE22",
"L+	c #F89924",
"M+	c #EE272C",
"N+	c #EE2A2B",
"O+	c #EE2F2B",
"P+	c #EE2D2B",
"Q+	c #ED252B",
"R+	c #EE2C2B",
"S+	c #EE2E2A",
"T+	c #EE2B2B",
"U+	c #EE272B",
"V+	c #ED282B",
"W+	c #F35F29",
"X+	c #F14829",
"Y+	c #ED242B",
"Z+	c #EE272A",
"`+	c #ED232B",
" @	c #F14629",
".@	c #FDC824",
"+@	c #FAA824",
"@@	c #ED2B2A",
"#@	c #ED262A",
"$@	c #ED262B",
"%@	c #F25B29",
"&@	c #FFC826",
"*@	c #F1442A",
"=@	c #ED1F2C",
"-@	c #EE212C",
";@	c #ED1A2C",
">@	c #F57526",
",@	c #FDC324",
"'@	c #EE342A",
")@	c #ED1D2C",
"!@	c #EE222C",
"~@	c #ED1E2C",
"{@	c #F2582A",
"]@	c #FFC726",
"^@	c #FFC827",
"/@	c #F0412A",
"(@	c #EC1B2C",
"_@	c #EC1D2B",
":@	c #EB152C",
"<@	c #FCBB26",
"[@	c #FDBD24",
"}@	c #EF432A",
"|@	c #EC152C",
"1@	c #EC1A2C",
"2@	c #FFC727",
"3@	c #F03F2B",
"4@	c #EC172D",
"5@	c #ED1A2D",
"6@	c #EC182D",
"7@	c #ED282C",
"8@	c #FDBE25",
"9@	c #FDB826",
"0@	c #FDC225",
"a@	c #F25928",
"b@	c #EB122D",
"c@	c #EC162D",
"d@	c #F2532B",
"e@	c #FFC627",
"f@	c #F03D2B",
"g@	c #EC142D",
"h@	c #F2532A",
"i@	c #FEC125",
"j@	c #F57228",
"k@	c #EB112D",
"l@	c #EC192D",
"m@	c #F2522B",
"n@	c #EF422A",
"o@	c #EC1C2C",
"p@	c #EC1F2B",
"q@	c #EB162C",
"r@	c #F78C25",
"s@	c #FDBB25",
"t@	c #FDC124",
"u@	c #F78E24",
"v@	c #EC1E2B",
"w@	c #F36028",
"x@	c #F89626",
"y@	c #EE332C",
"z@	c #EF332D",
"A@	c #EF342C",
"B@	c #EF342D",
"C@	c #ED342C",
"D@	c #EF322D",
"E@	c #F1492B",
"F@	c #FDBD25",
"G@	c #FBBD25",
"H@	c #FDC325",
"I@	c #FAAC26",
"J@	c #EF3F2B",
"K@	c #EF332C",
"L@	c #ED332C",
"M@	c #EF402B",
"N@	c #FFCC35",
"O@	c #FECB36",
"P@	c #FDCB35",
"Q@	c #FCC733",
"R@	c #FCC834",
"S@	c #FCC832",
"T@	c #FDC935",
"U@	c #FCC736",
"V@	c #FCC636",
"W@	c #FEC736",
"X@	c #FDC836",
"Y@	c #FDCC35",
"Z@	c #FCC833",
"`@	c #FDCE35",
" #	c #FDC936",
".#	c #FFD956",
"+#	c #FED55E",
"@#	c #FED55D",
"##	c #FFCE49",
"$#	c #FFE47F",
"%#	c #FFE47E",
"&#	c #FFE480",
"*#	c #382703",
"=#	c #362602",
"                                                                ",
"                                                                ",
"        . + @ + @ + + @ + + @ + @ + @ @ + @ + + @ + + .         ",
"      # $ % % % % % % % % % % % % % % % % % % % % % % $ #       ",
"    & * = - - ; ; - - > > , , ' , ' - ) > - > - > - ! ~ * {     ",
"    ] ^ / ( _ _ _ _ _ _ : < [ < < } | 1 _ _ _ _ _ 2 3 4 ^ ]     ",
"    ] 5 6 7 8 8 9 8 8 0 a b c d b e 7 8 9 8 8 8 8 8 f g h i     ",
"    ] j k l m m n m o p q r s t u v w x y z z m z z A B C ]     ",
"    ] D E F G G H G I J K L M N O G H H G G G G G G P Q R S     ",
"    T U V W X X X Y Z `  ...+.@.X X X X X X X X X X Y #.$.T     ",
"    %.&.*.=.-.-.;.>.,.'.).!.=.-.-.-.-.-.-.-.-.-.-.-.~.{.].%.    ",
"    ^./.(._.:.<.[.}.|.1.2.3.:.:.:.:.:.:.:.:.:.:.:.:.4.5.6.^.    ",
"    ^.7.8.9.0.a.b.c.d.e.f.f.0.0.0.0.g.g.0.0.g.g.0.h.i.j.k.l.    ",
"    ^.m.n.o.p.q.r.s.t.u.v.w.x.x.x.x.u.y.x.x.y.u.x.z.A.B.C.D.    ",
"    ^.E.F.G.H.I.J.K.L.M.N.O.P.Q.R.S.T.U.V.G.W.X.S.G.R.Y.Z.l.    ",
"    D.`. +.+++@+.+#+$+%+&+*+=+-+;+>+,+'+)+!+~+{+]+^+#+/+`.l.    ",
"    D.(+_+:+<+[+}+|+1+2+3+4+5+6+>+7+8+9+0+a+b+c+d+e+:+f+g+D.    ",
"    D.(+h+i+j+k+l+m+n+o+p+q+r+s+t+u+v+w+x+k+y+z+A+B+C+D+E+D.    ",
"    D.F+G+H+I+J+K+L+M+j+C+N+O+P+Q+P+R+N+S+T+T+T+U+i+V+W+E+D.    ",
"    D.E+X+Y+Z+`+ @.@+@@@`+#@#@#@Z+#@#@#@$@#@#@#@#@#@`+%@&@^.    ",
"    D.&@*@=@-@-@;@>@,@r+'@)@!@-@-@-@-@-@-@-@-@-@-@-@~@{@]@D.    ",
"    ^.^@/@(@_@_@_@:@w+<@[@}@|@_@_@_@_@_@_@_@_@_@_@_@1@_+2@D.    ",
"    D.2@3@4@5@5@5@6@7@8@9@0@a@b@5@5@5@5@5@5@5@5@5@5@c@d@e@^.    ",
"    D.2@f@4@5@5@5@5@g@h@0@9@i@j@k@l@5@5@5@5@5@5@5@5@c@m@e@^.    ",
"    D.&@n@o@p@p@p@p@p@q@r@s@9@t@u@(@v@p@p@p@p@p@p@p@1@w@e@D.    ",
"    l.^@x@y@z@A@B@B@C@D@E@d+F@G@H@I@J@K@B@B@B@A@B@L@M@,+e@l.    ",
"    T N@O@P@Q@R@R@S@R@Q@T@U@U@V@W@X@Y@Q@Z@Z@Z@R@Z@Q@`@ #N@%.    ",
"    & .#+#@#@#@#@#@#@#@#@#@#@#@#@#@#@#@#@#@#@#@#@#@#@#+#.#&     ",
"      ##$#%#%#%#%#%#%#%#%#%#%#%#%#%#%#%#%#%#%#%#%#%#%#&###      ",
"        *#=#=#=#=#=#=#=#=#=#=#=#=#=#=#=#=#=#=#=#=#=#=#*#        ",
"                                                                ",
"                                                                "};
