<?xml version="1.0" encoding="UTF-8" standalone="no"?>
<svg width="26px" height="16px" viewBox="0 0 26 16" version="1.1" xmlns="http://www.w3.org/2000/svg" xmlns:xlink="http://www.w3.org/1999/xlink" xmlns:sketch="http://www.bohemiancoding.com/sketch/ns">
    <!-- Generator: Sketch 3.0.4 (8054) - http://www.bohemiancoding.com/sketch -->
    <title>bkn-d-16</title>
    <desc>Created with Sketch.</desc>
    <defs></defs>
    <g id="Page-1" stroke="none" stroke-width="1" fill="none" fill-rule="evenodd" sketch:type="MSPage">
        <path d="M11.6602037,6.38416123 C11.0393683,4.97990242 9.63411839,4 8,4 C5.790861,4 4,5.790861 4,8 C4,10.0910351 5.60449527,11.8073203 7.64948452,11.9848542 C7.94177621,11.0188523 8.64039868,10.2293344 9.54651554,9.81513699 C9.74114401,8.39424633 10.5327485,7.163546 11.6602037,6.38416123 Z M7.51242942,13.2970655 L6.79880447,15.9603501 L5.34991573,15.5721215 L6.13537733,12.6407389 L6.13537733,12.6407389 C6.56407992,12.8131501 7.02218538,12.9278803 7.50008519,12.9753208 C7.50002843,12.9835405 7.5,12.9917669 7.5,13 C7.5,13.100058 7.50419867,13.1991353 7.51242942,13.2970655 L7.51242942,13.2970655 Z M3.04936882,8.70537719 L0.117308281,9.49102045 L0.505536849,10.9399092 L3.48105339,10.1426219 C3.26891401,9.69599772 3.12103639,9.21293338 3.04936882,8.70537719 L3.04936882,8.70537719 Z M4.06561247,11.0858939 L1.91889895,13.2326074 L2.97955912,14.2932676 L5.15830273,12.114524 C4.74446478,11.8281649 4.37592589,11.4809794 4.06561247,11.0858939 L4.06561247,11.0858939 Z M12.114524,5.15830273 L14.2932676,2.97955912 L13.2326074,1.91889895 L11.0858939,4.06561247 C11.4809794,4.37592589 11.8281649,4.74446478 12.114524,5.15830273 L12.114524,5.15830273 Z M10.1426219,3.48105339 L10.9399092,0.505536849 L9.49102045,0.117308281 L8.70537719,3.04936882 C9.21293338,3.12103639 9.69599772,3.26891401 10.1426219,3.48105339 L10.1426219,3.48105339 Z M7.69793486,3.00897423 L6.89537347,0.0137743446 L5.44648473,0.402002912 L6.22907677,3.32267617 C6.69001872,3.14806182 7.18350411,3.03962849 7.69793486,3.00897423 L7.69793486,3.00897423 Z M5.2426101,3.82839654 L3.05025253,1.63603897 L1.98959236,2.69669914 L4.12852734,4.83563412 C4.44676697,4.44674345 4.82244527,4.10668021 5.2426101,3.82839654 L5.2426101,3.82839654 Z M3.5256879,5.76583551 L0.531412435,4.96352181 L0.143183867,6.41241055 L3.0644369,7.19515794 C3.14630089,6.68926055 3.30407208,6.20879888 3.5256879,5.76583551 L3.5256879,5.76583551 Z" id="Rectangle-2" fill="#ED9700" sketch:type="MSShapeGroup"></path>
        <path d="M23,9 C24.6568542,9 26,10.3431458 26,12 C26,13.6568542 24.6568542,15 23,15 L11,15 C9.8954305,15 9,14.1045695 9,13 C9,12.0879113 9.61054824,11.3184237 10.4452415,11.0779406 C10.5547712,11.046384 10.7845362,11.0114709 10.7845362,11.0114709 C10.7845362,11.0114709 10.9272049,11 11,11 C11.0118539,11 11.0236837,11.0001031 11.0354886,11.0003085 L11.0354886,11.0003085 C11.0121012,10.8369088 11,10.6698676 11,10.5 C11,8.56700338 12.5670034,7 14.5,7 C14.8333359,7 15.1557881,7.0465985 15.4611979,7.13363665 C16.1318089,5.86472356 17.4649209,5 19,5 C21.209139,5 23,6.790861 23,9 Z" id="Oval-2" fill-opacity="0.702000022" fill="#7196EA" sketch:type="MSShapeGroup"></path>
    </g>
</svg>