<?xml version="1.0" encoding="UTF-8" standalone="no"?>
<svg width="26px" height="16px" viewBox="0 0 26 16" version="1.1" xmlns="http://www.w3.org/2000/svg" xmlns:xlink="http://www.w3.org/1999/xlink" xmlns:sketch="http://www.bohemiancoding.com/sketch/ns">
    <!-- Generator: Sketch 3.0.4 (8054) - http://www.bohemiancoding.com/sketch -->
    <title>bkn-plus-sn-n-16</title>
    <desc>Created with Sketch.</desc>
    <defs></defs>
    <g id="Page-1" stroke="none" stroke-width="1" fill="none" fill-rule="evenodd" sketch:type="MSPage">
        <path d="M10.4802836,3.52593521 C9.63886651,1.67140331 7.86968021,0.284638847 5.686,0.018 C5.603,0.008 5.52,0.006 5.438,0 C6.859,1.163 7.673,2.994 7.431,4.942 C7.055,7.975 4.27,10.128 1.214,9.754 C0.79,9.703 0.385,9.6 0,9.464 C0.952,10.795 2.439,11.745 4.202,11.96 C5.64835858,12.1370963 7.03886346,11.7931438 8.18213572,11.076352 L8.18213572,11.076352 C7.75341412,10.4954938 7.5,9.77734093 7.5,9 C7.5,7.58556748 8.33901979,6.36709854 9.54651554,5.81513699 C9.66290356,4.96544295 9.9927733,4.18376197 10.4802836,3.52593521 Z" id="Rectangle-8" fill="#ED9700" sketch:type="MSShapeGroup"></path>
        <path d="M21.5340742,13.258819 L20.4387388,12.9653248 L20.6975579,11.999399 L21.7928932,12.2928932 L21.7928932,12.2928932 L21.499399,11.1975579 L22.236695,11 L22.236695,11 L12.4817397,11 L12.4817397,11 L12.758819,12.0340742 L12.758819,12.0340742 L13.5606602,11.232233 L14.267767,11.9393398 L13.4659258,12.741181 L14.5612612,13.0346752 L14.3024421,14.000601 L13.2071068,13.7071068 L13.500601,14.8024421 L12.5346752,15.0612612 L12.241181,13.9659258 L11.4393398,14.767767 L10.732233,14.0606602 L11.5340742,13.258819 L10.4387388,12.9653248 L10.6975579,11.999399 L11.7928932,12.2928932 L11.499399,11.1975579 L12.236695,11 L11,11 C9.8954305,11 9,10.1045695 9,9 C9,8.08791125 9.61054824,7.31842369 10.4452415,7.07794056 C10.5547712,7.046384 10.7845362,7.01147089 10.7845362,7.01147089 C10.7845362,7.01147089 10.9272049,7 11,7 C11.0118539,7 11.0236837,7.00010313 11.0354886,7.00030853 L11.0354886,7.00030853 C11.0121012,6.83690878 11,6.66986758 11,6.5 C11,4.56700338 12.5670034,3 14.5,3 C14.8333359,3 15.1557881,3.0465985 15.4611979,3.13363665 C16.1318089,1.86472356 17.4649209,1 19,1 C21.209139,1 23,2.790861 23,5 C24.6568542,5 26,6.34314575 26,8 C26,9.65685425 24.6568542,11 23,11 L22.4817397,11 L22.758819,12.0340742 L23.5606602,11.232233 L24.267767,11.9393398 L23.4659258,12.741181 L24.5612612,13.0346752 L24.3024421,14.000601 L23.2071068,13.7071068 L23.500601,14.8024421 L22.5346752,15.0612612 L22.241181,13.9659258 L21.4393398,14.767767 L20.732233,14.0606602 L21.5340742,13.258819 Z M17.758819,13.0340742 L17.4653248,11.9387388 L16.499399,12.1975579 L16.7928932,13.2928932 L16.7928932,13.2928932 L15.6975579,12.999399 L15.4387388,13.9653248 L16.5340742,14.258819 L15.732233,15.0606602 L16.4393398,15.767767 L17.241181,14.9659258 L17.5346752,16.0612612 L18.500601,15.8024421 L18.2071068,14.7071068 L19.3024421,15.000601 L19.5612612,14.0346752 L18.4659258,13.741181 L19.267767,12.9393398 L18.5606602,12.232233 L17.758819,13.0340742 L17.758819,13.0340742 Z" id="Oval-2" fill-opacity="0.702000022" fill="#7196EA" sketch:type="MSShapeGroup"></path>
    </g>
</svg>