<?xml version="1.0" encoding="UTF-8" standalone="no"?>
<svg width="16px" height="16px" viewBox="0 0 16 16" version="1.1" xmlns="http://www.w3.org/2000/svg" xmlns:xlink="http://www.w3.org/1999/xlink" xmlns:sketch="http://www.bohemiancoding.com/sketch/ns">
    <!-- Generator: Sketch 3.0.4 (8054) - http://www.bohemiancoding.com/sketch -->
    <title>skc-d-16</title>
    <desc>Created with Sketch.</desc>
    <defs></defs>
    <g id="Page-1" stroke="none" stroke-width="1" fill="none" fill-rule="evenodd" sketch:type="MSPage">
        <path d="M3.04936882,8.70537719 L0.117308281,9.49102045 L0.505536849,10.9399092 L3.48105339,10.1426219 C3.26891401,9.69599772 3.12103639,9.21293338 3.04936882,8.70537719 L3.04936882,8.70537719 Z M4.06561247,11.0858939 L1.91889895,13.2326074 L2.97955912,14.2932676 L5.15830273,12.114524 C4.74446478,11.8281649 4.37592589,11.4809794 4.06561247,11.0858939 L4.06561247,11.0858939 Z M6.13537733,12.6407389 L5.34991573,15.5721215 L6.79880447,15.9603501 L7.59633081,12.9839412 C7.08365503,12.9429835 6.59278041,12.8246926 6.13537733,12.6407389 L6.13537733,12.6407389 Z M8.80484206,12.9355631 L9.58758945,15.8568161 L11.0364782,15.4685876 L10.2341645,12.4743121 C9.79120112,12.6959279 9.31073945,12.8536991 8.80484206,12.9355631 L8.80484206,12.9355631 Z M11.1643659,11.8714727 L13.3033009,14.0104076 L14.363961,12.9497475 L12.1716035,10.7573899 C11.8933198,11.1775547 11.5532566,11.553233 11.1643659,11.8714727 L11.1643659,11.8714727 Z M12.6773238,9.77092323 L15.5979971,10.5535153 L15.9862257,9.10462653 L12.9910258,8.30206514 C12.9603715,8.81649589 12.8519382,9.30998128 12.6773238,9.77092323 L12.6773238,9.77092323 Z M12.9839412,7.59633081 L15.9603501,6.79880447 L15.5721215,5.34991573 L12.6407389,6.13537733 C12.8246926,6.59278041 12.9429835,7.08365503 12.9839412,7.59633081 L12.9839412,7.59633081 Z M12.114524,5.15830273 L14.2932676,2.97955912 L13.2326074,1.91889895 L11.0858939,4.06561247 C11.4809794,4.37592589 11.8281649,4.74446478 12.114524,5.15830273 L12.114524,5.15830273 Z M10.1426219,3.48105339 L10.9399092,0.505536849 L9.49102045,0.117308281 L8.70537719,3.04936882 C9.21293338,3.12103639 9.69599772,3.26891401 10.1426219,3.48105339 L10.1426219,3.48105339 Z M7.69793486,3.00897423 L6.89537347,0.0137743446 L5.44648473,0.402002912 L6.22907677,3.32267617 C6.69001872,3.14806182 7.18350411,3.03962849 7.69793486,3.00897423 L7.69793486,3.00897423 Z M5.2426101,3.82839654 L3.05025253,1.63603897 L1.98959236,2.69669914 L4.12852734,4.83563412 C4.44676697,4.44674345 4.82244527,4.10668021 5.2426101,3.82839654 L5.2426101,3.82839654 Z M3.5256879,5.76583551 L0.531412435,4.96352181 L0.143183867,6.41241055 L3.0644369,7.19515794 C3.14630089,6.68926055 3.30407208,6.20879888 3.5256879,5.76583551 L3.5256879,5.76583551 Z M8,12 C10.209139,12 12,10.209139 12,8 C12,5.790861 10.209139,4 8,4 C5.790861,4 4,5.790861 4,8 C4,10.209139 5.790861,12 8,12 Z" id="Rectangle-2" fill="#ED9700" sketch:type="MSShapeGroup"></path>
    </g>
</svg>