<?xml version="1.0" encoding="UTF-8" standalone="no"?>
<svg width="14px" height="16px" viewBox="0 0 14 16" version="1.1" xmlns="http://www.w3.org/2000/svg" xmlns:xlink="http://www.w3.org/1999/xlink" xmlns:sketch="http://www.bohemiancoding.com/sketch/ns">
    <!-- Generator: Sketch 3.0.4 (8054) - http://www.bohemiancoding.com/sketch -->
    <title>city gray</title>
    <desc>Created with Sketch.</desc>
    <defs></defs>
    <g id="Page-1" stroke="none" stroke-width="1" fill="none" fill-rule="evenodd" sketch:type="MSPage">
        <g id="Group" sketch:type="MSLayerGroup" transform="translate(4.000000, 0.000000)">
            <rect id="Rectangle-215" fill-opacity="0.151664402" fill="#000000" sketch:type="MSShapeGroup" x="0" y="0" width="10" height="16" rx="1"></rect>
            <rect id="Rectangle-216" fill="#B5B5B5" sketch:type="MSShapeGroup" x="7" y="1" width="2" height="3" rx="1"></rect>
            <rect id="Rectangle-216" fill="#B5B5B5" sketch:type="MSShapeGroup" x="7" y="5" width="2" height="3" rx="1"></rect>
            <rect id="Rectangle-216" fill="#B5B5B5" sketch:type="MSShapeGroup" x="7" y="9" width="2" height="3" rx="1"></rect>
            <rect id="Rectangle-216" fill="#B5B5B5" sketch:type="MSShapeGroup" x="4" y="1" width="2" height="3" rx="1"></rect>
            <rect id="Rectangle-216" fill="#B5B5B5" sketch:type="MSShapeGroup" x="4" y="5" width="2" height="3" rx="1"></rect>
            <rect id="Rectangle-216" fill="#B5B5B5" sketch:type="MSShapeGroup" x="4" y="9" width="2" height="3" rx="1"></rect>
            <rect id="Rectangle-216" fill="#B5B5B5" sketch:type="MSShapeGroup" x="1" y="1" width="2" height="3" rx="1"></rect>
            <rect id="Rectangle-216" fill="#B5B5B5" sketch:type="MSShapeGroup" x="1" y="5" width="2" height="3" rx="1"></rect>
            <rect id="Rectangle-216" fill="#B5B5B5" sketch:type="MSShapeGroup" x="1" y="9" width="2" height="3" rx="1"></rect>
        </g>
        <g id="Group-2" sketch:type="MSLayerGroup" transform="translate(0.000000, 5.000000)">
            <rect id="Rectangle-215" fill="#B3B3B3" sketch:type="MSShapeGroup" x="0" y="0" width="7" height="11" rx="1"></rect>
            <rect id="Rectangle-216" fill="#7F7F7F" sketch:type="MSShapeGroup" x="4" y="1" width="2" height="3" rx="1"></rect>
            <rect id="Rectangle-216" fill="#7F7F7F" sketch:type="MSShapeGroup" x="4" y="5" width="2" height="3" rx="1"></rect>
            <rect id="Rectangle-216" fill="#7F7F7F" sketch:type="MSShapeGroup" x="1" y="1" width="2" height="3" rx="1"></rect>
            <rect id="Rectangle-216" fill="#7F7F7F" sketch:type="MSShapeGroup" x="1" y="5" width="2" height="3" rx="1"></rect>
        </g>
    </g>
</svg>