<svg enable-background="new 0 0 120 120" viewBox="0 0 120 120" xmlns="http://www.w3.org/2000/svg"><path d="M81.287 44.34c-2.572-.917-5.188-1.419-7.783-1.587 13.184 5.235 19.96 19.992 15.158 33.456-4.914 13.764-20.053 20.936-33.815 16.023-1.677-.599-3.249-1.354-4.718-2.233 3.112 3.587 7.151 6.456 11.943 8.167 14.861 5.309 31.214-2.441 36.519-17.305s-2.443-31.215-17.304-36.521z" fill="#0a6fcd"/><path d="M35.766 102.988l-4.061-3.103-4.085 3.067 1.694-4.82-4.179-2.939 5.106.123 1.505-4.881 1.461 4.895 5.107-.079-4.2 2.903 1.652 4.834z" fill="#0a6fcd"/><path d="M30.96 61.533l-5.859-4.476-5.898 4.425 2.447-6.957-6.034-4.242 7.375.176 2.168-7.046 2.112 7.065 7.371-.113-6.067 4.19 2.385 6.978z" fill="#0a6fcd"/><path d="M103.139 29.299l-4.189-3.2-4.221 3.165 1.748-4.975-4.312-3.035 5.273.126 1.551-5.04 1.508 5.053 5.275-.081-4.34 2.997 1.707 4.99z" fill="#0a6fcd"/></svg>