<svg enable-background="new 0 0 120 120" viewBox="0 0 120 120" xmlns="http://www.w3.org/2000/svg"><path d="M56.058 60.688h-30.201c-.4.095-.81.156-1.24.156-2.98 0-5.397-2.416-5.397-5.397s2.417-5.399 5.397-5.399c2.592 0 4.75 1.826 5.273 4.262l2.741-1.37c-.836-1.403-1.348-3.023-1.348-4.773 0-5.182 4.205-9.383 9.384-9.383 2.717 0 5.144 1.173 6.859 3.02-.059-.579-.089-1.167-.089-1.761 0-9.608 7.788-17.396 17.396-17.396s17.397 7.789 17.397 17.396c0 3.011-.768 5.843-2.112 8.312l3.532 1.633c.691-4.498 4.547-7.952 9.238-7.952 5.18 0 9.381 4.2 9.381 9.382s-4.201 9.383-9.381 9.383c-.381 0-.742-.068-1.109-.111h-22.261" fill="#fff" opacity=".4"/><path d="M92.906 35.376c-1.508 0-2.961.223-4.346.612-1.929-11.365-11.794-20.028-23.71-20.028-10.54 0-19.473 6.783-22.734 16.213-.477-.041-.959-.071-1.448-.071-7.312 0-13.473 4.887-15.419 11.571l-.59-.06c-6.591 0-11.935 5.344-11.935 11.935 0 6.538 5.263 11.834 11.781 11.918l-.018.017h67.946l-.019-.029.493.023c8.865 0 16.052-7.187 16.052-16.052s-7.188-16.049-16.053-16.049zm-.017 25.423c-.379 0-.74-.066-1.107-.111h-65.926c-.397.095-.809.156-1.238.156-2.978 0-5.397-2.417-5.397-5.4s2.419-5.396 5.397-5.396c2.592 0 4.752 1.825 5.273 4.261l2.74-1.37c-.836-1.403-1.346-3.022-1.346-4.773 0-5.182 4.204-9.383 9.384-9.383 2.718 0 5.146 1.174 6.859 3.02-.06-.58-.09-1.167-.09-1.761 0-9.608 7.788-17.396 17.396-17.396s17.398 7.789 17.398 17.396c0 3.01-.768 5.841-2.111 8.312l3.531 1.632c.691-4.497 4.545-7.951 9.236-7.951 5.182 0 9.383 4.201 9.383 9.382s-4.203 9.382-9.382 9.382z" fill="#0a6fcd"/><path d="M70.009 74.243l2.856.767-4.594 17.143-2.856-.766 4.594-17.144z" fill="#0a6fcd"/><path d="M77.33 79.475l.766 2.854-17.144 4.596-.765-2.858 17.143-4.592z" fill="#0a6fcd"/><path d="M61.818 77.969l2.094-2.093 12.548 12.55-2.089 2.092-12.553-12.549z" fill="#0a6fcd"/><path d="M47.577 85.459l2.856.766-4.593 17.144-2.857-.765 4.594-17.145z" fill="#0a6fcd"/><path d="M54.898 90.688l.764 2.858-17.143 4.595-.764-2.858 17.143-4.595z" fill="#0a6fcd"/><path d="M39.386 89.186l2.095-2.093 12.548 12.552-2.089 2.09-12.554-12.549z" fill="#0a6fcd"/></svg>