<?xml version="1.0" encoding="UTF-8" standalone="no"?>
<svg width="11px" height="10px" viewBox="0 0 11 10" version="1.1" xmlns="http://www.w3.org/2000/svg" xmlns:xlink="http://www.w3.org/1999/xlink" xmlns:sketch="http://www.bohemiancoding.com/sketch/ns">
    <!-- Generator: Sketch 3.2.2 (9983) - http://www.bohemiancoding.com/sketch -->
    <title>ico-10-white</title>
    <desc>Created with Sketch.</desc>
    <defs></defs>
    <g id="Page-1" stroke="none" stroke-width="1" fill="none" fill-rule="evenodd" sketch:type="MSPage">
        <path d="M6.025,5 L9.825,1.2 C10.125,0.9 10.125,0.5 9.825,0.2 C9.525,-0.1 9.125,-0.1 8.825,0.2 L5.025,4 L1.225,0.2 C0.925,-0.1 0.525,-0.1 0.225,0.2 C-0.075,0.5 -0.075,0.9 0.225,1.2 L4.025,5 L0.225,8.8 C-0.075,9.1 -0.075,9.5 0.225,9.8 C0.525,10.1 0.925,10.1 1.225,9.8 L5.025,6 L8.825,9.8 C9.125,10.1 9.525,10.1 9.825,9.8 C10.125,9.5 10.125,9.1 9.825,8.8 L6.025,5 Z" id="ico-10-white" fill="#FFFFFF" sketch:type="MSShapeGroup"></path>
    </g>
</svg>