<?xml version="1.0" encoding="UTF-8" standalone="no"?>
<svg width="16px" height="16px" viewBox="0 0 16 16" version="1.1" xmlns="http://www.w3.org/2000/svg" xmlns:xlink="http://www.w3.org/1999/xlink" xmlns:sketch="http://www.bohemiancoding.com/sketch/ns">
    <title>Mail-ru</title>
    <description>Created with Sketch (http://www.bohemiancoding.com/sketch)</description>
    <defs></defs>
    <g id="Page-1" stroke="none" stroke-width="1" fill="none" fill-rule="evenodd" sketch:type="MSPage">
        <g id="Light" sketch:type="MSLayerGroup" transform="translate(0.000000, -156.000000)">
            <g id="Social" sketch:type="MSShapeGroup">
                <g id="Mail-ru" transform="translate(0.000000, 156.000000)">
                    <rect id="Rectangle-25" fill="#00418C" x="0" y="0" width="16" height="16" rx="1"></rect>
                    <path d="M7.76722218,10.4641097 C6.56222218,10.4641097 5.64322218,9.56010974 5.64322218,8.13010974 C5.64322218,6.85210974 6.40322218,5.72810974 7.77222218,5.72810974 L7.81722218,5.72810974 C9.00422218,5.72810974 9.98622218,6.55910974 10.0542222,7.94210974 L10.0572222,8.22110974 C9.99422218,9.43610974 9.11022218,10.4641097 7.76722218,10.4641097 M12.4882222,3.94710974 C10.5262222,1.80710974 7.27222218,1.38210974 4.80322218,2.91610974 C1.57722218,4.92110974 1.51222218,8.79110974 2.72922218,10.9911097 C4.52922218,14.2481097 8.38422218,14.3101097 9.76822218,13.6941097 C10.6852222,13.2871097 10.2772222,12.0411097 9.39522218,12.4131097 C7.65222218,13.1471097 4.72022218,12.4111097 3.69622218,9.94110974 C2.75522218,7.67710974 3.72322218,5.26610974 5.23522218,4.17710974 C6.65822218,3.15310974 9.33322218,2.85210974 11.3262222,4.67510974 C13.4652222,6.62910974 12.5572222,10.0031097 11.7982222,10.8181097 C11.6042222,11.0251097 11.2532222,10.8581097 11.2842222,10.5351097 L11.2822222,5.59810974 C11.2822222,5.45910974 11.1912222,5.02010974 10.7472222,5.02010974 L10.6752222,5.02010974 C10.3902222,5.02010974 10.1862222,5.25910974 10.1862222,5.57710974 L10.1862222,5.57410974 C9.55422218,4.91310974 8.69422218,4.49110974 7.77922218,4.49110974 C5.97122218,4.49110974 4.38022218,6.17110974 4.38022218,8.07810974 C4.38022218,9.96610974 5.97122218,11.6281097 7.77922218,11.6281097 C8.69422218,11.6281097 9.53422218,11.2461097 10.1652222,10.5921097 L10.1742222,10.9441097 C10.1662222,12.0231097 11.5122222,12.7431097 12.4192222,12.0031097 C14.4192222,10.3741097 14.5392222,6.18410974 12.4882222,3.94710974" id="Fill-14" fill="#FFA300"></path>
                </g>
            </g>
        </g>
    </g>
</svg>