<?xml version="1.0" encoding="UTF-8" standalone="no"?>
<svg width="17px" height="16px" viewBox="0 0 17 16" version="1.1" xmlns="http://www.w3.org/2000/svg" xmlns:xlink="http://www.w3.org/1999/xlink" xmlns:sketch="http://www.bohemiancoding.com/sketch/ns">
    <!-- Generator: Sketch 3.0.4 (8054) - http://www.bohemiancoding.com/sketch -->
    <title>ovc-minus-sn-16</title>
    <desc>Created with Sketch.</desc>
    <defs></defs>
    <g id="Page-1" stroke="none" stroke-width="1" fill="none" fill-rule="evenodd" sketch:type="MSPage">
        <path d="M8.75881905,12.0340742 L8.46532482,10.9387388 L7.499399,11.1975579 L7.79289322,12.2928932 L7.79289322,12.2928932 L6.69755787,11.999399 L6.43873882,12.9653248 L7.53407417,13.258819 L6.73223305,14.0606602 L7.43933983,14.767767 L8.24118095,13.9659258 L8.53467518,15.0612612 L9.500601,14.8024421 L9.20710678,13.7071068 L10.3024421,14.000601 L10.5612612,13.0346752 L9.46592583,12.741181 L10.267767,11.9393398 L9.56066017,11.232233 L8.75881905,12.0340742 Z M14,4 C15.6568542,4 17,5.34314575 17,7 C17,8.65685425 15.6568542,10 14,10 L2,10 C0.8954305,10 0,9.1045695 0,8 C0,7.08791125 0.610548243,6.31842369 1.44524148,6.07794056 C1.55477117,6.046384 1.78453618,6.01147089 1.78453618,6.01147089 C1.78453618,6.01147089 1.92720489,6 2,6 C2.01185389,6 2.0236837,6.00010313 2.03548857,6.00030853 L2.03548857,6.00030853 C2.01210121,5.83690878 2,5.66986758 2,5.5 C2,3.56700338 3.56700338,2 5.5,2 C5.8333359,2 6.15578814,2.0465985 6.46119787,2.13363665 C7.13180888,0.864723562 8.46492093,0 10,0 C12.209139,0 14,1.790861 14,4 Z" id="Oval-2" fill-opacity="0.702000022" fill="#7196EA" sketch:type="MSShapeGroup"></path>
    </g>
</svg>