<?xml version="1.0" encoding="UTF-8" standalone="no"?>
<svg width="20px" height="16px" viewBox="0 0 20 16" version="1.1" xmlns="http://www.w3.org/2000/svg" xmlns:xlink="http://www.w3.org/1999/xlink" xmlns:sketch="http://www.bohemiancoding.com/sketch/ns">
    <!-- Generator: Sketch 3.2.2 (9983) - http://www.bohemiancoding.com/sketch -->
    <title>ico-disk-16-upload</title>
    <desc>Created with Sketch.</desc>
    <defs></defs>
    <g id="Page-1" stroke="none" stroke-width="1" fill="none" fill-rule="evenodd" sketch:type="MSPage">
        <g id="Shape-+-Shape-+-Shape-+-Oval-1-+-Rectangle-4" sketch:type="MSLayerGroup">
            <g id="Shape-+-Shape-+-Shape" sketch:type="MSShapeGroup">
                <path d="M13.2989691,2.06594595 C11.6357388,0.385945946 9.93127147,-0.363243243 7.89690722,0.234594595 C5.86254296,0.84 4.72852234,2.42918919 4.05498282,4.79783784 C3.62886598,6.29621622 2.72164948,7.2345946 2.72164948,7.2345946 L9.12714777,5.26702703 L15.4707904,3.39783784 C15.4639175,3.39783784 14.3505155,3.13297297 13.2989691,2.06594595 L13.2989691,2.06594595 L13.2989691,2.06594595 Z" id="Shape" fill="#15324D"></path>
                <path d="M19.8900343,5.50918919 C19.3333334,3.23891892 14.4467354,2.70162162 8.96907217,4.29837838 C3.49140894,5.9027027 -0.494845361,9.08108108 0.0618556701,11.358919 C0.446735395,12.9405405 2.91408935,13.6897297 6.21993127,13.4551352 C6.08247423,13.318919 5.99312715,13.1675675 5.94501718,12.9783784 C5.64261168,11.7372973 7.64948454,10.4583784 10.2817869,9.68648648 C12.9140894,8.90702703 15.2164948,8.95243243 15.5120275,10.1556757 C15.5601375,10.3448649 15.5463918,10.5264865 15.4914089,10.7232432 C18.4742268,9.10378378 20.2817869,7.09837838 19.8900343,5.50918919 L19.8900343,5.50918919 L19.8900343,5.50918919 Z" id="Shape" fill="#3992E6"></path>
                <path d="M11.1958763,13.4475675 C13.8487973,12.6681081 15.8281787,11.3513513 15.5395189,10.1405405 C15.2508592,8.92972973 12.9347079,8.88432432 10.2817869,9.66378378 C7.62886598,10.4432432 5.64261168,11.7524325 5.93814433,12.9708108 C6.23367698,14.1967568 8.54295533,14.2345946 11.1958763,13.4475675 L11.1958763,13.4475675 L11.1958763,13.4475675 Z" id="Shape" fill="#FFFFFF"></path>
            </g>
            <circle id="Oval-1" fill="#2F7ABF" sketch:type="MSShapeGroup" cx="15.5" cy="11.5" r="4.5"></circle>
            <path d="M16,12 L17.5,12 L15.5,8.5 L13.5,12 L15,12 L15,14.0012277 C15,14.2829556 15.2238576,14.5 15.5,14.5 C15.7680664,14.5 16,14.276692 16,14.0012277 L16,12 Z" id="Rectangle-4" fill="#FFFFFF" sketch:type="MSShapeGroup"></path>
        </g>
    </g>
</svg>