<?xml version="1.0" encoding="UTF-8" standalone="no"?>
<svg width="16px" height="16px" viewBox="0 0 16 16" version="1.1" xmlns="http://www.w3.org/2000/svg" xmlns:xlink="http://www.w3.org/1999/xlink" xmlns:sketch="http://www.bohemiancoding.com/sketch/ns">
    <!-- Generator: Sketch 3.0.3 (7892) - http://www.bohemiancoding.com/sketch -->
    <title>Ico-radio-16</title>
    <desc>Created with Sketch.</desc>
    <defs></defs>
    <g id="Page-1" stroke="none" stroke-width="1" fill="none" fill-rule="evenodd" sketch:type="MSPage">
        <g id="Ico-radio-16" sketch:type="MSLayerGroup">
            <circle id="Oval-1" fill-opacity="0.7" fill="#333333" sketch:type="MSShapeGroup" cx="8" cy="8" r="8"></circle>
            <path d="M13.9170416,9 C13.4409635,11.8377133 10.9729963,14 8,14 C5.02700371,14 2.55903653,11.8377133 2.08295844,9 L4.12601749,9 C4.57006028,10.7252272 6.13616057,12 8,12 C9.86383943,12 11.4299397,10.7252272 11.8739825,9 L13.9170416,9 Z M13.9170416,7 C13.4409635,4.16228666 10.9729963,2 8,2 C5.02700371,2 2.55903653,4.16228666 2.08295844,7 L4.12601749,7 C4.57006028,5.27477279 6.13616057,4 8,4 C9.86383943,4 11.4299397,5.27477279 11.8739825,7 L13.9170416,7 Z" id="Oval-2" fill="#FFD622" sketch:type="MSShapeGroup"></path>
        </g>
    </g>
</svg>