<?xml version="1.0" encoding="UTF-8" standalone="no"?>
<svg width="19px" height="19px" viewBox="0 0 19 19" version="1.1" xmlns="http://www.w3.org/2000/svg" xmlns:xlink="http://www.w3.org/1999/xlink" xmlns:sketch="http://www.bohemiancoding.com/sketch/ns">
    <!-- Generator: Sketch 3.0.4 (8054) - http://www.bohemiancoding.com/sketch -->
    <title>ovc-ts-ra-19</title>
    <desc>Created with Sketch.</desc>
    <defs></defs>
    <g id="Page-1" stroke="none" stroke-width="1" fill="none" fill-rule="evenodd" sketch:type="MSPage">
        <path d="M15.2886391,3.6767007 C15.3380069,3.67460825 15.3876338,3.67355176 15.4375,3.67355176 C17.4050144,3.67355176 19,5.3182569 19,7.34710352 C19,9.37595013 17.4050144,11.0206553 15.4374998,11.0206553 L1.1875,11.0206553 L1.1875,10.6930181 C0.477610873,10.2695685 0,9.47810929 0,8.57162077 C0,7.45475236 0.725026039,6.51250156 1.71622425,6.21802582 C1.84629076,6.17938428 2.11913671,6.13663256 2.11913671,6.13663256 C2.11913671,6.13663256 2.28855581,6.12258627 2.375,6.12258627 C2.3890415,6.12258627 2.40305455,6.12271192 2.41703813,6.12296219 L2.41703813,6.12296219 C2.70498636,4.04581757 4.43728098,2.44903451 6.53125,2.44903451 C6.54513184,2.44903451 6.55899778,2.44910468 6.57284751,2.44924471 C7.39411587,0.985092608 8.92924526,0 10.6875,0 C12.9019089,-1.38777878e-17 14.7624012,1.56253263 15.2886391,3.6767007 L15.2886391,3.6767007 Z M3.5625,16.625 C4.21833814,16.625 4.75,16.0933381 4.75,15.4375 L4.75,11.875 C2.96875,13.65625 2.375,14.7816619 2.375,15.4375 C2.375,16.0933381 2.90666186,16.625 3.5625,16.625 Z M15.4375,16.625 C16.0933381,16.625 16.625,16.0933381 16.625,15.4375 L16.625,11.875 C14.84375,13.65625 14.25,14.7816619 14.25,15.4375 C14.25,16.0933381 14.7816619,16.625 15.4375,16.625 Z" id="Oval-4" fill-opacity="0.702000022" fill="#7196EA" sketch:type="MSShapeGroup"></path>
        <path d="M5.9375,12.46875 L9.56011729,13.65625 L8.3125,19 L13.0625,12.46875 L9.56011729,11.28125 L10.6875,5.9375 L5.9375,12.46875 Z" id="Shape-24" opacity="0.8" fill="#ED9700" sketch:type="MSShapeGroup"></path>
    </g>
</svg>