<?xml version="1.0" encoding="UTF-8" standalone="no"?>
<svg width="42px" height="16px" viewBox="0 0 42 16" version="1.1" xmlns="http://www.w3.org/2000/svg" xmlns:xlink="http://www.w3.org/1999/xlink" xmlns:sketch="http://www.bohemiancoding.com/sketch/ns">
    <!-- Generator: Sketch 3.2.2 (9983) - http://www.bohemiancoding.com/sketch -->
    <title>yandex-eng-white</title>
    <desc>Created with Sketch.</desc>
    <defs></defs>
    <g id="Page-1" stroke="none" stroke-width="1" fill="none" fill-rule="evenodd" sketch:type="MSPage">
        <g id="yandex-eng-white" sketch:type="MSLayerGroup" fill-opacity="0.9" fill="#E6E6E6">
            <path d="M9.70002441,0 L8.30002441,0 C8.20002441,0 8.10002441,0.1 8.10002441,0.1 C8.10002441,0.2 6.00002441,6.3 5.90002441,6.8 C5.80002441,7.2 5.40002441,8.4 5.40002441,8.7 L4.70002441,6.8 C4.50002441,6.3 2.90002441,1.2 2.80002441,1.1 C2.80002441,1 2.70002441,0.9 2.50002441,0.9 L1.10002441,0.9 C1.00002441,0.9 0.900024414,1 0.900024414,1.1 C0.900024414,1.2 3.40002441,8 4.40002441,10.4 L4.40002441,15.7 C4.40002441,15.8 4.40002441,15.9 4.50002441,15.9 L5.80002441,15.9 C5.90002441,15.9 5.90002441,15.8 5.90002441,15.7 L5.90002441,10.4 C6.70002441,8.2 9.70002441,0.2 9.80002441,0.1 C9.90002441,0.1 9.80002441,0 9.70002441,0 L9.70002441,0 Z" id="Shape" sketch:type="MSShapeGroup"></path>
            <path d="M17.3000244,6.5999939 C17.3000244,6.5999939 17.3000244,6.0999939 17.2000244,6.0999939 L16.0000244,6.0999939 C15.9000244,6.0999939 15.8000244,6.1999939 15.8000244,6.1999939 L15.8000244,15.7999939 C15.8000244,15.8999939 15.8000244,15.9999939 15.9000244,15.9999939 L17.1000244,15.9999939 C17.2000244,15.9999939 17.2000244,15.8999939 17.2000244,15.7999939 L17.2000244,7.5999939 C17.2000244,7.5999939 17.8000244,7.1999939 18.5000244,7.1999939 C19.2000244,7.1999939 19.7000244,7.4999939 19.7000244,8.1999939 L19.7000244,15.7999939 C19.7000244,15.8999939 19.8000244,15.9999939 19.9000244,15.9999939 L21.1000244,15.9999939 C21.2000244,15.9999939 21.2000244,15.8999939 21.2000244,15.7999939 L21.2000244,7.7999939 C21.1000244,6.4999939 20.4000244,5.8999939 19.2000244,5.8999939 C18.3000244,5.8999939 17.3000244,6.5999939 17.3000244,6.5999939 Z M28.5000244,1.1999939 L27.3000244,1.1999939 C27.2000244,1.1999939 27.1000244,1.2999939 27.1000244,1.2999939 L27.1000244,5.9999939 C26.6000244,5.7999939 26.2000244,5.6999939 25.9000244,5.6999939 C24.0000244,5.6999939 22.6000244,7.5999939 22.6000244,11.0999939 C22.6000244,14.1999939 23.9000244,15.7999939 25.6000244,15.7999939 C26.3000244,15.7999939 26.9000244,15.3999939 27.3000244,14.9999939 L27.6000244,15.3999939 C27.6000244,15.4999939 27.7000244,15.4999939 27.8000244,15.4999939 L28.5000244,15.4999939 C28.6000244,15.4999939 28.6000244,15.3999939 28.6000244,15.2999939 L28.6000244,1.0999939 C28.6000244,1.1999939 28.6000244,1.1999939 28.5000244,1.1999939 L28.5000244,1.1999939 Z M27.1000244,14.2999939 C26.8000244,14.4999939 26.4000244,14.5999939 26.0000244,14.5999939 C24.7000244,14.5999939 24.2000244,13.0999939 24.2000244,10.7999939 C24.2000244,8.7999939 24.8000244,6.8999939 26.0000244,6.8999939 C26.4000244,6.8999939 26.8000244,6.9999939 27.2000244,7.2999939 L27.2000244,14.2999939 L27.1000244,14.2999939 Z M33.1000244,5.7999939 C31.1000244,5.7999939 30.1000244,8.3999939 30.1000244,11.1999939 C30.1000244,14.1999939 31.5000244,15.7999939 33.3000244,15.7999939 C34.1000244,15.7999939 34.9000244,15.4999939 35.4000244,15.1999939 C35.5000244,15.1999939 35.5000244,15.0999939 35.5000244,14.9999939 L35.3000244,14.3999939 C35.3000244,14.2999939 35.2000244,14.2999939 35.1000244,14.2999939 C35.1000244,14.2999939 34.4000244,14.4999939 33.8000244,14.4999939 C32.3000244,14.4999939 31.6000244,13.1999939 31.6000244,11.3999939 L31.6000244,10.9999939 C31.6000244,10.9999939 32.3000244,11.0999939 32.8000244,11.0999939 L35.6000244,11.0999939 L35.6000244,10.2999939 C35.6000244,7.3999939 34.6000244,5.7999939 33.1000244,5.7999939 L33.1000244,5.7999939 Z M33.0000244,9.8999939 C32.6000244,9.8999939 31.8000244,9.9999939 31.8000244,9.9999939 L31.8000244,9.3999939 C32.0000244,7.7999939 32.4000244,6.8999939 33.0000244,6.8999939 C33.6000244,6.8999939 34.0000244,7.6999939 34.1000244,9.1999939 L34.1000244,9.8999939 L33.0000244,9.8999939 L33.0000244,9.8999939 Z M11.3000244,5.6999939 C10.7000244,5.6999939 9.80002441,5.8999939 9.20002441,6.1999939 C9.10002441,6.2999939 9.00002441,6.2999939 9.00002441,6.3999939 C9.00002441,6.4999939 9.00002441,6.4999939 9.10002441,6.5999939 L9.50002441,7.4999939 C9.50002441,7.5999939 9.60002441,7.5999939 9.70002441,7.5999939 C9.80002441,7.5999939 9.80002441,7.5999939 9.90002441,7.4999939 C10.5000244,7.0999939 10.9000244,6.8999939 11.3000244,6.8999939 C11.8000244,6.8999939 12.1000244,7.1999939 12.2000244,7.6999939 C12.4000244,8.0999939 12.4000244,8.6999939 12.4000244,9.3999939 L12.4000244,9.5999939 C12.0000244,9.3999939 11.4000244,9.1999939 11.1000244,9.1999939 C9.40002441,9.1999939 8.40002441,10.7999939 8.40002441,12.5999939 C8.40002441,14.4999939 9.50002441,15.8999939 10.8000244,15.8999939 C11.5000244,15.8999939 12.2000244,15.4999939 12.6000244,14.8999939 C12.6000244,14.8999939 12.8000244,15.4999939 12.9000244,15.4999939 C12.9000244,15.5999939 13.0000244,15.5999939 13.1000244,15.5999939 L13.8000244,15.5999939 C13.9000244,15.5999939 13.9000244,15.4999939 13.9000244,15.3999939 L13.9000244,9.9999939 C13.9000244,8.6999939 13.8000244,7.5999939 13.5000244,6.8999939 C13.0000244,6.0999939 12.2000244,5.6999939 11.3000244,5.6999939 L11.3000244,5.6999939 Z M11.3000244,14.5999939 C10.9000244,14.5999939 10.6000244,14.3999939 10.4000244,14.0999939 C10.1000244,13.6999939 10.0000244,13.0999939 10.0000244,12.4999939 C10.0000244,11.4999939 10.4000244,10.3999939 11.2000244,10.3999939 C11.6000244,10.3999939 12.0000244,10.4999939 12.4000244,10.7999939 L12.4000244,14.0999939 C12.1000244,14.4999939 11.7000244,14.5999939 11.3000244,14.5999939 L11.3000244,14.5999939 Z M42.0000244,5.9999939 L40.9000244,5.9999939 C40.8000244,5.9999939 40.7000244,6.0999939 40.7000244,6.0999939 C40.6000244,6.2999939 40.2000244,7.4999939 40.0000244,7.9999939 C39.9000244,8.3999939 39.5000244,9.3999939 39.5000244,9.3999939 L39.5000244,9.3999939 C39.5000244,9.3999939 39.2000244,8.6999939 39.1000244,8.2999939 C39.0000244,7.9999939 38.4000244,6.3999939 38.3000244,6.1999939 C38.3000244,6.0999939 38.2000244,5.9999939 38.1000244,5.9999939 L36.9000244,5.9999939 C36.8000244,5.9999939 36.7000244,6.0999939 36.7000244,6.1999939 C36.7000244,6.2999939 38.6000244,10.4999939 38.6000244,10.4999939 C38.6000244,10.4999939 36.6000244,15.3999939 36.5000244,15.4999939 C36.4000244,15.5999939 36.5000244,15.7999939 36.7000244,15.7999939 L37.7000244,15.7999939 C37.9000244,15.7999939 37.9000244,15.6999939 38.0000244,15.5999939 C38.1000244,15.1999939 38.4000244,14.5999939 38.7000244,13.6999939 C38.9000244,13.0999939 39.2000244,11.8999939 39.2000244,11.8999939 L39.2000244,11.8999939 C39.2000244,11.8999939 39.6000244,12.9999939 39.7000244,13.2999939 C40.0000244,14.1999939 40.5000244,15.4999939 40.5000244,15.5999939 C40.5000244,15.6999939 40.6000244,15.7999939 40.7000244,15.7999939 L41.9000244,15.7999939 C42.0000244,15.7999939 42.1000244,15.6999939 42.0000244,15.5999939 C41.9000244,15.2999939 40.8000244,12.4999939 40.0000244,10.6999939 C40.0000244,10.6999939 42.0000244,6.2999939 42.0000244,6.1999939 C42.1000244,6.0999939 42.1000244,5.9999939 42.0000244,5.9999939 L42.0000244,5.9999939 Z" id="Shape" sketch:type="MSShapeGroup"></path>
        </g>
    </g>
</svg>