<?xml version="1.0" encoding="UTF-8" standalone="no"?>
<svg width="17px" height="28px" viewBox="0 0 17 28" version="1.1" xmlns="http://www.w3.org/2000/svg" xmlns:xlink="http://www.w3.org/1999/xlink" xmlns:sketch="http://www.bohemiancoding.com/sketch/ns">
    <!-- Generator: Sketch 3.1 (8751) - http://www.bohemiancoding.com/sketch -->
    <title>arrow-right</title>
    <desc>Created with Sketch.</desc>
    <defs></defs>
    <g id="Page-1" stroke="none" stroke-width="1" fill="none" fill-rule="evenodd" sketch:type="MSPage">
        <path d="M4.60000305,14 L15.9000031,2.7 C16.3000031,2.3 16.3000031,1.7 15.9000031,1.3 L15.2000031,0.6 C14.8000031,0.2 14.2000031,0.2 13.8000031,0.6 L1.80000305,12.6 L1.80000305,12.6 L1.10000305,13.3 C0.700003052,13.7 0.700003052,14.3 1.10000305,14.7 L1.80000305,15.4 L1.80000305,15.4 L13.8000031,27.4 C14.2000031,27.8 14.8000031,27.8 15.2000031,27.4 L15.9000031,26.7 C16.3000031,26.3 16.3000031,25.7 15.9000031,25.3 L4.60000305,14 L4.60000305,14 Z" id="arrow-right" fill="#000000" sketch:type="MSShapeGroup" transform="translate(8.500003, 14.000000) rotate(-180.000000) translate(-8.500003, -14.000000) "></path>
    </g>
</svg>