<svg enable-background="new 0 0 120 120" viewBox="0 0 120 120" xmlns="http://www.w3.org/2000/svg"><path d="M54.136 59.973h-30.201c-.4.094-.81.156-1.24.156-2.98 0-5.397-2.416-5.397-5.397s2.417-5.399 5.397-5.399c2.592 0 4.75 1.826 5.273 4.262l2.741-1.37c-.836-1.403-1.348-3.023-1.348-4.773 0-5.182 4.205-9.383 9.384-9.383 2.717 0 5.144 1.173 6.859 3.02-.059-.579-.089-1.167-.089-1.761 0-9.608 7.788-17.396 17.396-17.396s17.397 7.789 17.397 17.396c0 3.011-.768 5.843-2.113 8.312l3.533 1.633c.691-4.498 4.547-7.952 9.237-7.952 5.181 0 9.382 4.2 9.382 9.382s-4.201 9.383-9.382 9.383c-.38 0-.741-.068-1.108-.112h-22.261" fill="#fff" opacity=".4"/><path d="M90.984 34.661c-1.51 0-2.961.223-4.346.612-1.931-11.364-11.795-20.028-23.712-20.028-10.539 0-19.472 6.784-22.737 16.214-.477-.042-.957-.071-1.445-.071-7.313 0-13.473 4.887-15.42 11.571l-.589-.06c-6.591 0-11.935 5.343-11.935 11.934 0 6.539 5.263 11.835 11.781 11.919l-.017.016h67.944l-.018-.029.493.023c8.865 0 16.051-7.186 16.051-16.051s-7.184-16.05-16.05-16.05zm-.017 25.423c-.379 0-.74-.068-1.107-.112h-65.926c-.397.095-.809.158-1.238.158-2.979 0-5.398-2.418-5.398-5.399s2.418-5.399 5.398-5.399c2.59 0 4.75 1.828 5.272 4.262l2.742-1.369c-.837-1.403-1.349-3.022-1.349-4.773 0-5.182 4.205-9.383 9.385-9.383 2.719 0 5.146 1.174 6.858 3.02-.059-.58-.089-1.168-.089-1.763 0-9.608 7.788-17.396 17.396-17.396s17.397 7.789 17.397 17.396c0 3.011-.767 5.843-2.111 8.313l3.531 1.632c.692-4.497 4.545-7.952 9.237-7.952 5.181 0 9.382 4.201 9.382 9.383s-4.201 9.382-9.38 9.382z" fill="#0a6fcd"/><path d="M55.139 87.453l-4.807-1.393c-.501.322-.725 1.035-.501 1.588l2.478 15.85c.226.555.731.752 1.235.429l11.022-11.937c.504-.325.729-1.036.502-1.59l-3.063-.783c-.226-.555-6.364-2.489-6.866-2.164z" fill="#0a6fcd"/><path d="M32.243 73.684l-4.804-1.394c-.502.325-.728 1.037-.502 1.589l2.476 15.852c.228.554.733.752 1.235.428l11.026-11.829c.501-.325.725-1.035.501-1.589l-3.066-.893c-.224-.554-6.362-2.489-6.866-2.164z" fill="#0a6fcd"/><path d="M79.814 73.993l-4.806-1.393c-.502.324-.726 1.036-.502 1.59l2.479 15.85c.226.554.731.752 1.236.43l11.021-11.939c.504-.323.729-1.034.504-1.588l-3.066-.784c-.226-.555-6.364-2.491-6.866-2.166z" fill="#0a6fcd"/></svg>