<?xml version="1.0" encoding="UTF-8" standalone="no"?>
<svg width="18px" height="16px" viewBox="0 0 18 16" version="1.1" xmlns="http://www.w3.org/2000/svg" xmlns:xlink="http://www.w3.org/1999/xlink" xmlns:sketch="http://www.bohemiancoding.com/sketch/ns">
    <!-- Generator: Sketch 3.0.4 (8054) - http://www.bohemiancoding.com/sketch -->
    <title>bl-16</title>
    <desc>Created with Sketch.</desc>
    <defs></defs>
    <g id="Page-1" stroke="none" stroke-width="1" fill="none" fill-rule="evenodd" sketch:type="MSPage">
        <path d="M7.323,8.172 L7.733,8.062 L7.623,8.474 L7.815,8.526 L7.925,8.113 L8.225,8.415 L8.365,8.274 L8.066,7.972 L8.475,7.861 L8.424,7.668 L8.014,7.779 L8.124,7.366 L7.932,7.315 L7.822,7.727 L7.522,7.425 L7.381,7.567 L7.681,7.868 L7.271,7.979 L7.323,8.172 Z M9.267,9.648 L9.881,9.483 L9.717,10.101 L10.005,10.179 L10.17,9.56 L10.619,10.013 L10.83,9.801 L10.38,9.348 L10.995,9.182 L10.918,8.893 L10.303,9.058 L10.468,8.44 L10.18,8.362 L10.015,8.981 L9.565,8.528 L9.354,8.74 L9.804,9.193 L9.189,9.359 L9.267,9.648 Z M11.613,11.458 L10.868,11.659 L11.068,10.909 L10.719,10.815 L10.519,11.565 L9.974,11.016 L9.718,11.273 L10.264,11.822 L9.519,12.023 L9.612,12.374 L10.357,12.173 L10.158,12.923 L10.507,13.017 L10.706,12.267 L11.252,12.816 L11.507,12.559 L10.962,12.01 L11.707,11.809 L11.613,11.458 Z M9.503,14.029 L8.636,14.263 L8.868,13.392 L8.462,13.282 L8.23,14.154 L7.596,13.516 L7.299,13.815 L7.933,14.452 L7.067,14.686 L7.176,15.094 L8.042,14.861 L7.81,15.732 L8.216,15.842 L8.448,14.97 L9.082,15.608 L9.379,15.309 L8.745,14.671 L9.611,14.438 L9.503,14.029 Z M6.135,13.966 L5.165,14.227 L5.425,13.252 L4.971,13.129 L4.711,14.105 L4.001,13.391 L3.668,13.725 L4.378,14.439 L3.408,14.701 L3.53,15.158 L4.5,14.897 L4.24,15.872 L4.695,15.995 L4.954,15.019 L5.664,15.733 L5.997,15.399 L5.287,14.684 L6.257,14.423 L6.135,13.966 Z M2.766,12.068 L3.967,11.744 L3.816,11.178 L2.615,11.502 L2.937,10.293 L2.374,10.141 L2.052,11.35 L1.172,10.465 L0.76,10.879 L1.64,11.765 L0.438,12.088 L0.589,12.655 L1.791,12.331 L1.469,13.54 L2.031,13.691 L2.354,12.483 L3.233,13.367 L3.645,12.953 L2.766,12.068 Z M1.287,9.533 L1.989,9.722 L2.391,8.214 L3.489,9.318 L4.003,8.8 L2.906,7.696 L4.405,7.292 L4.217,6.585 L2.717,6.989 L3.119,5.481 L2.416,5.291 L2.014,6.8 L0.917,5.695 L0.402,6.213 L1.5,7.317 L0,7.721 L0.189,8.429 L1.688,8.024 L1.287,9.533 Z M6.847,3.057 L5.347,3.462 L5.749,1.953 L5.046,1.763 L4.644,3.272 L3.546,2.168 L3.032,2.685 L4.13,3.79 L2.63,4.194 L2.819,4.901 L4.318,4.497 L3.916,6.005 L4.619,6.195 L5.021,4.686 L6.119,5.79 L6.633,5.273 L5.535,4.169 L7.035,3.764 L6.847,3.057 Z M18.006,4.602 L17.779,3.75 L15.971,4.237 L16.456,2.419 L15.609,2.191 L15.125,4.009 L13.802,2.678 L13.183,3.302 L14.505,4.633 L12.698,5.12 L12.925,5.972 L14.732,5.485 L14.248,7.302 L15.095,7.531 L15.579,5.713 L16.902,7.044 L17.521,6.42 L16.198,5.089 L18.006,4.602 Z M12.106,1.293 L10.607,1.698 L11.009,0.189 L10.306,0 L9.904,1.508 L8.806,0.404 L8.292,0.921 L9.389,2.026 L7.89,2.43 L8.078,3.137 L9.578,2.733 L9.176,4.241 L9.879,4.431 L10.281,2.922 L11.378,4.027 L11.893,3.509 L10.795,2.405 L12.295,2 L12.106,1.293 Z" id="Fill-208" fill-opacity="0.702000022" fill="#7196EA" sketch:type="MSShapeGroup"></path>
    </g>
</svg>