<?xml version="1.0" encoding="UTF-8" standalone="no"?>
<svg width="16px" height="16px" viewBox="0 0 16 16" version="1.1" xmlns="http://www.w3.org/2000/svg" xmlns:xlink="http://www.w3.org/1999/xlink" xmlns:sketch="http://www.bohemiancoding.com/sketch/ns">
    <!-- Generator: Sketch 3.0.4 (8054) - http://www.bohemiancoding.com/sketch -->
    <title>ovc-ts-ra-16</title>
    <desc>Created with Sketch.</desc>
    <defs></defs>
    <g id="Page-1" stroke="none" stroke-width="1" fill="none" fill-rule="evenodd" sketch:type="MSPage">
        <path d="M13.3547315,8.97924736 C14.8443978,8.80376232 16,7.53683384 16,6 C16,4.34314575 14.6568542,3 13,3 C12.9580074,3 12.9162163,3.00086278 12.8746435,3.00257158 L12.8746435,3.00257158 C12.4314957,1.2760397 10.8647654,-1.38777878e-17 9,0 C7.51936443,0 6.22662389,0.804474258 5.53502948,2.00017167 C5.52336655,2.00005731 5.51168997,2 5.5,2 C3.73665767,2 2.27788325,3.30401026 2.03540053,5.000307 L2.03540053,5.000307 C2.02362488,5.00010261 2.01182442,5 2,5 C1.92720489,5 1.78453618,5.01147089 1.78453618,5.01147089 C1.78453618,5.01147089 1.55477117,5.046384 1.44524148,5.07794056 C0.610548243,5.31842369 0,6.08791125 0,7 C0,7.74028236 0.40219863,8.38662619 1,8.73243561 L1,9 L4,9 L9.5,2.5 L10,8.5 L13.3547315,8.97924736 Z M3,14 C3.55228475,14 4,13.5522847 4,13 L4,10 C2.5,11.5 2,12.4477153 2,13 C2,13.5522847 2.44771525,14 3,14 Z M13,14 C13.5522847,14 14,13.5522847 14,13 L14,10 C12.5,11.5 12,12.4477153 12,13 C12,13.5522847 12.4477153,14 13,14 Z" id="Oval-4" fill-opacity="0.702000022" fill="#7196EA" sketch:type="MSShapeGroup"></path>
        <path d="M5,10.5 L8.05062509,11.5 L7,16 L11,10.5 L8.05062509,9.5 L9,5 L5,10.5 Z" id="Shape-24" opacity="0.8" fill="#ED9700" sketch:type="MSShapeGroup"></path>
    </g>
</svg>