<?xml version="1.0" encoding="UTF-8" standalone="no"?>
<svg width="19px" height="19px" viewBox="0 0 19 19" version="1.1" xmlns="http://www.w3.org/2000/svg" xmlns:xlink="http://www.w3.org/1999/xlink" xmlns:sketch="http://www.bohemiancoding.com/sketch/ns">
    <!-- Generator: Sketch 3.0.4 (8054) - http://www.bohemiancoding.com/sketch -->
    <title>ovc-19</title>
    <desc>Created with Sketch.</desc>
    <defs></defs>
    <g id="Page-1" stroke="none" stroke-width="1" fill="none" fill-rule="evenodd" sketch:type="MSPage">
        <path d="M15.6470588,8.15243255 C17.4988371,8.15243255 19,9.6746644 19,11.5524325 C19,13.4302007 17.4988371,14.9524325 15.6470587,14.9524325 L2.23529412,14.9524325 C1.00077527,14.9524325 0,13.9376113 0,12.6857659 C0,11.6520653 0.682377449,10.7799794 1.61526989,10.5074318 C1.73768542,10.4716678 1.99448161,10.4320996 1.99448161,10.4320996 C1.99448161,10.4320996 2.15393488,10.4190992 2.23529412,10.4190992 C2.24854259,10.4190992 2.26176414,10.4192161 2.27495782,10.4194489 L2.27495782,10.4194489 C2.248819,10.2342625 2.23529412,10.0449491 2.23529412,9.85243255 C2.23529412,7.66170304 3.98665083,5.88576588 6.14705882,5.88576588 C6.51961071,5.88576588 6.87999851,5.93857751 7.22133879,6.03722075 C7.97084521,4.59911925 9.46079398,3.61909922 11.1764706,3.61909922 C13.6455083,3.61909922 15.6470588,5.64874168 15.6470588,8.15243255 Z" id="Oval-2" fill-opacity="0.702000022" fill="#7196EA" sketch:type="MSShapeGroup"></path>
    </g>
</svg>