<?xml version="1.0" encoding="UTF-8" standalone="no"?>
<svg width="19px" height="19px" viewBox="0 0 19 19" version="1.1" xmlns="http://www.w3.org/2000/svg" xmlns:xlink="http://www.w3.org/1999/xlink" xmlns:sketch="http://www.bohemiancoding.com/sketch/ns">
    <!-- Generator: Sketch 3.0.4 (8054) - http://www.bohemiancoding.com/sketch -->
    <title>skc-n-19</title>
    <desc>Created with Sketch.</desc>
    <defs></defs>
    <g id="Page-1" stroke="none" stroke-width="1" fill="none" fill-rule="evenodd" sketch:type="MSPage">
        <path d="M18.9901818,1.05490874 L17.8498786,1.0727392 L17.5233405,-0.0434477084 L17.1879572,1.06988632 L16.047654,1.0420708 L16.9800933,1.71178295 L16.6019578,2.81085261 L17.5144953,2.11189851 L18.4211359,2.81869801 L18.0518457,1.71677548 L18.9901818,1.05490874 Z M7.17397427,10.949888 L6.78872339,9.64075955 L6.39272518,10.9465291 L5.04765399,10.9146196 L6.14801647,11.7006005 L5.70241513,12.9895755 L6.77797605,12.169166 L7.84774994,12.9988125 L7.41206923,11.7056388 L8.51904545,10.9297346 L7.17397427,10.949888 Z M1.60940909,6.88455229 L3.50922727,5.43223979 L5.398,6.90117729 L4.6285,4.61167729 L6.58354545,3.23773979 L4.20877273,3.27455229 L3.52886364,0.956552292 L2.82931818,3.26861479 L0.454545455,3.21042729 L2.39731818,4.60217729 L1.60940909,6.88455229 Z" id="Fill-168" fill-opacity="0.702000022" fill="#7196EA" sketch:type="MSShapeGroup"></path>
        <path d="M9.80802801,2.1054375 C13.3021962,3.8035625 15.0138033,7.7056875 13.6557209,11.2871875 C12.1744027,15.1916875 7.60970204,17.225875 3.46076633,15.8329375 C2.61803321,15.549125 1.86119165,15.140625 1.19522087,14.6454375 C2.21969555,16.4005625 3.89644814,17.8279375 6.05867477,18.5535 C10.7515904,20.1293125 15.9125527,17.829125 17.5880605,13.4128125 C19.2623235,8.9976875 16.8175261,4.1408125 12.1246105,2.565 C11.3590553,2.3073125 10.581052,2.163625 9.80802801,2.1054375 Z" id="Path" fill="#ED9700" sketch:type="MSShapeGroup"></path>
    </g>
</svg>