<?xml version="1.0" encoding="UTF-8" standalone="no"?>
<svg width="16px" height="16px" viewBox="0 0 16 16" version="1.1" xmlns="http://www.w3.org/2000/svg" xmlns:xlink="http://www.w3.org/1999/xlink" xmlns:sketch="http://www.bohemiancoding.com/sketch/ns">
    <title>Webmaster </title>
    <description>Created with Sketch (http://www.bohemiancoding.com/sketch)</description>
    <defs></defs>
    <g id="Page-1" stroke="none" stroke-width="1" fill="none" fill-rule="evenodd" sketch:type="MSPage">
        <g id="Light" sketch:type="MSLayerGroup" transform="translate(-234.000000, -2.000000)">
            <g id="Webmaster" transform="translate(234.000000, 3.000000)" sketch:type="MSShapeGroup">
                <g id="Fill-77-+-Fill-78-+-Fill-79">
                    <path d="M9.25268695,7.608 L8.46968695,7.608 C7.24068695,7.608 6.04868695,6.713 6.04868695,4.475 C6.04868695,2.144 7.16668695,1.193 8.30268695,1.193 L9.25268695,1.193 L9.25268695,7.608 Z M10.481687,0 L8.35768695,0 C6.27268695,0 4.50268695,1.585 4.50268695,4.662 C4.50268695,6.508 5.35968695,7.869 6.88668695,8.54 L4.03768695,13.687 C3.94368695,13.855 4.03768695,13.985 4.18568695,13.985 L5.50868695,13.985 C5.61968695,13.985 5.69468695,13.948 5.73168695,13.855 L8.32068695,8.801 L9.25268695,8.801 L9.25268695,13.855 C9.25268695,13.911 9.30868695,13.985 9.38268695,13.985 L10.537687,13.985 C10.649687,13.985 10.686687,13.929 10.686687,13.836 L10.686687,0.186 C10.686687,0.056 10.612687,0 10.481687,0 L10.481687,0 Z" id="Fill-77" fill="#FF0000"></path>
                    <path d="M15.328,6.803 L15.328,6.803 L12.666,4 L12,4.7 L14.662,7.504 L12,10.307 L12.666,11.008 L15.994,7.504 L15.328,6.803 Z" id="Fill-78" fill="#000000"></path>
                    <path d="M3.993,4.701 L3.328,4 L0.665,6.804 L0,7.504 L0.665,8.205 L3.328,11.009 L3.993,10.308 L1.331,7.504 L3.993,4.701 Z" id="Fill-79" fill="#000000"></path>
                </g>
            </g>
        </g>
    </g>
</svg>