<?xml version="1.0" encoding="UTF-8" standalone="no"?>
<svg width="14px" height="16px" viewBox="0 0 14 16" version="1.1" xmlns="http://www.w3.org/2000/svg" xmlns:xlink="http://www.w3.org/1999/xlink" xmlns:sketch="http://www.bohemiancoding.com/sketch/ns">
    <title>Podpiski</title>
    <description>Created with Sketch (http://www.bohemiancoding.com/sketch)</description>
    <defs></defs>
    <g id="Page-1" stroke="none" stroke-width="1" fill="none" fill-rule="evenodd" sketch:type="MSPage">
        <g id="Light" sketch:type="MSLayerGroup" transform="translate(-285.000000, -3.000000)" fill="#4975B9">
            <g id="Podpiski" transform="translate(285.000000, 4.000000)" sketch:type="MSShapeGroup">
                <g id="Fill-130">
                    <path d="M2.484,8.969 C1.112,8.969 0,10.081 0,11.453 C0,12.826 1.112,13.938 2.484,13.938 C3.856,13.938 4.968,12.826 4.968,11.453 C4.968,10.081 3.856,8.969 2.484,8.969 M2.515,0 C1.989,0 1.476,0.064 0.968,0.156 L0.968,2.705 C1.472,2.617 1.987,2.563 2.515,2.563 C7.477,2.563 11.5,6.585 11.5,11.547 C11.5,12.011 11.454,12.488 11.386,12.969 L13.863,12.969 C13.925,12.46 13.968,11.953 13.968,11.453 C13.968,5.128 8.841,0 2.515,0 M2.484,4.469 C1.963,4.469 1.457,4.53 0.968,4.639 L0.968,7.276 C1.44,7.108 1.94,7 2.468,7 C4.954,7 6.968,9.015 6.968,11.5 C6.968,12.018 6.863,12.506 6.703,12.969 L9.32,12.969 C9.416,12.455 9.468,11.945 9.468,11.453 C9.468,7.596 6.341,4.469 2.484,4.469"></path>
                </g>
            </g>
        </g>
    </g>
</svg>