<?xml version="1.0" encoding="UTF-8" standalone="no"?>
<svg width="19px" height="19px" viewBox="0 0 19 19" version="1.1" xmlns="http://www.w3.org/2000/svg" xmlns:xlink="http://www.w3.org/1999/xlink" xmlns:sketch="http://www.bohemiancoding.com/sketch/ns">
    <!-- Generator: Sketch 3.0.4 (8054) - http://www.bohemiancoding.com/sketch -->
    <title>bkn-minus-sn-n-19</title>
    <desc>Created with Sketch.</desc>
    <defs></defs>
    <g id="Page-1" stroke="none" stroke-width="1" fill="none" fill-rule="evenodd" sketch:type="MSPage">
        <path d="M8.90976846,5.15501495 C8.93975853,3.11346131 8.00254859,1.23801411 6.48376923,0 C6.58153846,0.007125 6.6805,0.0095 6.77946154,0.021375 C8.66540772,0.250730391 10.2920492,1.17800341 11.4267943,2.50876854 C10.3345087,3.10516073 9.45019222,4.03236802 8.90976846,5.15501495 Z M5.9451415,10.5328922 C4.66734111,11.3733697 3.09024131,11.7831113 1.44746154,11.582875 C0.941923077,11.5223125 0.459038462,11.4 -2.84217094e-14,11.2385 C1.13507692,12.8190625 2.90803846,13.9471875 5.01007692,14.2025 C5.92100091,14.3135864 6.8133436,14.2520303 7.6534743,14.0437714 C6.61606303,13.287643 5.94230769,12.0659362 5.94230769,10.6875 C5.94230769,10.6357376 5.94325777,10.5841962 5.9451415,10.5328922 L5.9451415,10.5328922 Z" id="Rectangle-2" fill="#ED9700" sketch:type="MSShapeGroup"></path>
        <path d="M14.2124381,15.2858192 L13.8649913,13.9891302 L12.7133105,14.2977221 L13.0607573,15.5944111 L13.0607573,15.5944111 L11.7640683,15.2469644 L11.4554763,16.3986452 L12.7521654,16.7460919 L11.8029231,17.6953342 L12.646012,18.538423 L13.5952542,17.5891808 L13.942701,18.8858698 L15.0943818,18.5772779 L14.746935,17.2805889 L16.043624,17.6280356 L16.352216,16.4763548 L15.0555269,16.1289081 L16.0047692,15.1796658 L15.1616803,14.336577 L14.2124381,15.2858192 Z M24.4763255,5.81286444 C26.4223972,5.81286444 28,7.42015961 28,9.4028587 C28,11.3855578 26.4223972,12.992853 24.47632,12.992853 L10.3816277,12.992853 C9.08424659,12.992853 8.03251139,11.9213228 8.03251139,10.5995235 C8.03251139,9.50805899 8.74963581,8.58724035 9.73003155,8.29946266 C9.85868054,8.26170004 10.1285529,8.21992075 10.1285529,8.21992075 C10.1285529,8.21992075 10.2961256,8.20619394 10.3816277,8.20619394 C10.3955508,8.20619394 10.4094456,8.20631735 10.4233111,8.20656315 L10.4233111,8.20656315 C10.3958413,8.01102842 10.3816277,7.81113612 10.3816277,7.60786157 C10.3816277,5.29471264 12.2221643,3.41953493 14.4925812,3.41953493 C14.8841036,3.41953493 15.2628425,3.47529771 15.621564,3.57945319 C16.4092357,2.06098963 17.9750533,1.02620542 19.7780929,1.02620542 C22.3728551,1.02620542 24.4763255,3.16926566 24.4763255,5.81286444 L24.4763255,5.81286444 Z" id="Oval-2" fill-opacity="0.702000022" fill="#7196EA" sketch:type="MSShapeGroup"></path>
    </g>
</svg>