<?xml version="1.0" encoding="UTF-8" standalone="no"?>
<svg width="19px" height="19px" viewBox="0 0 19 19" version="1.1" xmlns="http://www.w3.org/2000/svg" xmlns:xlink="http://www.w3.org/1999/xlink" xmlns:sketch="http://www.bohemiancoding.com/sketch/ns">
    <!-- Generator: Sketch 3.0.4 (8054) - http://www.bohemiancoding.com/sketch -->
    <title>ovc-plus-sn-19</title>
    <desc>Created with Sketch.</desc>
    <defs></defs>
    <g id="Page-1" stroke="none" stroke-width="1" fill="none" fill-rule="evenodd" sketch:type="MSPage">
        <path d="M15.9961882,13.869089 L15.6583766,12.6083588 L14.4651741,12.9280764 L14.8029857,14.1888066 L14.8029857,14.1888066 L13.5422556,13.850995 L13.2225379,15.0441975 L14.4832681,15.3820091 L13.5603496,16.3049276 L14.4338344,17.1784125 L15.3567529,16.2554939 L15.6945646,17.5162241 L16.8877671,17.1965065 L16.5499554,15.9357763 L17.8106856,16.2735879 L18.1304032,15.0803854 L16.8696731,14.7425738 L17.7925916,13.8196553 L16.9191068,12.9461704 L15.9961882,13.869089 Z M9.99618823,14.869089 L9.6583766,13.6083588 L8.46517411,13.9280764 L8.80298574,15.1888066 L8.80298574,15.1888066 L7.54225557,14.850995 L7.22253793,16.0441975 L8.4832681,16.3820091 L7.56034956,17.3049276 L8.43383441,18.1784125 L9.35675294,17.2554939 L9.69456457,18.5162241 L10.8877671,18.1965065 L10.5499554,16.9357763 L11.8106856,17.2735879 L12.1304032,16.0803854 L10.8696731,15.7425738 L11.7925916,14.8196553 L10.9191068,13.9461704 L9.99618823,14.869089 L9.99618823,14.869089 Z M3.99618823,13.869089 L3.6583766,12.6083588 L2.46517411,12.9280764 L2.80298574,14.1888066 L2.80298574,14.1888066 L1.54225557,13.850995 L1.22253793,15.0441975 L2.4832681,15.3820091 L1.56034956,16.3049276 L2.43383441,17.1784125 L3.35675294,16.2554939 L3.69456457,17.5162241 L4.88776707,17.1965065 L4.54995544,15.9357763 L5.8106856,16.2735879 L6.13040325,15.0803854 L4.86967308,14.7425738 L5.79259162,13.8196553 L4.91910677,12.9461704 L3.99618823,13.869089 L3.99618823,13.869089 Z M15.6470588,5.15243255 C17.4988371,5.15243255 19,6.6746644 19,8.55243255 C19,10.4302007 17.4988371,11.9524325 15.6470587,11.9524325 L2.23529412,11.9524325 C1.00077527,11.9524325 0,10.9376113 0,9.68576588 C0,8.6520653 0.682377449,7.77997939 1.61526989,7.50743185 C1.73768542,7.47166775 1.99448161,7.43209955 1.99448161,7.43209955 C1.99448161,7.43209955 2.15393488,7.41909922 2.23529412,7.41909922 C2.24854259,7.41909922 2.26176414,7.41921609 2.27495782,7.41944888 L2.27495782,7.41944888 C2.248819,7.2342625 2.23529412,7.04494914 2.23529412,6.85243255 C2.23529412,4.66170304 3.98665083,2.88576588 6.14705882,2.88576588 C6.51961071,2.88576588 6.87999851,2.93857751 7.22133879,3.03722075 C7.97084521,1.59911925 9.46079398,0.619099216 11.1764706,0.619099216 C13.6455083,0.619099216 15.6470588,2.64874168 15.6470588,5.15243255 L15.6470588,5.15243255 Z" id="Oval-2" fill-opacity="0.702000022" fill="#7196EA" sketch:type="MSShapeGroup"></path>
    </g>
</svg>