<?xml version="1.0" encoding="UTF-8" standalone="no"?>
<svg width="16px" height="16px" viewBox="0 0 16 16" version="1.1" xmlns="http://www.w3.org/2000/svg" xmlns:xlink="http://www.w3.org/1999/xlink" xmlns:sketch="http://www.bohemiancoding.com/sketch/ns">
    <title>music-light</title>
    <description>Created with Sketch (http://www.bohemiancoding.com/sketch)</description>
    <defs></defs>
    <g id="Page-1" stroke="none" stroke-width="1" fill="none" fill-rule="evenodd" sketch:type="MSPage">
        <g id="Dark" sketch:type="MSLayerGroup" transform="translate(-487.000000, -4.000000)">
            <g id="Music" transform="translate(487.000000, 5.000000)" sketch:type="MSShapeGroup">
                <g id="Fill-1-+-Fill-3">
                    <path d="M10,0 L10,2.047 C12.289,2.51 14.013,4.531 14.013,6.954 C14.013,9.378 12.289,11.399 10,11.862 L10,13.909 C13.375,13.521 16,10.557 16,6.954 C16,3.352 13.375,0.387 10,0 M11.994,6.954 C11.994,5.657 11.159,4.563 10,4.151 L10,6.931 C10,6.939 10.005,6.946 10.005,6.954 C10.005,6.963 10,6.969 10,6.977 L10,9.758 C11.159,9.346 11.994,8.252 11.994,6.954" id="Fill-1" fill="#F82C33"></path>
                    <path d="M3,4 L0,4 L0,10 L3,10 L8,14 L8,0 L3,4 Z" id="Fill-3" fill-opacity="0.600000024" fill="#FFFFFF"></path>
                </g>
            </g>
        </g>
    </g>
</svg>